G04 #@! TF.FileFunction,Legend,Top*
%FSLAX46Y46*%
G04 Gerber Fmt 4.6, Leading zero omitted, Abs format (unit mm)*
G04 Created by KiCad (PCBNEW 4.0.0-rc1-stable) date 11/15/15 04:01:34*
%MOMM*%
G01*
G04 APERTURE LIST*
%ADD10C,0.100000*%
%ADD11C,0.150000*%
%ADD12C,0.066040*%
%ADD13C,0.152400*%
%ADD14C,0.050800*%
%ADD15C,0.076200*%
%ADD16C,0.063500*%
%ADD17C,0.127000*%
G04 APERTURE END LIST*
D10*
D11*
X135270000Y-113270000D02*
X135270000Y-115810000D01*
X135550000Y-110450000D02*
X135550000Y-112000000D01*
X135270000Y-113270000D02*
X132730000Y-113270000D01*
X132450000Y-112000000D02*
X132450000Y-110450000D01*
X132450000Y-110450000D02*
X135550000Y-110450000D01*
X132730000Y-113270000D02*
X132730000Y-115810000D01*
X132730000Y-115810000D02*
X135270000Y-115810000D01*
X102750000Y-111750000D02*
X105750000Y-111750000D01*
X105750000Y-114250000D02*
X102750000Y-114250000D01*
X102750000Y-121750000D02*
X105750000Y-121750000D01*
X105750000Y-124250000D02*
X102750000Y-124250000D01*
X108750000Y-58750000D02*
X111750000Y-58750000D01*
X111750000Y-61250000D02*
X108750000Y-61250000D01*
X79750000Y-79750000D02*
X82750000Y-79750000D01*
X82750000Y-82250000D02*
X79750000Y-82250000D01*
X91750000Y-84750000D02*
X94750000Y-84750000D01*
X94750000Y-87250000D02*
X91750000Y-87250000D01*
X89750000Y-117750000D02*
X92750000Y-117750000D01*
X92750000Y-120250000D02*
X89750000Y-120250000D01*
X68750000Y-71750000D02*
X71750000Y-71750000D01*
X71750000Y-74250000D02*
X68750000Y-74250000D01*
X62750000Y-102750000D02*
X65750000Y-102750000D01*
X65750000Y-105250000D02*
X62750000Y-105250000D01*
X120750000Y-92750000D02*
X123750000Y-92750000D01*
X123750000Y-95250000D02*
X120750000Y-95250000D01*
X116810000Y-102000000D02*
X116048000Y-102000000D01*
X116048000Y-102000000D02*
X116048000Y-100984000D01*
X116048000Y-100984000D02*
X109952000Y-100984000D01*
X109952000Y-100984000D02*
X109952000Y-102000000D01*
X109952000Y-102000000D02*
X109190000Y-102000000D01*
X109952000Y-102000000D02*
X109952000Y-103016000D01*
X109952000Y-103016000D02*
X116048000Y-103016000D01*
X116048000Y-103016000D02*
X116048000Y-102000000D01*
X115540000Y-100984000D02*
X115540000Y-103016000D01*
X115286000Y-103016000D02*
X115286000Y-100984000D01*
X117810000Y-85000000D02*
X117048000Y-85000000D01*
X117048000Y-85000000D02*
X117048000Y-83984000D01*
X117048000Y-83984000D02*
X110952000Y-83984000D01*
X110952000Y-83984000D02*
X110952000Y-85000000D01*
X110952000Y-85000000D02*
X110190000Y-85000000D01*
X110952000Y-85000000D02*
X110952000Y-86016000D01*
X110952000Y-86016000D02*
X117048000Y-86016000D01*
X117048000Y-86016000D02*
X117048000Y-85000000D01*
X116540000Y-83984000D02*
X116540000Y-86016000D01*
X116286000Y-86016000D02*
X116286000Y-83984000D01*
X62785112Y-119524904D02*
G75*
G03X62770000Y-116500000I2484888J1524904D01*
G01*
X62770000Y-119500000D02*
X62770000Y-116500000D01*
X67787936Y-118000000D02*
G75*
G03X67787936Y-118000000I-2517936J0D01*
G01*
X71785112Y-128524904D02*
G75*
G03X71770000Y-125500000I2484888J1524904D01*
G01*
X71770000Y-128500000D02*
X71770000Y-125500000D01*
X76787936Y-127000000D02*
G75*
G03X76787936Y-127000000I-2517936J0D01*
G01*
X121810000Y-78000000D02*
X121048000Y-78000000D01*
X121048000Y-78000000D02*
X121048000Y-76984000D01*
X121048000Y-76984000D02*
X114952000Y-76984000D01*
X114952000Y-76984000D02*
X114952000Y-78000000D01*
X114952000Y-78000000D02*
X114190000Y-78000000D01*
X114952000Y-78000000D02*
X114952000Y-79016000D01*
X114952000Y-79016000D02*
X121048000Y-79016000D01*
X121048000Y-79016000D02*
X121048000Y-78000000D01*
X120540000Y-76984000D02*
X120540000Y-79016000D01*
X120286000Y-79016000D02*
X120286000Y-76984000D01*
X118250000Y-123000000D02*
X119850000Y-123000000D01*
X120600000Y-125000000D02*
X117400000Y-125000000D01*
X117400000Y-121000000D02*
X120600000Y-121000000D01*
X82366520Y-90997460D02*
X83763520Y-90997460D01*
X77921520Y-90997460D02*
X76397520Y-90997460D01*
X78302520Y-90235460D02*
X78302520Y-91759460D01*
X78048520Y-90235460D02*
X78048520Y-91759460D01*
X77794520Y-90997460D02*
X77794520Y-91759460D01*
X77794520Y-91759460D02*
X82366520Y-91759460D01*
X82366520Y-91759460D02*
X82366520Y-90235460D01*
X82366520Y-90235460D02*
X77794520Y-90235460D01*
X77794520Y-90235460D02*
X77794520Y-90997460D01*
X57366520Y-92997460D02*
X58763520Y-92997460D01*
X52921520Y-92997460D02*
X51397520Y-92997460D01*
X53302520Y-92235460D02*
X53302520Y-93759460D01*
X53048520Y-92235460D02*
X53048520Y-93759460D01*
X52794520Y-92997460D02*
X52794520Y-93759460D01*
X52794520Y-93759460D02*
X57366520Y-93759460D01*
X57366520Y-93759460D02*
X57366520Y-92235460D01*
X57366520Y-92235460D02*
X52794520Y-92235460D01*
X52794520Y-92235460D02*
X52794520Y-92997460D01*
X138576443Y-88000000D02*
G75*
G03X138576443Y-88000000I-5576443J0D01*
G01*
X96570000Y-100700000D02*
X99970000Y-100700000D01*
X96572944Y-100697056D02*
G75*
G02X98270000Y-96600000I1697056J1697056D01*
G01*
X99967056Y-100697056D02*
G75*
G03X98270000Y-96600000I-1697056J1697056D01*
G01*
X104570000Y-80700000D02*
X107970000Y-80700000D01*
X104572944Y-80697056D02*
G75*
G02X106270000Y-76600000I1697056J1697056D01*
G01*
X107967056Y-80697056D02*
G75*
G03X106270000Y-76600000I-1697056J1697056D01*
G01*
X104570000Y-91700000D02*
X107970000Y-91700000D01*
X104572944Y-91697056D02*
G75*
G02X106270000Y-87600000I1697056J1697056D01*
G01*
X107967056Y-91697056D02*
G75*
G03X106270000Y-87600000I-1697056J1697056D01*
G01*
X54730000Y-97000000D02*
X57270000Y-97000000D01*
X56149903Y-97000000D02*
G75*
G03X56149903Y-97000000I-1419903J0D01*
G01*
X121730000Y-85000000D02*
X124270000Y-85000000D01*
X123149903Y-85000000D02*
G75*
G03X123149903Y-85000000I-1419903J0D01*
G01*
X99730000Y-85000000D02*
X102270000Y-85000000D01*
X101149903Y-85000000D02*
G75*
G03X101149903Y-85000000I-1419903J0D01*
G01*
X88730000Y-99000000D02*
X91270000Y-99000000D01*
X90149903Y-99000000D02*
G75*
G03X90149903Y-99000000I-1419903J0D01*
G01*
X69730000Y-110000000D02*
X72270000Y-110000000D01*
X71149903Y-110000000D02*
G75*
G03X71149903Y-110000000I-1419903J0D01*
G01*
X89730000Y-112000000D02*
X92270000Y-112000000D01*
X91149903Y-112000000D02*
G75*
G03X91149903Y-112000000I-1419903J0D01*
G01*
X71730000Y-83000000D02*
X74270000Y-83000000D01*
X73149903Y-83000000D02*
G75*
G03X73149903Y-83000000I-1419903J0D01*
G01*
X71730000Y-97000000D02*
X74270000Y-97000000D01*
X73149903Y-97000000D02*
G75*
G03X73149903Y-97000000I-1419903J0D01*
G01*
X74730000Y-103000000D02*
X77270000Y-103000000D01*
X76149903Y-103000000D02*
G75*
G03X76149903Y-103000000I-1419903J0D01*
G01*
X65730000Y-91000000D02*
X68270000Y-91000000D01*
X67149903Y-91000000D02*
G75*
G03X67149903Y-91000000I-1419903J0D01*
G01*
X54730000Y-111000000D02*
X57270000Y-111000000D01*
X56149903Y-111000000D02*
G75*
G03X56149903Y-111000000I-1419903J0D01*
G01*
X108730000Y-69000000D02*
X111270000Y-69000000D01*
X110149903Y-69000000D02*
G75*
G03X110149903Y-69000000I-1419903J0D01*
G01*
X120550420Y-68000000D02*
X121398780Y-66999240D01*
X121398780Y-66999240D02*
X121398780Y-69000760D01*
X121398780Y-69000760D02*
X120550420Y-68000000D01*
X120550420Y-68000000D02*
X120550420Y-69000760D01*
X120550420Y-68000000D02*
X120550420Y-66999240D01*
X118693680Y-69800000D02*
X118693680Y-69600200D01*
X119150720Y-69800000D02*
X119150720Y-69601000D01*
X123301240Y-69800000D02*
X123301240Y-69651000D01*
X118698760Y-66200000D02*
X118698760Y-66349000D01*
X119150720Y-66200000D02*
X119150720Y-66349000D01*
X123301240Y-66200000D02*
X123301240Y-66349000D01*
X119150720Y-69948980D02*
X119150720Y-69750860D01*
X119150720Y-66001020D02*
X119150720Y-66199140D01*
X123296160Y-69996440D02*
X123296160Y-69798320D01*
X118693680Y-69996440D02*
X123296160Y-69996440D01*
X118693680Y-69996440D02*
X118693680Y-69798320D01*
X118698760Y-66001020D02*
X118698760Y-66199140D01*
X118698760Y-66001020D02*
X123301240Y-66001020D01*
X123301240Y-66001020D02*
X123301240Y-66199140D01*
D12*
X85555260Y-69749300D02*
X88095260Y-69749300D01*
X88095260Y-69749300D02*
X88095260Y-68735840D01*
X85555260Y-68735840D02*
X88095260Y-68735840D01*
X85555260Y-69749300D02*
X85555260Y-68735840D01*
X85555260Y-65941840D02*
X88095260Y-65941840D01*
X88095260Y-65941840D02*
X88095260Y-64925840D01*
X85555260Y-64925840D02*
X88095260Y-64925840D01*
X85555260Y-65941840D02*
X85555260Y-64925840D01*
X85555260Y-62131840D02*
X88095260Y-62131840D01*
X88095260Y-62131840D02*
X88095260Y-61115840D01*
X85555260Y-61115840D02*
X88095260Y-61115840D01*
X85555260Y-62131840D02*
X85555260Y-61115840D01*
X85555260Y-58321840D02*
X88095260Y-58321840D01*
X88095260Y-58321840D02*
X88095260Y-57305840D01*
X85555260Y-57305840D02*
X88095260Y-57305840D01*
X85555260Y-58321840D02*
X85555260Y-57305840D01*
X85237760Y-54194340D02*
X88412760Y-54194340D01*
X88412760Y-54194340D02*
X88412760Y-53178340D01*
X85237760Y-53178340D02*
X88412760Y-53178340D01*
X85237760Y-54194340D02*
X85237760Y-53178340D01*
X97554220Y-54194340D02*
X100729220Y-54194340D01*
X100729220Y-54194340D02*
X100729220Y-53178340D01*
X97554220Y-53178340D02*
X100729220Y-53178340D01*
X97554220Y-54194340D02*
X97554220Y-53178340D01*
X97871720Y-58321840D02*
X100411720Y-58321840D01*
X100411720Y-58321840D02*
X100411720Y-57305840D01*
X97871720Y-57305840D02*
X100411720Y-57305840D01*
X97871720Y-58321840D02*
X97871720Y-57305840D01*
X97871720Y-62131840D02*
X100411720Y-62131840D01*
X100411720Y-62131840D02*
X100411720Y-61115840D01*
X97871720Y-61115840D02*
X100411720Y-61115840D01*
X97871720Y-62131840D02*
X97871720Y-61115840D01*
X97871720Y-65941840D02*
X100411720Y-65941840D01*
X100411720Y-65941840D02*
X100411720Y-64925840D01*
X97871720Y-64925840D02*
X100411720Y-64925840D01*
X97871720Y-65941840D02*
X97871720Y-64925840D01*
X97871720Y-69749300D02*
X100411720Y-69749300D01*
X100411720Y-69749300D02*
X100411720Y-68735840D01*
X97871720Y-68735840D02*
X100411720Y-68735840D01*
X97871720Y-69749300D02*
X97871720Y-68735840D01*
X89825000Y-74080000D02*
X91095000Y-74080000D01*
X91095000Y-74080000D02*
X91095000Y-70270000D01*
X89825000Y-70270000D02*
X91095000Y-70270000D01*
X89825000Y-74080000D02*
X89825000Y-70270000D01*
X92365000Y-74080000D02*
X93635000Y-74080000D01*
X93635000Y-74080000D02*
X93635000Y-70270000D01*
X92365000Y-70270000D02*
X93635000Y-70270000D01*
X92365000Y-74080000D02*
X92365000Y-70270000D01*
X94905000Y-74080000D02*
X96175000Y-74080000D01*
X96175000Y-74080000D02*
X96175000Y-70270000D01*
X94905000Y-70270000D02*
X96175000Y-70270000D01*
X94905000Y-74080000D02*
X94905000Y-70270000D01*
X89825000Y-72175000D02*
X91095000Y-72175000D01*
X91095000Y-72175000D02*
X91095000Y-70270000D01*
X89825000Y-70270000D02*
X91095000Y-70270000D01*
X89825000Y-72175000D02*
X89825000Y-70270000D01*
X92365000Y-72175000D02*
X93635000Y-72175000D01*
X93635000Y-72175000D02*
X93635000Y-70270000D01*
X92365000Y-70270000D02*
X93635000Y-70270000D01*
X92365000Y-72175000D02*
X92365000Y-70270000D01*
X94905000Y-72175000D02*
X96175000Y-72175000D01*
X96175000Y-72175000D02*
X96175000Y-70270000D01*
X94905000Y-70270000D02*
X96175000Y-70270000D01*
X94905000Y-72175000D02*
X94905000Y-70270000D01*
D13*
X87793000Y-70270000D02*
X98207000Y-70270000D01*
X98207000Y-54395000D02*
X87793000Y-54395000D01*
X98207000Y-70270000D02*
X98207000Y-57824000D01*
X98207000Y-57824000D02*
X97318000Y-57824000D01*
X97318000Y-57824000D02*
X97318000Y-56300000D01*
X97318000Y-56300000D02*
X98207000Y-56300000D01*
X98207000Y-56300000D02*
X98207000Y-54395000D01*
X87793000Y-70270000D02*
X87793000Y-57824000D01*
X87793000Y-57824000D02*
X88682000Y-57824000D01*
X88682000Y-57824000D02*
X88682000Y-56300000D01*
X88682000Y-56300000D02*
X87793000Y-56300000D01*
X87793000Y-56300000D02*
X87793000Y-54395000D01*
D14*
X88428000Y-69635000D02*
X97572000Y-69635000D01*
X97572000Y-61380000D02*
X97572000Y-69635000D01*
X97572000Y-61380000D02*
X88428000Y-61380000D01*
X88428000Y-69635000D02*
X88428000Y-61380000D01*
D13*
X86317260Y-52098840D02*
X86317260Y-70511300D01*
X87333260Y-70511300D02*
X86317260Y-70511300D01*
X87333260Y-70511300D02*
X87333260Y-67084840D01*
X99649720Y-52098840D02*
X99649720Y-70511300D01*
X98633720Y-70511300D02*
X99649720Y-70511300D01*
X98633720Y-70511300D02*
X98633720Y-67084840D01*
X86317260Y-52098840D02*
X87333260Y-52098840D01*
X87333260Y-52098840D02*
X98633720Y-52098840D01*
X98633720Y-52098840D02*
X99649720Y-52098840D01*
X87333260Y-67084840D02*
X98633720Y-67084840D01*
X87333260Y-67084840D02*
X87333260Y-52098840D01*
X98633720Y-67084840D02*
X98633720Y-52098840D01*
D15*
X94271604Y-57824000D02*
G75*
G03X94271604Y-57824000I-1271604J0D01*
G01*
D16*
X95471366Y-57851940D02*
G75*
G03X95471366Y-57851940I-2471366J0D01*
G01*
D17*
X94167433Y-57824000D02*
G75*
G03X94167433Y-57824000I-1167433J0D01*
G01*
X91349000Y-57824000D02*
X94651000Y-57824000D01*
X93000000Y-59475000D02*
X93000000Y-56173000D01*
D11*
X78587000Y-115222000D02*
X83413000Y-115222000D01*
X83413000Y-115222000D02*
X83413000Y-118778000D01*
X83413000Y-118778000D02*
X78587000Y-118778000D01*
X78587000Y-118778000D02*
X78587000Y-115222000D01*
X79603000Y-118143000D02*
G75*
G03X79603000Y-118143000I-381000J0D01*
G01*
X58476000Y-79952000D02*
X58476000Y-81095000D01*
X61524000Y-79952000D02*
X61524000Y-81095000D01*
X65334000Y-81095000D02*
X65334000Y-84778000D01*
X65334000Y-84778000D02*
X54666000Y-84778000D01*
X54666000Y-84778000D02*
X54666000Y-81095000D01*
X65334000Y-79952000D02*
X65334000Y-81095000D01*
X65334000Y-81095000D02*
X54666000Y-81095000D01*
X54666000Y-81095000D02*
X54666000Y-79952000D01*
X60000000Y-79952000D02*
X54666000Y-79952000D01*
X60000000Y-79952000D02*
X65334000Y-79952000D01*
X132214286Y-106828571D02*
X132357143Y-106876190D01*
X132404762Y-106923810D01*
X132452381Y-107019048D01*
X132452381Y-107161905D01*
X132404762Y-107257143D01*
X132357143Y-107304762D01*
X132261905Y-107352381D01*
X131880952Y-107352381D01*
X131880952Y-106352381D01*
X132214286Y-106352381D01*
X132309524Y-106400000D01*
X132357143Y-106447619D01*
X132404762Y-106542857D01*
X132404762Y-106638095D01*
X132357143Y-106733333D01*
X132309524Y-106780952D01*
X132214286Y-106828571D01*
X131880952Y-106828571D01*
X133404762Y-107352381D02*
X132833333Y-107352381D01*
X133119047Y-107352381D02*
X133119047Y-106352381D01*
X133023809Y-106495238D01*
X132928571Y-106590476D01*
X132833333Y-106638095D01*
X133785714Y-106447619D02*
X133833333Y-106400000D01*
X133928571Y-106352381D01*
X134166667Y-106352381D01*
X134261905Y-106400000D01*
X134309524Y-106447619D01*
X134357143Y-106542857D01*
X134357143Y-106638095D01*
X134309524Y-106780952D01*
X133738095Y-107352381D01*
X134357143Y-107352381D01*
X134642857Y-106352381D02*
X134976190Y-107352381D01*
X135309524Y-106352381D01*
X136166667Y-107352381D02*
X135595238Y-107352381D01*
X135880952Y-107352381D02*
X135880952Y-106352381D01*
X135785714Y-106495238D01*
X135690476Y-106590476D01*
X135595238Y-106638095D01*
X104083334Y-110857143D02*
X104035715Y-110904762D01*
X103892858Y-110952381D01*
X103797620Y-110952381D01*
X103654762Y-110904762D01*
X103559524Y-110809524D01*
X103511905Y-110714286D01*
X103464286Y-110523810D01*
X103464286Y-110380952D01*
X103511905Y-110190476D01*
X103559524Y-110095238D01*
X103654762Y-110000000D01*
X103797620Y-109952381D01*
X103892858Y-109952381D01*
X104035715Y-110000000D01*
X104083334Y-110047619D01*
X105035715Y-110952381D02*
X104464286Y-110952381D01*
X104750000Y-110952381D02*
X104750000Y-109952381D01*
X104654762Y-110095238D01*
X104559524Y-110190476D01*
X104464286Y-110238095D01*
X104083334Y-120857143D02*
X104035715Y-120904762D01*
X103892858Y-120952381D01*
X103797620Y-120952381D01*
X103654762Y-120904762D01*
X103559524Y-120809524D01*
X103511905Y-120714286D01*
X103464286Y-120523810D01*
X103464286Y-120380952D01*
X103511905Y-120190476D01*
X103559524Y-120095238D01*
X103654762Y-120000000D01*
X103797620Y-119952381D01*
X103892858Y-119952381D01*
X104035715Y-120000000D01*
X104083334Y-120047619D01*
X104464286Y-120047619D02*
X104511905Y-120000000D01*
X104607143Y-119952381D01*
X104845239Y-119952381D01*
X104940477Y-120000000D01*
X104988096Y-120047619D01*
X105035715Y-120142857D01*
X105035715Y-120238095D01*
X104988096Y-120380952D01*
X104416667Y-120952381D01*
X105035715Y-120952381D01*
X110083334Y-57857143D02*
X110035715Y-57904762D01*
X109892858Y-57952381D01*
X109797620Y-57952381D01*
X109654762Y-57904762D01*
X109559524Y-57809524D01*
X109511905Y-57714286D01*
X109464286Y-57523810D01*
X109464286Y-57380952D01*
X109511905Y-57190476D01*
X109559524Y-57095238D01*
X109654762Y-57000000D01*
X109797620Y-56952381D01*
X109892858Y-56952381D01*
X110035715Y-57000000D01*
X110083334Y-57047619D01*
X110416667Y-56952381D02*
X111035715Y-56952381D01*
X110702381Y-57333333D01*
X110845239Y-57333333D01*
X110940477Y-57380952D01*
X110988096Y-57428571D01*
X111035715Y-57523810D01*
X111035715Y-57761905D01*
X110988096Y-57857143D01*
X110940477Y-57904762D01*
X110845239Y-57952381D01*
X110559524Y-57952381D01*
X110464286Y-57904762D01*
X110416667Y-57857143D01*
X81083334Y-78857143D02*
X81035715Y-78904762D01*
X80892858Y-78952381D01*
X80797620Y-78952381D01*
X80654762Y-78904762D01*
X80559524Y-78809524D01*
X80511905Y-78714286D01*
X80464286Y-78523810D01*
X80464286Y-78380952D01*
X80511905Y-78190476D01*
X80559524Y-78095238D01*
X80654762Y-78000000D01*
X80797620Y-77952381D01*
X80892858Y-77952381D01*
X81035715Y-78000000D01*
X81083334Y-78047619D01*
X81940477Y-78285714D02*
X81940477Y-78952381D01*
X81702381Y-77904762D02*
X81464286Y-78619048D01*
X82083334Y-78619048D01*
X93083334Y-83857143D02*
X93035715Y-83904762D01*
X92892858Y-83952381D01*
X92797620Y-83952381D01*
X92654762Y-83904762D01*
X92559524Y-83809524D01*
X92511905Y-83714286D01*
X92464286Y-83523810D01*
X92464286Y-83380952D01*
X92511905Y-83190476D01*
X92559524Y-83095238D01*
X92654762Y-83000000D01*
X92797620Y-82952381D01*
X92892858Y-82952381D01*
X93035715Y-83000000D01*
X93083334Y-83047619D01*
X93988096Y-82952381D02*
X93511905Y-82952381D01*
X93464286Y-83428571D01*
X93511905Y-83380952D01*
X93607143Y-83333333D01*
X93845239Y-83333333D01*
X93940477Y-83380952D01*
X93988096Y-83428571D01*
X94035715Y-83523810D01*
X94035715Y-83761905D01*
X93988096Y-83857143D01*
X93940477Y-83904762D01*
X93845239Y-83952381D01*
X93607143Y-83952381D01*
X93511905Y-83904762D01*
X93464286Y-83857143D01*
X91083334Y-116857143D02*
X91035715Y-116904762D01*
X90892858Y-116952381D01*
X90797620Y-116952381D01*
X90654762Y-116904762D01*
X90559524Y-116809524D01*
X90511905Y-116714286D01*
X90464286Y-116523810D01*
X90464286Y-116380952D01*
X90511905Y-116190476D01*
X90559524Y-116095238D01*
X90654762Y-116000000D01*
X90797620Y-115952381D01*
X90892858Y-115952381D01*
X91035715Y-116000000D01*
X91083334Y-116047619D01*
X91940477Y-115952381D02*
X91750000Y-115952381D01*
X91654762Y-116000000D01*
X91607143Y-116047619D01*
X91511905Y-116190476D01*
X91464286Y-116380952D01*
X91464286Y-116761905D01*
X91511905Y-116857143D01*
X91559524Y-116904762D01*
X91654762Y-116952381D01*
X91845239Y-116952381D01*
X91940477Y-116904762D01*
X91988096Y-116857143D01*
X92035715Y-116761905D01*
X92035715Y-116523810D01*
X91988096Y-116428571D01*
X91940477Y-116380952D01*
X91845239Y-116333333D01*
X91654762Y-116333333D01*
X91559524Y-116380952D01*
X91511905Y-116428571D01*
X91464286Y-116523810D01*
X70083334Y-70857143D02*
X70035715Y-70904762D01*
X69892858Y-70952381D01*
X69797620Y-70952381D01*
X69654762Y-70904762D01*
X69559524Y-70809524D01*
X69511905Y-70714286D01*
X69464286Y-70523810D01*
X69464286Y-70380952D01*
X69511905Y-70190476D01*
X69559524Y-70095238D01*
X69654762Y-70000000D01*
X69797620Y-69952381D01*
X69892858Y-69952381D01*
X70035715Y-70000000D01*
X70083334Y-70047619D01*
X70416667Y-69952381D02*
X71083334Y-69952381D01*
X70654762Y-70952381D01*
X64083334Y-101857143D02*
X64035715Y-101904762D01*
X63892858Y-101952381D01*
X63797620Y-101952381D01*
X63654762Y-101904762D01*
X63559524Y-101809524D01*
X63511905Y-101714286D01*
X63464286Y-101523810D01*
X63464286Y-101380952D01*
X63511905Y-101190476D01*
X63559524Y-101095238D01*
X63654762Y-101000000D01*
X63797620Y-100952381D01*
X63892858Y-100952381D01*
X64035715Y-101000000D01*
X64083334Y-101047619D01*
X64654762Y-101380952D02*
X64559524Y-101333333D01*
X64511905Y-101285714D01*
X64464286Y-101190476D01*
X64464286Y-101142857D01*
X64511905Y-101047619D01*
X64559524Y-101000000D01*
X64654762Y-100952381D01*
X64845239Y-100952381D01*
X64940477Y-101000000D01*
X64988096Y-101047619D01*
X65035715Y-101142857D01*
X65035715Y-101190476D01*
X64988096Y-101285714D01*
X64940477Y-101333333D01*
X64845239Y-101380952D01*
X64654762Y-101380952D01*
X64559524Y-101428571D01*
X64511905Y-101476190D01*
X64464286Y-101571429D01*
X64464286Y-101761905D01*
X64511905Y-101857143D01*
X64559524Y-101904762D01*
X64654762Y-101952381D01*
X64845239Y-101952381D01*
X64940477Y-101904762D01*
X64988096Y-101857143D01*
X65035715Y-101761905D01*
X65035715Y-101571429D01*
X64988096Y-101476190D01*
X64940477Y-101428571D01*
X64845239Y-101380952D01*
X122083334Y-91857143D02*
X122035715Y-91904762D01*
X121892858Y-91952381D01*
X121797620Y-91952381D01*
X121654762Y-91904762D01*
X121559524Y-91809524D01*
X121511905Y-91714286D01*
X121464286Y-91523810D01*
X121464286Y-91380952D01*
X121511905Y-91190476D01*
X121559524Y-91095238D01*
X121654762Y-91000000D01*
X121797620Y-90952381D01*
X121892858Y-90952381D01*
X122035715Y-91000000D01*
X122083334Y-91047619D01*
X122559524Y-91952381D02*
X122750000Y-91952381D01*
X122845239Y-91904762D01*
X122892858Y-91857143D01*
X122988096Y-91714286D01*
X123035715Y-91523810D01*
X123035715Y-91142857D01*
X122988096Y-91047619D01*
X122940477Y-91000000D01*
X122845239Y-90952381D01*
X122654762Y-90952381D01*
X122559524Y-91000000D01*
X122511905Y-91047619D01*
X122464286Y-91142857D01*
X122464286Y-91380952D01*
X122511905Y-91476190D01*
X122559524Y-91523810D01*
X122654762Y-91571429D01*
X122845239Y-91571429D01*
X122940477Y-91523810D01*
X122988096Y-91476190D01*
X123035715Y-91380952D01*
X112261905Y-102452381D02*
X112261905Y-101452381D01*
X112500000Y-101452381D01*
X112642858Y-101500000D01*
X112738096Y-101595238D01*
X112785715Y-101690476D01*
X112833334Y-101880952D01*
X112833334Y-102023810D01*
X112785715Y-102214286D01*
X112738096Y-102309524D01*
X112642858Y-102404762D01*
X112500000Y-102452381D01*
X112261905Y-102452381D01*
X113785715Y-102452381D02*
X113214286Y-102452381D01*
X113500000Y-102452381D02*
X113500000Y-101452381D01*
X113404762Y-101595238D01*
X113309524Y-101690476D01*
X113214286Y-101738095D01*
X113261905Y-85452381D02*
X113261905Y-84452381D01*
X113500000Y-84452381D01*
X113642858Y-84500000D01*
X113738096Y-84595238D01*
X113785715Y-84690476D01*
X113833334Y-84880952D01*
X113833334Y-85023810D01*
X113785715Y-85214286D01*
X113738096Y-85309524D01*
X113642858Y-85404762D01*
X113500000Y-85452381D01*
X113261905Y-85452381D01*
X114214286Y-84547619D02*
X114261905Y-84500000D01*
X114357143Y-84452381D01*
X114595239Y-84452381D01*
X114690477Y-84500000D01*
X114738096Y-84547619D01*
X114785715Y-84642857D01*
X114785715Y-84738095D01*
X114738096Y-84880952D01*
X114166667Y-85452381D01*
X114785715Y-85452381D01*
X64785905Y-122516381D02*
X64785905Y-121516381D01*
X65024000Y-121516381D01*
X65166858Y-121564000D01*
X65262096Y-121659238D01*
X65309715Y-121754476D01*
X65357334Y-121944952D01*
X65357334Y-122087810D01*
X65309715Y-122278286D01*
X65262096Y-122373524D01*
X65166858Y-122468762D01*
X65024000Y-122516381D01*
X64785905Y-122516381D01*
X65690667Y-121516381D02*
X66309715Y-121516381D01*
X65976381Y-121897333D01*
X66119239Y-121897333D01*
X66214477Y-121944952D01*
X66262096Y-121992571D01*
X66309715Y-122087810D01*
X66309715Y-122325905D01*
X66262096Y-122421143D01*
X66214477Y-122468762D01*
X66119239Y-122516381D01*
X65833524Y-122516381D01*
X65738286Y-122468762D01*
X65690667Y-122421143D01*
X61833095Y-120357381D02*
X61833095Y-119357381D01*
X62404524Y-120357381D02*
X61975952Y-119785952D01*
X62404524Y-119357381D02*
X61833095Y-119928810D01*
X73785905Y-131516381D02*
X73785905Y-130516381D01*
X74024000Y-130516381D01*
X74166858Y-130564000D01*
X74262096Y-130659238D01*
X74309715Y-130754476D01*
X74357334Y-130944952D01*
X74357334Y-131087810D01*
X74309715Y-131278286D01*
X74262096Y-131373524D01*
X74166858Y-131468762D01*
X74024000Y-131516381D01*
X73785905Y-131516381D01*
X75214477Y-130849714D02*
X75214477Y-131516381D01*
X74976381Y-130468762D02*
X74738286Y-131183048D01*
X75357334Y-131183048D01*
X70833095Y-129357381D02*
X70833095Y-128357381D01*
X71404524Y-129357381D02*
X70975952Y-128785952D01*
X71404524Y-128357381D02*
X70833095Y-128928810D01*
X117261905Y-78452381D02*
X117261905Y-77452381D01*
X117500000Y-77452381D01*
X117642858Y-77500000D01*
X117738096Y-77595238D01*
X117785715Y-77690476D01*
X117833334Y-77880952D01*
X117833334Y-78023810D01*
X117785715Y-78214286D01*
X117738096Y-78309524D01*
X117642858Y-78404762D01*
X117500000Y-78452381D01*
X117261905Y-78452381D01*
X118738096Y-77452381D02*
X118261905Y-77452381D01*
X118214286Y-77928571D01*
X118261905Y-77880952D01*
X118357143Y-77833333D01*
X118595239Y-77833333D01*
X118690477Y-77880952D01*
X118738096Y-77928571D01*
X118785715Y-78023810D01*
X118785715Y-78261905D01*
X118738096Y-78357143D01*
X118690477Y-78404762D01*
X118595239Y-78452381D01*
X118357143Y-78452381D01*
X118261905Y-78404762D01*
X118214286Y-78357143D01*
X118866667Y-118228571D02*
X118533333Y-118228571D01*
X118533333Y-118752381D02*
X118533333Y-117752381D01*
X119009524Y-117752381D01*
X119914286Y-118752381D02*
X119342857Y-118752381D01*
X119628571Y-118752381D02*
X119628571Y-117752381D01*
X119533333Y-117895238D01*
X119438095Y-117990476D01*
X119342857Y-118038095D01*
X79692425Y-93989841D02*
X79692425Y-92989841D01*
X80263854Y-93989841D02*
X79835282Y-93418412D01*
X80263854Y-92989841D02*
X79692425Y-93561270D01*
X81216235Y-93989841D02*
X80644806Y-93989841D01*
X80930520Y-93989841D02*
X80930520Y-92989841D01*
X80835282Y-93132698D01*
X80740044Y-93227936D01*
X80644806Y-93275555D01*
X54692425Y-95989841D02*
X54692425Y-94989841D01*
X55263854Y-95989841D02*
X54835282Y-95418412D01*
X55263854Y-94989841D02*
X54692425Y-95561270D01*
X55644806Y-95085079D02*
X55692425Y-95037460D01*
X55787663Y-94989841D01*
X56025759Y-94989841D01*
X56120997Y-95037460D01*
X56168616Y-95085079D01*
X56216235Y-95180317D01*
X56216235Y-95275555D01*
X56168616Y-95418412D01*
X55597187Y-95989841D01*
X56216235Y-95989841D01*
X130666666Y-90992381D02*
X130666666Y-89992381D01*
X131047619Y-89992381D01*
X131142857Y-90040000D01*
X131190476Y-90087619D01*
X131238095Y-90182857D01*
X131238095Y-90325714D01*
X131190476Y-90420952D01*
X131142857Y-90468571D01*
X131047619Y-90516190D01*
X130666666Y-90516190D01*
X132095238Y-90992381D02*
X132095238Y-90468571D01*
X132047619Y-90373333D01*
X131952381Y-90325714D01*
X131761904Y-90325714D01*
X131666666Y-90373333D01*
X132095238Y-90944762D02*
X132000000Y-90992381D01*
X131761904Y-90992381D01*
X131666666Y-90944762D01*
X131619047Y-90849524D01*
X131619047Y-90754286D01*
X131666666Y-90659048D01*
X131761904Y-90611429D01*
X132000000Y-90611429D01*
X132095238Y-90563810D01*
X132571428Y-90325714D02*
X132571428Y-90992381D01*
X132571428Y-90420952D02*
X132619047Y-90373333D01*
X132714285Y-90325714D01*
X132857143Y-90325714D01*
X132952381Y-90373333D01*
X133000000Y-90468571D01*
X133000000Y-90992381D01*
X133857143Y-90944762D02*
X133761905Y-90992381D01*
X133571428Y-90992381D01*
X133476190Y-90944762D01*
X133428571Y-90849524D01*
X133428571Y-90468571D01*
X133476190Y-90373333D01*
X133571428Y-90325714D01*
X133761905Y-90325714D01*
X133857143Y-90373333D01*
X133904762Y-90468571D01*
X133904762Y-90563810D01*
X133428571Y-90659048D01*
X134476190Y-90992381D02*
X134380952Y-90944762D01*
X134333333Y-90849524D01*
X134333333Y-89992381D01*
X134809524Y-90087619D02*
X134857143Y-90040000D01*
X134952381Y-89992381D01*
X135190477Y-89992381D01*
X135285715Y-90040000D01*
X135333334Y-90087619D01*
X135380953Y-90182857D01*
X135380953Y-90278095D01*
X135333334Y-90420952D01*
X134761905Y-90992381D01*
X135380953Y-90992381D01*
X96904762Y-95547619D02*
X96809524Y-95500000D01*
X96714286Y-95404762D01*
X96571429Y-95261905D01*
X96476190Y-95214286D01*
X96380952Y-95214286D01*
X96428571Y-95452381D02*
X96333333Y-95404762D01*
X96238095Y-95309524D01*
X96190476Y-95119048D01*
X96190476Y-94785714D01*
X96238095Y-94595238D01*
X96333333Y-94500000D01*
X96428571Y-94452381D01*
X96619048Y-94452381D01*
X96714286Y-94500000D01*
X96809524Y-94595238D01*
X96857143Y-94785714D01*
X96857143Y-95119048D01*
X96809524Y-95309524D01*
X96714286Y-95404762D01*
X96619048Y-95452381D01*
X96428571Y-95452381D01*
X97809524Y-95452381D02*
X97238095Y-95452381D01*
X97523809Y-95452381D02*
X97523809Y-94452381D01*
X97428571Y-94595238D01*
X97333333Y-94690476D01*
X97238095Y-94738095D01*
X104904762Y-75547619D02*
X104809524Y-75500000D01*
X104714286Y-75404762D01*
X104571429Y-75261905D01*
X104476190Y-75214286D01*
X104380952Y-75214286D01*
X104428571Y-75452381D02*
X104333333Y-75404762D01*
X104238095Y-75309524D01*
X104190476Y-75119048D01*
X104190476Y-74785714D01*
X104238095Y-74595238D01*
X104333333Y-74500000D01*
X104428571Y-74452381D01*
X104619048Y-74452381D01*
X104714286Y-74500000D01*
X104809524Y-74595238D01*
X104857143Y-74785714D01*
X104857143Y-75119048D01*
X104809524Y-75309524D01*
X104714286Y-75404762D01*
X104619048Y-75452381D01*
X104428571Y-75452381D01*
X105238095Y-74547619D02*
X105285714Y-74500000D01*
X105380952Y-74452381D01*
X105619048Y-74452381D01*
X105714286Y-74500000D01*
X105761905Y-74547619D01*
X105809524Y-74642857D01*
X105809524Y-74738095D01*
X105761905Y-74880952D01*
X105190476Y-75452381D01*
X105809524Y-75452381D01*
X104904762Y-86547619D02*
X104809524Y-86500000D01*
X104714286Y-86404762D01*
X104571429Y-86261905D01*
X104476190Y-86214286D01*
X104380952Y-86214286D01*
X104428571Y-86452381D02*
X104333333Y-86404762D01*
X104238095Y-86309524D01*
X104190476Y-86119048D01*
X104190476Y-85785714D01*
X104238095Y-85595238D01*
X104333333Y-85500000D01*
X104428571Y-85452381D01*
X104619048Y-85452381D01*
X104714286Y-85500000D01*
X104809524Y-85595238D01*
X104857143Y-85785714D01*
X104857143Y-86119048D01*
X104809524Y-86309524D01*
X104714286Y-86404762D01*
X104619048Y-86452381D01*
X104428571Y-86452381D01*
X105190476Y-85452381D02*
X105809524Y-85452381D01*
X105476190Y-85833333D01*
X105619048Y-85833333D01*
X105714286Y-85880952D01*
X105761905Y-85928571D01*
X105809524Y-86023810D01*
X105809524Y-86261905D01*
X105761905Y-86357143D01*
X105714286Y-86404762D01*
X105619048Y-86452381D01*
X105333333Y-86452381D01*
X105238095Y-86404762D01*
X105190476Y-86357143D01*
X54817334Y-99992381D02*
X54484000Y-99516190D01*
X54245905Y-99992381D02*
X54245905Y-98992381D01*
X54626858Y-98992381D01*
X54722096Y-99040000D01*
X54769715Y-99087619D01*
X54817334Y-99182857D01*
X54817334Y-99325714D01*
X54769715Y-99420952D01*
X54722096Y-99468571D01*
X54626858Y-99516190D01*
X54245905Y-99516190D01*
X55769715Y-99992381D02*
X55198286Y-99992381D01*
X55484000Y-99992381D02*
X55484000Y-98992381D01*
X55388762Y-99135238D01*
X55293524Y-99230476D01*
X55198286Y-99278095D01*
X121817334Y-87992381D02*
X121484000Y-87516190D01*
X121245905Y-87992381D02*
X121245905Y-86992381D01*
X121626858Y-86992381D01*
X121722096Y-87040000D01*
X121769715Y-87087619D01*
X121817334Y-87182857D01*
X121817334Y-87325714D01*
X121769715Y-87420952D01*
X121722096Y-87468571D01*
X121626858Y-87516190D01*
X121245905Y-87516190D01*
X122198286Y-87087619D02*
X122245905Y-87040000D01*
X122341143Y-86992381D01*
X122579239Y-86992381D01*
X122674477Y-87040000D01*
X122722096Y-87087619D01*
X122769715Y-87182857D01*
X122769715Y-87278095D01*
X122722096Y-87420952D01*
X122150667Y-87992381D01*
X122769715Y-87992381D01*
X99817334Y-87992381D02*
X99484000Y-87516190D01*
X99245905Y-87992381D02*
X99245905Y-86992381D01*
X99626858Y-86992381D01*
X99722096Y-87040000D01*
X99769715Y-87087619D01*
X99817334Y-87182857D01*
X99817334Y-87325714D01*
X99769715Y-87420952D01*
X99722096Y-87468571D01*
X99626858Y-87516190D01*
X99245905Y-87516190D01*
X100150667Y-86992381D02*
X100769715Y-86992381D01*
X100436381Y-87373333D01*
X100579239Y-87373333D01*
X100674477Y-87420952D01*
X100722096Y-87468571D01*
X100769715Y-87563810D01*
X100769715Y-87801905D01*
X100722096Y-87897143D01*
X100674477Y-87944762D01*
X100579239Y-87992381D01*
X100293524Y-87992381D01*
X100198286Y-87944762D01*
X100150667Y-87897143D01*
X88817334Y-101992381D02*
X88484000Y-101516190D01*
X88245905Y-101992381D02*
X88245905Y-100992381D01*
X88626858Y-100992381D01*
X88722096Y-101040000D01*
X88769715Y-101087619D01*
X88817334Y-101182857D01*
X88817334Y-101325714D01*
X88769715Y-101420952D01*
X88722096Y-101468571D01*
X88626858Y-101516190D01*
X88245905Y-101516190D01*
X89722096Y-100992381D02*
X89245905Y-100992381D01*
X89198286Y-101468571D01*
X89245905Y-101420952D01*
X89341143Y-101373333D01*
X89579239Y-101373333D01*
X89674477Y-101420952D01*
X89722096Y-101468571D01*
X89769715Y-101563810D01*
X89769715Y-101801905D01*
X89722096Y-101897143D01*
X89674477Y-101944762D01*
X89579239Y-101992381D01*
X89341143Y-101992381D01*
X89245905Y-101944762D01*
X89198286Y-101897143D01*
X69817334Y-112992381D02*
X69484000Y-112516190D01*
X69245905Y-112992381D02*
X69245905Y-111992381D01*
X69626858Y-111992381D01*
X69722096Y-112040000D01*
X69769715Y-112087619D01*
X69817334Y-112182857D01*
X69817334Y-112325714D01*
X69769715Y-112420952D01*
X69722096Y-112468571D01*
X69626858Y-112516190D01*
X69245905Y-112516190D01*
X70674477Y-111992381D02*
X70484000Y-111992381D01*
X70388762Y-112040000D01*
X70341143Y-112087619D01*
X70245905Y-112230476D01*
X70198286Y-112420952D01*
X70198286Y-112801905D01*
X70245905Y-112897143D01*
X70293524Y-112944762D01*
X70388762Y-112992381D01*
X70579239Y-112992381D01*
X70674477Y-112944762D01*
X70722096Y-112897143D01*
X70769715Y-112801905D01*
X70769715Y-112563810D01*
X70722096Y-112468571D01*
X70674477Y-112420952D01*
X70579239Y-112373333D01*
X70388762Y-112373333D01*
X70293524Y-112420952D01*
X70245905Y-112468571D01*
X70198286Y-112563810D01*
X89817334Y-114992381D02*
X89484000Y-114516190D01*
X89245905Y-114992381D02*
X89245905Y-113992381D01*
X89626858Y-113992381D01*
X89722096Y-114040000D01*
X89769715Y-114087619D01*
X89817334Y-114182857D01*
X89817334Y-114325714D01*
X89769715Y-114420952D01*
X89722096Y-114468571D01*
X89626858Y-114516190D01*
X89245905Y-114516190D01*
X90150667Y-113992381D02*
X90817334Y-113992381D01*
X90388762Y-114992381D01*
X71817334Y-85992381D02*
X71484000Y-85516190D01*
X71245905Y-85992381D02*
X71245905Y-84992381D01*
X71626858Y-84992381D01*
X71722096Y-85040000D01*
X71769715Y-85087619D01*
X71817334Y-85182857D01*
X71817334Y-85325714D01*
X71769715Y-85420952D01*
X71722096Y-85468571D01*
X71626858Y-85516190D01*
X71245905Y-85516190D01*
X72388762Y-85420952D02*
X72293524Y-85373333D01*
X72245905Y-85325714D01*
X72198286Y-85230476D01*
X72198286Y-85182857D01*
X72245905Y-85087619D01*
X72293524Y-85040000D01*
X72388762Y-84992381D01*
X72579239Y-84992381D01*
X72674477Y-85040000D01*
X72722096Y-85087619D01*
X72769715Y-85182857D01*
X72769715Y-85230476D01*
X72722096Y-85325714D01*
X72674477Y-85373333D01*
X72579239Y-85420952D01*
X72388762Y-85420952D01*
X72293524Y-85468571D01*
X72245905Y-85516190D01*
X72198286Y-85611429D01*
X72198286Y-85801905D01*
X72245905Y-85897143D01*
X72293524Y-85944762D01*
X72388762Y-85992381D01*
X72579239Y-85992381D01*
X72674477Y-85944762D01*
X72722096Y-85897143D01*
X72769715Y-85801905D01*
X72769715Y-85611429D01*
X72722096Y-85516190D01*
X72674477Y-85468571D01*
X72579239Y-85420952D01*
X71817334Y-99992381D02*
X71484000Y-99516190D01*
X71245905Y-99992381D02*
X71245905Y-98992381D01*
X71626858Y-98992381D01*
X71722096Y-99040000D01*
X71769715Y-99087619D01*
X71817334Y-99182857D01*
X71817334Y-99325714D01*
X71769715Y-99420952D01*
X71722096Y-99468571D01*
X71626858Y-99516190D01*
X71245905Y-99516190D01*
X72293524Y-99992381D02*
X72484000Y-99992381D01*
X72579239Y-99944762D01*
X72626858Y-99897143D01*
X72722096Y-99754286D01*
X72769715Y-99563810D01*
X72769715Y-99182857D01*
X72722096Y-99087619D01*
X72674477Y-99040000D01*
X72579239Y-98992381D01*
X72388762Y-98992381D01*
X72293524Y-99040000D01*
X72245905Y-99087619D01*
X72198286Y-99182857D01*
X72198286Y-99420952D01*
X72245905Y-99516190D01*
X72293524Y-99563810D01*
X72388762Y-99611429D01*
X72579239Y-99611429D01*
X72674477Y-99563810D01*
X72722096Y-99516190D01*
X72769715Y-99420952D01*
X74341143Y-105992381D02*
X74007809Y-105516190D01*
X73769714Y-105992381D02*
X73769714Y-104992381D01*
X74150667Y-104992381D01*
X74245905Y-105040000D01*
X74293524Y-105087619D01*
X74341143Y-105182857D01*
X74341143Y-105325714D01*
X74293524Y-105420952D01*
X74245905Y-105468571D01*
X74150667Y-105516190D01*
X73769714Y-105516190D01*
X75293524Y-105992381D02*
X74722095Y-105992381D01*
X75007809Y-105992381D02*
X75007809Y-104992381D01*
X74912571Y-105135238D01*
X74817333Y-105230476D01*
X74722095Y-105278095D01*
X75912571Y-104992381D02*
X76007810Y-104992381D01*
X76103048Y-105040000D01*
X76150667Y-105087619D01*
X76198286Y-105182857D01*
X76245905Y-105373333D01*
X76245905Y-105611429D01*
X76198286Y-105801905D01*
X76150667Y-105897143D01*
X76103048Y-105944762D01*
X76007810Y-105992381D01*
X75912571Y-105992381D01*
X75817333Y-105944762D01*
X75769714Y-105897143D01*
X75722095Y-105801905D01*
X75674476Y-105611429D01*
X75674476Y-105373333D01*
X75722095Y-105182857D01*
X75769714Y-105087619D01*
X75817333Y-105040000D01*
X75912571Y-104992381D01*
X65341143Y-93992381D02*
X65007809Y-93516190D01*
X64769714Y-93992381D02*
X64769714Y-92992381D01*
X65150667Y-92992381D01*
X65245905Y-93040000D01*
X65293524Y-93087619D01*
X65341143Y-93182857D01*
X65341143Y-93325714D01*
X65293524Y-93420952D01*
X65245905Y-93468571D01*
X65150667Y-93516190D01*
X64769714Y-93516190D01*
X66293524Y-93992381D02*
X65722095Y-93992381D01*
X66007809Y-93992381D02*
X66007809Y-92992381D01*
X65912571Y-93135238D01*
X65817333Y-93230476D01*
X65722095Y-93278095D01*
X67245905Y-93992381D02*
X66674476Y-93992381D01*
X66960190Y-93992381D02*
X66960190Y-92992381D01*
X66864952Y-93135238D01*
X66769714Y-93230476D01*
X66674476Y-93278095D01*
X54341143Y-113992381D02*
X54007809Y-113516190D01*
X53769714Y-113992381D02*
X53769714Y-112992381D01*
X54150667Y-112992381D01*
X54245905Y-113040000D01*
X54293524Y-113087619D01*
X54341143Y-113182857D01*
X54341143Y-113325714D01*
X54293524Y-113420952D01*
X54245905Y-113468571D01*
X54150667Y-113516190D01*
X53769714Y-113516190D01*
X55293524Y-113992381D02*
X54722095Y-113992381D01*
X55007809Y-113992381D02*
X55007809Y-112992381D01*
X54912571Y-113135238D01*
X54817333Y-113230476D01*
X54722095Y-113278095D01*
X55674476Y-113087619D02*
X55722095Y-113040000D01*
X55817333Y-112992381D01*
X56055429Y-112992381D01*
X56150667Y-113040000D01*
X56198286Y-113087619D01*
X56245905Y-113182857D01*
X56245905Y-113278095D01*
X56198286Y-113420952D01*
X55626857Y-113992381D01*
X56245905Y-113992381D01*
X108341143Y-71992381D02*
X108007809Y-71516190D01*
X107769714Y-71992381D02*
X107769714Y-70992381D01*
X108150667Y-70992381D01*
X108245905Y-71040000D01*
X108293524Y-71087619D01*
X108341143Y-71182857D01*
X108341143Y-71325714D01*
X108293524Y-71420952D01*
X108245905Y-71468571D01*
X108150667Y-71516190D01*
X107769714Y-71516190D01*
X109293524Y-71992381D02*
X108722095Y-71992381D01*
X109007809Y-71992381D02*
X109007809Y-70992381D01*
X108912571Y-71135238D01*
X108817333Y-71230476D01*
X108722095Y-71278095D01*
X109626857Y-70992381D02*
X110245905Y-70992381D01*
X109912571Y-71373333D01*
X110055429Y-71373333D01*
X110150667Y-71420952D01*
X110198286Y-71468571D01*
X110245905Y-71563810D01*
X110245905Y-71801905D01*
X110198286Y-71897143D01*
X110150667Y-71944762D01*
X110055429Y-71992381D01*
X109769714Y-71992381D01*
X109674476Y-71944762D01*
X109626857Y-71897143D01*
X119761905Y-64352381D02*
X120333334Y-64352381D01*
X120047619Y-65352381D02*
X120047619Y-64352381D01*
X120571429Y-64352381D02*
X121238096Y-64352381D01*
X120571429Y-65352381D01*
X121238096Y-65352381D01*
X122142858Y-65352381D02*
X121571429Y-65352381D01*
X121857143Y-65352381D02*
X121857143Y-64352381D01*
X121761905Y-64495238D01*
X121666667Y-64590476D01*
X121571429Y-64638095D01*
X117238095Y-71552381D02*
X117238095Y-70552381D01*
X117809524Y-71552381D02*
X117380952Y-70980952D01*
X117809524Y-70552381D02*
X117238095Y-71123810D01*
X123761905Y-71216667D02*
X124238096Y-71216667D01*
X123666667Y-71502381D02*
X124000000Y-70502381D01*
X124333334Y-71502381D01*
X80238095Y-115690381D02*
X80238095Y-116499905D01*
X80285714Y-116595143D01*
X80333333Y-116642762D01*
X80428571Y-116690381D01*
X80619048Y-116690381D01*
X80714286Y-116642762D01*
X80761905Y-116595143D01*
X80809524Y-116499905D01*
X80809524Y-115690381D01*
X81238095Y-115785619D02*
X81285714Y-115738000D01*
X81380952Y-115690381D01*
X81619048Y-115690381D01*
X81714286Y-115738000D01*
X81761905Y-115785619D01*
X81809524Y-115880857D01*
X81809524Y-115976095D01*
X81761905Y-116118952D01*
X81190476Y-116690381D01*
X81809524Y-116690381D01*
X58690476Y-77372381D02*
X59023809Y-78372381D01*
X59357143Y-77372381D01*
X60261905Y-78372381D02*
X59928571Y-77896190D01*
X59690476Y-78372381D02*
X59690476Y-77372381D01*
X60071429Y-77372381D01*
X60166667Y-77420000D01*
X60214286Y-77467619D01*
X60261905Y-77562857D01*
X60261905Y-77705714D01*
X60214286Y-77800952D01*
X60166667Y-77848571D01*
X60071429Y-77896190D01*
X59690476Y-77896190D01*
X61214286Y-78372381D02*
X60642857Y-78372381D01*
X60928571Y-78372381D02*
X60928571Y-77372381D01*
X60833333Y-77515238D01*
X60738095Y-77610476D01*
X60642857Y-77658095D01*
M02*
