M48
;DRILL file {KiCad 4.0.0-rc1-stable} date 11/15/15 04:02:50
;FORMAT={-:-/ absolute / inch / decimal}
FMAT,2
INCH,TZ
T1C0.024
T2C0.028
T3C0.031
T4C0.032
T5C0.032
T6C0.039
T7C0.040
T8C0.079
%
G90
G05
M72
T1
X3.8189Y-3.8976
X3.8689Y-3.8976
X3.9189Y-3.8976
X4.1339Y-3.1102
X4.1339Y-3.5433
X4.1839Y-3.1102
X4.1839Y-3.5433
X4.2339Y-3.1102
X4.2339Y-3.5433
T2
X1.9685Y-3.6613
X2.3685Y-3.6613
X2.9528Y-3.5826
X3.3528Y-3.5826
T3
X2.4803Y-4.0945
X2.7165Y-2.874
X3.1496Y-3.189
X3.5433Y-4.685
X3.622Y-3.3858
X4.0551Y-4.4488
X4.0551Y-4.8425
X4.2913Y-2.3622
X4.7638Y-3.7008
T4
X2.5787Y-4.0945
X2.815Y-2.874
X3.248Y-3.189
X3.6417Y-4.685
X3.7205Y-3.3858
X4.1535Y-4.4488
X4.1535Y-4.8425
X4.3898Y-2.3622
X4.8622Y-3.7008
T5
X2.1547Y-3.8189
X2.1547Y-4.3701
X2.2547Y-3.8189
X2.2547Y-4.3701
X2.5878Y-3.5827
X2.6878Y-3.5827
X2.7453Y-4.3307
X2.824Y-3.2677
X2.824Y-3.8189
X2.8453Y-4.3307
X2.924Y-3.2677
X2.924Y-3.8189
X2.9421Y-4.0551
X3.0421Y-4.0551
X3.4933Y-3.8976
X3.5327Y-4.4094
X3.5933Y-3.8976
X3.6327Y-4.4094
X3.9264Y-3.3465
X4.0264Y-3.3465
X4.2807Y-2.7165
X4.2988Y-4.0157
X4.3382Y-3.3465
X4.3807Y-2.7165
X4.4957Y-3.0709
X4.5988Y-4.0157
X4.6382Y-3.3465
X4.7925Y-3.3465
X4.7957Y-3.0709
X4.8925Y-3.3465
T6
X2.2622Y-3.2677
X2.3622Y-3.2677
X2.4622Y-3.2677
X2.5197Y-4.6457
X2.6197Y-4.6457
X2.874Y-5.
X2.974Y-5.
T7
X3.5614Y-2.9165
X3.6614Y-2.9165
X3.7614Y-2.9165
X5.1362Y-3.4646
X5.2756Y-4.4094
X5.2756Y-4.5094
X5.3362Y-3.4646
T8
X4.498Y-4.8425G85X4.5571Y-4.8425
G05
X4.813Y-4.8425G85X4.872Y-4.8425
G05
T0
M30
