G04 #@! TF.FileFunction,Copper,L1,Top,Signal*
%FSLAX46Y46*%
G04 Gerber Fmt 4.6, Leading zero omitted, Abs format (unit mm)*
G04 Created by KiCad (PCBNEW 4.0.0-rc1-stable) date 11/15/15 04:01:34*
%MOMM*%
G01*
G04 APERTURE LIST*
%ADD10C,0.100000*%
%ADD11R,2.032000X2.032000*%
%ADD12O,2.032000X2.032000*%
%ADD13R,1.300000X1.300000*%
%ADD14C,1.300000*%
%ADD15R,1.397000X1.397000*%
%ADD16C,1.397000*%
%ADD17R,1.900000X2.000000*%
%ADD18C,1.900000*%
%ADD19O,5.500000X3.800000*%
%ADD20O,5.300000X3.800000*%
%ADD21C,1.699260*%
%ADD22R,1.699260X1.699260*%
%ADD23R,1.778000X1.778000*%
%ADD24C,1.778000*%
%ADD25O,0.899160X1.501140*%
%ADD26R,3.500120X2.301240*%
%ADD27O,1.524000X3.048000*%
%ADD28R,0.431800X1.397000*%
%ADD29O,1.501140X2.499360*%
%ADD30C,0.250000*%
G04 APERTURE END LIST*
D10*
D11*
X134000000Y-112000000D03*
D12*
X134000000Y-114540000D03*
D13*
X103000000Y-113000000D03*
D14*
X105500000Y-113000000D03*
D13*
X103000000Y-123000000D03*
D14*
X105500000Y-123000000D03*
D13*
X109000000Y-60000000D03*
D14*
X111500000Y-60000000D03*
D13*
X80000000Y-81000000D03*
D14*
X82500000Y-81000000D03*
D13*
X92000000Y-86000000D03*
D14*
X94500000Y-86000000D03*
D13*
X90000000Y-119000000D03*
D14*
X92500000Y-119000000D03*
D13*
X69000000Y-73000000D03*
D14*
X71500000Y-73000000D03*
D13*
X63000000Y-104000000D03*
D14*
X65500000Y-104000000D03*
D13*
X121000000Y-94000000D03*
D14*
X123500000Y-94000000D03*
D15*
X116810000Y-102000000D03*
D16*
X109190000Y-102000000D03*
D15*
X117810000Y-85000000D03*
D16*
X110190000Y-85000000D03*
D17*
X64000000Y-118000000D03*
D18*
X66540000Y-118000000D03*
D17*
X73000000Y-127000000D03*
D18*
X75540000Y-127000000D03*
D15*
X121810000Y-78000000D03*
D16*
X114190000Y-78000000D03*
D19*
X115000000Y-123000000D03*
D20*
X123000000Y-123000000D03*
D21*
X85160520Y-90997460D03*
D22*
X75000520Y-90997460D03*
D21*
X60160520Y-92997460D03*
D22*
X50000520Y-92997460D03*
D23*
X130460000Y-88000000D03*
D24*
X135540000Y-88000000D03*
D25*
X98270000Y-99000000D03*
X99540000Y-99000000D03*
X97000000Y-99000000D03*
X106270000Y-79000000D03*
X107540000Y-79000000D03*
X105000000Y-79000000D03*
X106270000Y-90000000D03*
X107540000Y-90000000D03*
X105000000Y-90000000D03*
D16*
X54730000Y-97000000D03*
X57270000Y-97000000D03*
X121730000Y-85000000D03*
X124270000Y-85000000D03*
X99730000Y-85000000D03*
X102270000Y-85000000D03*
X88730000Y-99000000D03*
X91270000Y-99000000D03*
X69730000Y-110000000D03*
X72270000Y-110000000D03*
X89730000Y-112000000D03*
X92270000Y-112000000D03*
X71730000Y-83000000D03*
X74270000Y-83000000D03*
X71730000Y-97000000D03*
X74270000Y-97000000D03*
X74730000Y-103000000D03*
X77270000Y-103000000D03*
X65730000Y-91000000D03*
X68270000Y-91000000D03*
X54730000Y-111000000D03*
X57270000Y-111000000D03*
X108730000Y-69000000D03*
X111270000Y-69000000D03*
D26*
X118299980Y-68000000D03*
X123700020Y-68000000D03*
D27*
X93000000Y-74080000D03*
X90460000Y-74080000D03*
X95540000Y-74080000D03*
D28*
X79069600Y-119794000D03*
X79704600Y-119794000D03*
X80365000Y-119794000D03*
X81000000Y-119794000D03*
X81660400Y-119794000D03*
X82308100Y-119794000D03*
X82955800Y-119794000D03*
X82955800Y-114206000D03*
X82308100Y-114206000D03*
X81660400Y-114206000D03*
X81000000Y-114206000D03*
X80352300Y-114206000D03*
X79704600Y-114206000D03*
X79056900Y-114206000D03*
D29*
X60000000Y-83000000D03*
X57460000Y-83000000D03*
X62540000Y-83000000D03*
D30*
X118024100Y-66524100D02*
X111500000Y-60000000D01*
X118300000Y-66524100D02*
X118024100Y-66524100D01*
X118300000Y-68000000D02*
X118300000Y-66524100D01*
X105500000Y-113000000D02*
X105500000Y-123000000D01*
X99540000Y-99000000D02*
X99540000Y-99577100D01*
X117922900Y-99577100D02*
X123500000Y-94000000D01*
X132658700Y-114312900D02*
X132658700Y-114540000D01*
X117922900Y-99577100D02*
X132658700Y-114312900D01*
X134000000Y-114540000D02*
X132658700Y-114540000D01*
X99540000Y-99577100D02*
X117922900Y-99577100D01*
X81000000Y-113105600D02*
X81000000Y-114206000D01*
X93760100Y-100345500D02*
X81000000Y-113105600D01*
X98771600Y-100345500D02*
X93760100Y-100345500D01*
X99540000Y-99577100D02*
X98771600Y-100345500D01*
X104950600Y-123975300D02*
X103975300Y-123000000D01*
X110949400Y-123975300D02*
X104950600Y-123975300D01*
X111924700Y-123000000D02*
X110949400Y-123975300D01*
X115000000Y-123000000D02*
X111924700Y-123000000D01*
X103000000Y-123000000D02*
X103975300Y-123000000D01*
X114975300Y-102000000D02*
X116810000Y-102000000D01*
X103975300Y-113000000D02*
X114975300Y-102000000D01*
X103000000Y-113000000D02*
X103975300Y-113000000D01*
X90460000Y-74080000D02*
X91547300Y-74080000D01*
X109000000Y-67934800D02*
X109000000Y-60000000D01*
X96741100Y-67934800D02*
X109000000Y-67934800D01*
X91547300Y-73128600D02*
X96741100Y-67934800D01*
X91547300Y-74080000D02*
X91547300Y-73128600D01*
X110204800Y-67934800D02*
X111270000Y-69000000D01*
X109000000Y-67934800D02*
X110204800Y-67934800D01*
X73730000Y-81000000D02*
X80000000Y-81000000D01*
X71730000Y-83000000D02*
X73730000Y-81000000D01*
X80000000Y-81000000D02*
X80487700Y-81000000D01*
X95540000Y-74080000D02*
X94452700Y-74080000D01*
X80487700Y-81000000D02*
X84485900Y-84998200D01*
X84485900Y-90322900D02*
X84485900Y-84998200D01*
X85160500Y-90997500D02*
X84485900Y-90322900D01*
X94452700Y-75031400D02*
X94452700Y-74080000D01*
X84485900Y-84998200D02*
X94452700Y-75031400D01*
X78515600Y-97642400D02*
X85160500Y-90997500D01*
X78515600Y-116285800D02*
X78515600Y-97642400D01*
X81000000Y-118770200D02*
X78515600Y-116285800D01*
X81000000Y-119794000D02*
X81000000Y-118770200D01*
X105118200Y-91075900D02*
X98270000Y-97924100D01*
X106270000Y-91075900D02*
X105118200Y-91075900D01*
X106270000Y-90000000D02*
X106270000Y-91075900D01*
X98270000Y-99000000D02*
X98270000Y-97924100D01*
X93950600Y-86975300D02*
X92975300Y-86000000D01*
X100294700Y-86975300D02*
X93950600Y-86975300D01*
X102270000Y-85000000D02*
X100294700Y-86975300D01*
X92000000Y-86000000D02*
X92975300Y-86000000D01*
X88547800Y-113182200D02*
X89730000Y-112000000D01*
X81660400Y-113182200D02*
X88547800Y-113182200D01*
X81660400Y-114206000D02*
X81660400Y-113182200D01*
X75000500Y-83730500D02*
X75000500Y-90997500D01*
X74270000Y-83000000D02*
X75000500Y-83730500D01*
X82308100Y-115877500D02*
X82308100Y-119794000D01*
X82955800Y-115229800D02*
X82308100Y-115877500D01*
X82308100Y-119794000D02*
X82308100Y-120817800D01*
X82955800Y-114206000D02*
X82955800Y-115065100D01*
X82955800Y-115065100D02*
X82955800Y-115229800D01*
X82955800Y-115065100D02*
X89204900Y-115065100D01*
X89204900Y-115065100D02*
X92270000Y-112000000D01*
X92500000Y-118360200D02*
X92500000Y-119000000D01*
X89204900Y-115065100D02*
X92500000Y-118360200D01*
X81857800Y-121268100D02*
X82308100Y-120817800D01*
X78492300Y-121268100D02*
X81857800Y-121268100D01*
X73886500Y-116662300D02*
X78492300Y-121268100D01*
X73886500Y-110145400D02*
X73886500Y-116662300D01*
X72696200Y-108955100D02*
X73886500Y-110145400D01*
X70774900Y-108955100D02*
X72696200Y-108955100D01*
X69730000Y-110000000D02*
X70774900Y-108955100D01*
X82308100Y-114206000D02*
X82308100Y-115229800D01*
X81660400Y-115877500D02*
X82308100Y-115229800D01*
X81660400Y-119794000D02*
X81660400Y-115877500D01*
X78678900Y-120817800D02*
X81660400Y-120817800D01*
X76000000Y-118138900D02*
X78678900Y-120817800D01*
X76000000Y-102821800D02*
X76000000Y-118138900D01*
X65730000Y-92551800D02*
X76000000Y-102821800D01*
X65730000Y-91000000D02*
X65730000Y-92551800D01*
X81660400Y-119794000D02*
X81660400Y-120817800D01*
X104654100Y-80075900D02*
X107540000Y-80075900D01*
X99730000Y-85000000D02*
X104654100Y-80075900D01*
X107540000Y-79000000D02*
X107540000Y-80075900D01*
X123700000Y-68000000D02*
X123700000Y-69475900D01*
X107540000Y-79000000D02*
X108314900Y-79000000D01*
X121810000Y-78000000D02*
X120786200Y-78000000D01*
X108314900Y-79000000D02*
X113117300Y-79000000D01*
X113117300Y-75233300D02*
X113117300Y-79000000D01*
X118874700Y-69475900D02*
X113117300Y-75233300D01*
X123700000Y-69475900D02*
X118874700Y-69475900D01*
X119762400Y-79023800D02*
X120786200Y-78000000D01*
X113141100Y-79023800D02*
X119762400Y-79023800D01*
X113117300Y-79000000D02*
X113141100Y-79023800D01*
X111213900Y-86023900D02*
X110190000Y-85000000D01*
X120706100Y-86023900D02*
X111213900Y-86023900D01*
X121730000Y-85000000D02*
X120706100Y-86023900D01*
X64270000Y-118000000D02*
X72270000Y-110000000D01*
X64000000Y-118000000D02*
X64270000Y-118000000D01*
X75000000Y-122000000D02*
X73000000Y-120000000D01*
X82911600Y-122000000D02*
X75000000Y-122000000D01*
X82955800Y-121956000D02*
X82911600Y-122000000D01*
X82955800Y-119794000D02*
X82955800Y-121956000D01*
X73000000Y-120000000D02*
X73000000Y-127000000D01*
X71000000Y-118000000D02*
X66540000Y-118000000D01*
X73000000Y-120000000D02*
X71000000Y-118000000D01*
X114190000Y-75190000D02*
X114190000Y-78000000D01*
X114000000Y-75000000D02*
X114190000Y-75190000D01*
X127000000Y-75000000D02*
X114000000Y-75000000D01*
X130460000Y-78460000D02*
X127000000Y-75000000D01*
X130460000Y-88000000D02*
X130460000Y-78460000D01*
X91270000Y-99000000D02*
X97000000Y-99000000D01*
X54730000Y-97000000D02*
X54730000Y-111000000D01*
X57460000Y-94270000D02*
X54730000Y-97000000D01*
X57460000Y-83000000D02*
X57460000Y-94270000D01*
M02*
