<?xml version="1.0" standalone="no"?>
 <!DOCTYPE svg PUBLIC "-//W3C//DTD SVG 1.1//EN" 
 "http://www.w3.org/Graphics/SVG/1.1/DTD/svg11.dtd"> 
<svg xmlns="http://www.w3.org/2000/svg" version="1.1" 
    width="29.7002cm" height="21.0007cm" viewBox="0 0 116930 82680 ">
<title>SVG Picture created as solarurja-B_Cu.svg date 2015/11/15 11:36:51 </title>
  <desc>Picture generated by PCBNEW </desc>
<g style="fill:#000000; fill-opacity:1;stroke:#000000; stroke-opacity:1;
stroke-linecap:round; stroke-linejoin:round; "
 transform="translate(0 0) scale(1 1)">
</g>
<g style="fill:#000000; fill-opacity:0.0; 
stroke:#000000; stroke-width:-0.000393701; stroke-opacity:1; 
stroke-linecap:round; stroke-linejoin:round;">
</g>
<g style="fill:#000000; fill-opacity:0.0; 
stroke:#000000; stroke-width:0; stroke-opacity:1; 
stroke-linecap:round; stroke-linejoin:round;">
</g>
<g style="fill:#000000; fill-opacity:1.0; 
stroke:#000000; stroke-width:0; stroke-opacity:1; 
stroke-linecap:round; stroke-linejoin:round;">
<polyline style="fill-rule:evenodd;"
points="52355,44494
52355,43694
53155,43694
53155,44494
52355,44494
" /> 
</g>
<g style="fill:#000000; fill-opacity:1.0; 
stroke:#000000; stroke-width:800; stroke-opacity:1; 
stroke-linecap:round; stroke-linejoin:round;">
</g>
<g style="fill:#000000; fill-opacity:0.0; 
stroke:#000000; stroke-width:800; stroke-opacity:1; 
stroke-linecap:round; stroke-linejoin:round;">
<path d="M52755 45094
L52755 45094
" />
</g>
<g style="fill:#000000; fill-opacity:0.0; 
stroke:#000000; stroke-width:0; stroke-opacity:1; 
stroke-linecap:round; stroke-linejoin:round;">
</g>
<g style="fill:#000000; fill-opacity:1.0; 
stroke:#000000; stroke-width:0; stroke-opacity:1; 
stroke-linecap:round; stroke-linejoin:round;">
<polyline style="fill-rule:evenodd;"
points="40295,44744
40295,44232
40807,44232
40807,44744
40295,44744
" /> 
<circle cx="41535.4" cy="44488.2" r="255.906" /> 
</g>
<g style="fill:#000000; fill-opacity:1.0; 
stroke:#000000; stroke-width:39.3701; stroke-opacity:1; 
stroke-linecap:round; stroke-linejoin:round;">
</g>
<g style="fill:#000000; fill-opacity:1.0; 
stroke:#000000; stroke-width:0; stroke-opacity:1; 
stroke-linecap:round; stroke-linejoin:round;">
<polyline style="fill-rule:evenodd;"
points="40295,48681
40295,48169
40807,48169
40807,48681
40295,48681
" /> 
<circle cx="41535.4" cy="48425.2" r="255.906" /> 
</g>
<g style="fill:#000000; fill-opacity:1.0; 
stroke:#000000; stroke-width:39.3701; stroke-opacity:1; 
stroke-linecap:round; stroke-linejoin:round;">
</g>
<g style="fill:#000000; fill-opacity:1.0; 
stroke:#000000; stroke-width:0; stroke-opacity:1; 
stroke-linecap:round; stroke-linejoin:round;">
<polyline style="fill-rule:evenodd;"
points="42657,23877
42657,23366
43169,23366
43169,23877
42657,23877
" /> 
<circle cx="43897.6" cy="23622" r="255.906" /> 
</g>
<g style="fill:#000000; fill-opacity:1.0; 
stroke:#000000; stroke-width:39.3701; stroke-opacity:1; 
stroke-linecap:round; stroke-linejoin:round;">
</g>
<g style="fill:#000000; fill-opacity:1.0; 
stroke:#000000; stroke-width:0; stroke-opacity:1; 
stroke-linecap:round; stroke-linejoin:round;">
<polyline style="fill-rule:evenodd;"
points="31240,32145
31240,31633
31751,31633
31751,32145
31240,32145
" /> 
<circle cx="32480.3" cy="31889.8" r="255.906" /> 
</g>
<g style="fill:#000000; fill-opacity:1.0; 
stroke:#000000; stroke-width:39.3701; stroke-opacity:1; 
stroke-linecap:round; stroke-linejoin:round;">
</g>
<g style="fill:#000000; fill-opacity:1.0; 
stroke:#000000; stroke-width:0; stroke-opacity:1; 
stroke-linecap:round; stroke-linejoin:round;">
<polyline style="fill-rule:evenodd;"
points="35964,34114
35964,33602
36476,33602
36476,34114
35964,34114
" /> 
<circle cx="37204.7" cy="33858.3" r="255.906" /> 
</g>
<g style="fill:#000000; fill-opacity:1.0; 
stroke:#000000; stroke-width:39.3701; stroke-opacity:1; 
stroke-linecap:round; stroke-linejoin:round;">
</g>
<g style="fill:#000000; fill-opacity:1.0; 
stroke:#000000; stroke-width:0; stroke-opacity:1; 
stroke-linecap:round; stroke-linejoin:round;">
<polyline style="fill-rule:evenodd;"
points="35177,47106
35177,46594
35688,46594
35688,47106
35177,47106
" /> 
<circle cx="36417.3" cy="46850.4" r="255.906" /> 
</g>
<g style="fill:#000000; fill-opacity:1.0; 
stroke:#000000; stroke-width:39.3701; stroke-opacity:1; 
stroke-linecap:round; stroke-linejoin:round;">
</g>
<g style="fill:#000000; fill-opacity:1.0; 
stroke:#000000; stroke-width:0; stroke-opacity:1; 
stroke-linecap:round; stroke-linejoin:round;">
<polyline style="fill-rule:evenodd;"
points="26909,28996
26909,28484
27421,28484
27421,28996
26909,28996
" /> 
<circle cx="28149.6" cy="28740.2" r="255.906" /> 
</g>
<g style="fill:#000000; fill-opacity:1.0; 
stroke:#000000; stroke-width:39.3701; stroke-opacity:1; 
stroke-linecap:round; stroke-linejoin:round;">
</g>
<g style="fill:#000000; fill-opacity:1.0; 
stroke:#000000; stroke-width:0; stroke-opacity:1; 
stroke-linecap:round; stroke-linejoin:round;">
<polyline style="fill-rule:evenodd;"
points="24547,41200
24547,40688
25059,40688
25059,41200
24547,41200
" /> 
<circle cx="25787.4" cy="40944.9" r="255.906" /> 
</g>
<g style="fill:#000000; fill-opacity:1.0; 
stroke:#000000; stroke-width:39.3701; stroke-opacity:1; 
stroke-linecap:round; stroke-linejoin:round;">
</g>
<g style="fill:#000000; fill-opacity:1.0; 
stroke:#000000; stroke-width:0; stroke-opacity:1; 
stroke-linecap:round; stroke-linejoin:round;">
<polyline style="fill-rule:evenodd;"
points="47381,37263
47381,36751
47893,36751
47893,37263
47381,37263
" /> 
<circle cx="48622" cy="37007.9" r="255.906" /> 
</g>
<g style="fill:#000000; fill-opacity:1.0; 
stroke:#000000; stroke-width:39.3701; stroke-opacity:1; 
stroke-linecap:round; stroke-linejoin:round;">
</g>
<g style="fill:#000000; fill-opacity:1.0; 
stroke:#000000; stroke-width:0; stroke-opacity:1; 
stroke-linecap:round; stroke-linejoin:round;">
<polyline style="fill-rule:evenodd;"
points="45713,40432
45713,39882
46263,39882
46263,40432
45713,40432
" /> 
<circle cx="42988.2" cy="40157.5" r="275" /> 
</g>
<g style="fill:#000000; fill-opacity:1.0; 
stroke:#000000; stroke-width:39.3701; stroke-opacity:1; 
stroke-linecap:round; stroke-linejoin:round;">
</g>
<g style="fill:#000000; fill-opacity:1.0; 
stroke:#000000; stroke-width:0; stroke-opacity:1; 
stroke-linecap:round; stroke-linejoin:round;">
<polyline style="fill-rule:evenodd;"
points="46106,33739
46106,33189
46656,33189
46656,33739
46106,33739
" /> 
<circle cx="43381.9" cy="33464.6" r="275" /> 
</g>
<g style="fill:#000000; fill-opacity:1.0; 
stroke:#000000; stroke-width:39.3701; stroke-opacity:1; 
stroke-linecap:round; stroke-linejoin:round;">
</g>
<g style="fill:#000000; fill-opacity:1.0; 
stroke:#000000; stroke-width:0; stroke-opacity:1; 
stroke-linecap:round; stroke-linejoin:round;">
<polyline style="fill-rule:evenodd;"
points="25570,46850
24822,46850
24822,46062
25570,46062
25570,46850
" /> 
<circle cx="26196.9" cy="46456.7" r="374.016" /> 
</g>
<g style="fill:#000000; fill-opacity:1.0; 
stroke:#000000; stroke-width:39.3701; stroke-opacity:1; 
stroke-linecap:round; stroke-linejoin:round;">
</g>
<g style="fill:#000000; fill-opacity:1.0; 
stroke:#000000; stroke-width:0; stroke-opacity:1; 
stroke-linecap:round; stroke-linejoin:round;">
<polyline style="fill-rule:evenodd;"
points="29114,50393
28366,50393
28366,49606
29114,49606
29114,50393
" /> 
<circle cx="29740.2" cy="50000" r="374.016" /> 
</g>
<g style="fill:#000000; fill-opacity:1.0; 
stroke:#000000; stroke-width:39.3701; stroke-opacity:1; 
stroke-linecap:round; stroke-linejoin:round;">
</g>
<g style="fill:#000000; fill-opacity:1.0; 
stroke:#000000; stroke-width:0; stroke-opacity:1; 
stroke-linecap:round; stroke-linejoin:round;">
<polyline style="fill-rule:evenodd;"
points="47681,30983
47681,30433
48231,30433
48231,30983
47681,30983
" /> 
<circle cx="44956.7" cy="30708.7" r="275" /> 
</g>
<g style="fill:#000000; fill-opacity:1.0; 
stroke:#000000; stroke-width:39.3701; stroke-opacity:1; 
stroke-linecap:round; stroke-linejoin:round;">
</g>
<g style="fill:#000000; fill-opacity:1.0; 
stroke:#000000; stroke-width:1496.06; stroke-opacity:1; 
stroke-linecap:round; stroke-linejoin:round;">
</g>
<g style="fill:#000000; fill-opacity:0.0; 
stroke:#000000; stroke-width:1496.06; stroke-opacity:1; 
stroke-linecap:round; stroke-linejoin:round;">
<path d="M44940 48425
L45610 48425
" />
<path d="M48129 48425
L48720 48425
" />
</g>
<g style="fill:#000000; fill-opacity:1.0; 
stroke:#000000; stroke-width:0; stroke-opacity:1; 
stroke-linecap:round; stroke-linejoin:round;">
<circle cx="33527.8" cy="35825.8" r="334.5" /> 
</g>
<g style="fill:#000000; fill-opacity:1.0; 
stroke:#000000; stroke-width:39.3701; stroke-opacity:1; 
stroke-linecap:round; stroke-linejoin:round;">
</g>
<g style="fill:#000000; fill-opacity:1.0; 
stroke:#000000; stroke-width:0; stroke-opacity:1; 
stroke-linecap:round; stroke-linejoin:round;">
<polyline style="fill-rule:evenodd;"
points="29862,35491
29862,36160
29193,36160
29193,35491
29862,35491
" /> 
<circle cx="23685.2" cy="36613.2" r="334.5" /> 
</g>
<g style="fill:#000000; fill-opacity:1.0; 
stroke:#000000; stroke-width:39.3701; stroke-opacity:1; 
stroke-linecap:round; stroke-linejoin:round;">
</g>
<g style="fill:#000000; fill-opacity:1.0; 
stroke:#000000; stroke-width:0; stroke-opacity:1; 
stroke-linecap:round; stroke-linejoin:round;">
<polyline style="fill-rule:evenodd;"
points="20019,36278
20019,36947
19350,36947
19350,36278
20019,36278
" /> 
<polyline style="fill-rule:evenodd;"
points="51012,34995
51012,34295
51712,34295
51712,34995
51012,34995
" /> 
<circle cx="53362.2" cy="34645.7" r="350" /> 
</g>
<g style="fill:#000000; fill-opacity:1.0; 
stroke:#000000; stroke-width:39.3701; stroke-opacity:1; 
stroke-linecap:round; stroke-linejoin:round;">
</g>
<g style="fill:#000000; fill-opacity:1.0; 
stroke:#000000; stroke-width:354; stroke-opacity:1; 
stroke-linecap:round; stroke-linejoin:round;">
</g>
<g style="fill:#000000; fill-opacity:0.0; 
stroke:#000000; stroke-width:354; stroke-opacity:1; 
stroke-linecap:round; stroke-linejoin:round;">
<path d="M38688 39094
L38688 38857
" />
<path d="M39188 39094
L39188 38857
" />
<path d="M38188 39094
L38188 38857
" />
<path d="M41838 31220
L41838 30983
" />
<path d="M42338 31220
L42338 30983
" />
<path d="M41338 31220
L41338 30983
" />
<path d="M41838 35551
L41838 35314
" />
<path d="M42338 35551
L42338 35314
" />
<path d="M41338 35551
L41338 35314
" />
</g>
<g style="fill:#000000; fill-opacity:1.0; 
stroke:#000000; stroke-width:0; stroke-opacity:1; 
stroke-linecap:round; stroke-linejoin:round;">
<circle cx="21547.2" cy="38189" r="275" /> 
</g>
<g style="fill:#000000; fill-opacity:1.0; 
stroke:#000000; stroke-width:39.3701; stroke-opacity:1; 
stroke-linecap:round; stroke-linejoin:round;">
</g>
<g style="fill:#000000; fill-opacity:1.0; 
stroke:#000000; stroke-width:0; stroke-opacity:1; 
stroke-linecap:round; stroke-linejoin:round;">
<circle cx="22547.2" cy="38189" r="275" /> 
</g>
<g style="fill:#000000; fill-opacity:1.0; 
stroke:#000000; stroke-width:39.3701; stroke-opacity:1; 
stroke-linecap:round; stroke-linejoin:round;">
</g>
<g style="fill:#000000; fill-opacity:1.0; 
stroke:#000000; stroke-width:0; stroke-opacity:1; 
stroke-linecap:round; stroke-linejoin:round;">
<circle cx="47925.2" cy="33464.6" r="275" /> 
</g>
<g style="fill:#000000; fill-opacity:1.0; 
stroke:#000000; stroke-width:39.3701; stroke-opacity:1; 
stroke-linecap:round; stroke-linejoin:round;">
</g>
<g style="fill:#000000; fill-opacity:1.0; 
stroke:#000000; stroke-width:0; stroke-opacity:1; 
stroke-linecap:round; stroke-linejoin:round;">
<circle cx="48925.2" cy="33464.6" r="275" /> 
</g>
<g style="fill:#000000; fill-opacity:1.0; 
stroke:#000000; stroke-width:39.3701; stroke-opacity:1; 
stroke-linecap:round; stroke-linejoin:round;">
</g>
<g style="fill:#000000; fill-opacity:1.0; 
stroke:#000000; stroke-width:0; stroke-opacity:1; 
stroke-linecap:round; stroke-linejoin:round;">
<circle cx="39263.8" cy="33464.6" r="275" /> 
</g>
<g style="fill:#000000; fill-opacity:1.0; 
stroke:#000000; stroke-width:39.3701; stroke-opacity:1; 
stroke-linecap:round; stroke-linejoin:round;">
</g>
<g style="fill:#000000; fill-opacity:1.0; 
stroke:#000000; stroke-width:0; stroke-opacity:1; 
stroke-linecap:round; stroke-linejoin:round;">
<circle cx="40263.8" cy="33464.6" r="275" /> 
</g>
<g style="fill:#000000; fill-opacity:1.0; 
stroke:#000000; stroke-width:39.3701; stroke-opacity:1; 
stroke-linecap:round; stroke-linejoin:round;">
</g>
<g style="fill:#000000; fill-opacity:1.0; 
stroke:#000000; stroke-width:0; stroke-opacity:1; 
stroke-linecap:round; stroke-linejoin:round;">
<circle cx="34933.1" cy="38976.4" r="275" /> 
</g>
<g style="fill:#000000; fill-opacity:1.0; 
stroke:#000000; stroke-width:39.3701; stroke-opacity:1; 
stroke-linecap:round; stroke-linejoin:round;">
</g>
<g style="fill:#000000; fill-opacity:1.0; 
stroke:#000000; stroke-width:0; stroke-opacity:1; 
stroke-linecap:round; stroke-linejoin:round;">
<circle cx="35933.1" cy="38976.4" r="275" /> 
</g>
<g style="fill:#000000; fill-opacity:1.0; 
stroke:#000000; stroke-width:39.3701; stroke-opacity:1; 
stroke-linecap:round; stroke-linejoin:round;">
</g>
<g style="fill:#000000; fill-opacity:1.0; 
stroke:#000000; stroke-width:0; stroke-opacity:1; 
stroke-linecap:round; stroke-linejoin:round;">
<circle cx="27452.8" cy="43307.1" r="275" /> 
</g>
<g style="fill:#000000; fill-opacity:1.0; 
stroke:#000000; stroke-width:39.3701; stroke-opacity:1; 
stroke-linecap:round; stroke-linejoin:round;">
</g>
<g style="fill:#000000; fill-opacity:1.0; 
stroke:#000000; stroke-width:0; stroke-opacity:1; 
stroke-linecap:round; stroke-linejoin:round;">
<circle cx="28452.8" cy="43307.1" r="275" /> 
</g>
<g style="fill:#000000; fill-opacity:1.0; 
stroke:#000000; stroke-width:39.3701; stroke-opacity:1; 
stroke-linecap:round; stroke-linejoin:round;">
</g>
<g style="fill:#000000; fill-opacity:1.0; 
stroke:#000000; stroke-width:0; stroke-opacity:1; 
stroke-linecap:round; stroke-linejoin:round;">
<circle cx="35326.8" cy="44094.5" r="275" /> 
</g>
<g style="fill:#000000; fill-opacity:1.0; 
stroke:#000000; stroke-width:39.3701; stroke-opacity:1; 
stroke-linecap:round; stroke-linejoin:round;">
</g>
<g style="fill:#000000; fill-opacity:1.0; 
stroke:#000000; stroke-width:0; stroke-opacity:1; 
stroke-linecap:round; stroke-linejoin:round;">
<circle cx="36326.8" cy="44094.5" r="275" /> 
</g>
<g style="fill:#000000; fill-opacity:1.0; 
stroke:#000000; stroke-width:39.3701; stroke-opacity:1; 
stroke-linecap:round; stroke-linejoin:round;">
</g>
<g style="fill:#000000; fill-opacity:1.0; 
stroke:#000000; stroke-width:0; stroke-opacity:1; 
stroke-linecap:round; stroke-linejoin:round;">
<circle cx="28240.2" cy="32677.2" r="275" /> 
</g>
<g style="fill:#000000; fill-opacity:1.0; 
stroke:#000000; stroke-width:39.3701; stroke-opacity:1; 
stroke-linecap:round; stroke-linejoin:round;">
</g>
<g style="fill:#000000; fill-opacity:1.0; 
stroke:#000000; stroke-width:0; stroke-opacity:1; 
stroke-linecap:round; stroke-linejoin:round;">
<circle cx="29240.2" cy="32677.2" r="275" /> 
</g>
<g style="fill:#000000; fill-opacity:1.0; 
stroke:#000000; stroke-width:39.3701; stroke-opacity:1; 
stroke-linecap:round; stroke-linejoin:round;">
</g>
<g style="fill:#000000; fill-opacity:1.0; 
stroke:#000000; stroke-width:0; stroke-opacity:1; 
stroke-linecap:round; stroke-linejoin:round;">
<circle cx="28240.2" cy="38189" r="275" /> 
</g>
<g style="fill:#000000; fill-opacity:1.0; 
stroke:#000000; stroke-width:39.3701; stroke-opacity:1; 
stroke-linecap:round; stroke-linejoin:round;">
</g>
<g style="fill:#000000; fill-opacity:1.0; 
stroke:#000000; stroke-width:0; stroke-opacity:1; 
stroke-linecap:round; stroke-linejoin:round;">
<circle cx="29240.2" cy="38189" r="275" /> 
</g>
<g style="fill:#000000; fill-opacity:1.0; 
stroke:#000000; stroke-width:39.3701; stroke-opacity:1; 
stroke-linecap:round; stroke-linejoin:round;">
</g>
<g style="fill:#000000; fill-opacity:1.0; 
stroke:#000000; stroke-width:0; stroke-opacity:1; 
stroke-linecap:round; stroke-linejoin:round;">
<circle cx="29421.3" cy="40551.2" r="275" /> 
</g>
<g style="fill:#000000; fill-opacity:1.0; 
stroke:#000000; stroke-width:39.3701; stroke-opacity:1; 
stroke-linecap:round; stroke-linejoin:round;">
</g>
<g style="fill:#000000; fill-opacity:1.0; 
stroke:#000000; stroke-width:0; stroke-opacity:1; 
stroke-linecap:round; stroke-linejoin:round;">
<circle cx="30421.3" cy="40551.2" r="275" /> 
</g>
<g style="fill:#000000; fill-opacity:1.0; 
stroke:#000000; stroke-width:39.3701; stroke-opacity:1; 
stroke-linecap:round; stroke-linejoin:round;">
</g>
<g style="fill:#000000; fill-opacity:1.0; 
stroke:#000000; stroke-width:0; stroke-opacity:1; 
stroke-linecap:round; stroke-linejoin:round;">
<circle cx="25878" cy="35826.8" r="275" /> 
</g>
<g style="fill:#000000; fill-opacity:1.0; 
stroke:#000000; stroke-width:39.3701; stroke-opacity:1; 
stroke-linecap:round; stroke-linejoin:round;">
</g>
<g style="fill:#000000; fill-opacity:1.0; 
stroke:#000000; stroke-width:0; stroke-opacity:1; 
stroke-linecap:round; stroke-linejoin:round;">
<circle cx="26878" cy="35826.8" r="275" /> 
</g>
<g style="fill:#000000; fill-opacity:1.0; 
stroke:#000000; stroke-width:39.3701; stroke-opacity:1; 
stroke-linecap:round; stroke-linejoin:round;">
</g>
<g style="fill:#000000; fill-opacity:1.0; 
stroke:#000000; stroke-width:0; stroke-opacity:1; 
stroke-linecap:round; stroke-linejoin:round;">
<circle cx="21547.2" cy="43700.8" r="275" /> 
</g>
<g style="fill:#000000; fill-opacity:1.0; 
stroke:#000000; stroke-width:39.3701; stroke-opacity:1; 
stroke-linecap:round; stroke-linejoin:round;">
</g>
<g style="fill:#000000; fill-opacity:1.0; 
stroke:#000000; stroke-width:0; stroke-opacity:1; 
stroke-linecap:round; stroke-linejoin:round;">
<circle cx="22547.2" cy="43700.8" r="275" /> 
</g>
<g style="fill:#000000; fill-opacity:1.0; 
stroke:#000000; stroke-width:39.3701; stroke-opacity:1; 
stroke-linecap:round; stroke-linejoin:round;">
</g>
<g style="fill:#000000; fill-opacity:1.0; 
stroke:#000000; stroke-width:0; stroke-opacity:1; 
stroke-linecap:round; stroke-linejoin:round;">
<circle cx="42807.1" cy="27165.4" r="275" /> 
</g>
<g style="fill:#000000; fill-opacity:1.0; 
stroke:#000000; stroke-width:39.3701; stroke-opacity:1; 
stroke-linecap:round; stroke-linejoin:round;">
</g>
<g style="fill:#000000; fill-opacity:1.0; 
stroke:#000000; stroke-width:0; stroke-opacity:1; 
stroke-linecap:round; stroke-linejoin:round;">
<circle cx="43807.1" cy="27165.4" r="275" /> 
</g>
<g style="fill:#000000; fill-opacity:1.0; 
stroke:#000000; stroke-width:39.3701; stroke-opacity:1; 
stroke-linecap:round; stroke-linejoin:round;">
</g>
<g style="fill:#000000; fill-opacity:1.0; 
stroke:#000000; stroke-width:600; stroke-opacity:1; 
stroke-linecap:round; stroke-linejoin:round;">
</g>
<g style="fill:#000000; fill-opacity:0.0; 
stroke:#000000; stroke-width:600; stroke-opacity:1; 
stroke-linecap:round; stroke-linejoin:round;">
<path d="M36614 28865
L36614 29465
" />
<path d="M35614 28865
L35614 29465
" />
<path d="M37614 28865
L37614 29465
" />
</g>
<g style="fill:#000000; fill-opacity:0.0; 
stroke:#000000; stroke-width:591; stroke-opacity:1; 
stroke-linecap:round; stroke-linejoin:round;">
<path d="M23622 32873
L23622 32480
" />
<path d="M22622 32873
L22622 32480
" />
<path d="M24622 32873
L24622 32480
" />
</g>
<g style="fill:#000000; fill-opacity:0.0; 
stroke:#000000; stroke-width:98.4252; stroke-opacity:1; 
stroke-linecap:round; stroke-linejoin:round;">
<path d="M48773 47549
L52227 44094
" />
<path d="M48425 47549
L48773 47549
" />
<path d="M48425 48425
L48425 47549
" />
<path d="M52755 44094
L52227 44094
" />
<path d="M24622 32677
L25045 32677
" />
<path d="M28149 29917
L28149 28740
" />
<path d="M25588 32478
L25588 32677
" />
<path d="M28149 29917
L25588 32478
" />
<path d="M25588 32677
L25045 32677
" />
<path d="M30508 29917
L32480 31889
" />
<path d="M28149 29917
L30508 29917
" />
<path d="M36614 31889
L32480 31889
" />
<path d="M36614 33267
L37204 33858
" />
<path d="M36614 31889
L36614 33267
" />
<path d="M36614 31889
L36614 29165
" />
<path d="M43267 24251
L43897 23622
" />
<path d="M41581 24251
L43267 24251
" />
<path d="M37042 28790
L41581 24251
" />
<path d="M37042 29165
L37042 28790
" />
<path d="M36614 29165
L37042 29165
" />
<path d="M39188 35842
L39188 38976
" />
<path d="M37204 33858
L39188 35842
" />
<path d="M39494 42446
L41535 44488
" />
<path d="M39494 38976
L39494 42446
" />
<path d="M39188 38976
L39494 38976
" />
<path d="M52871 34154
L53362 34645
" />
<path d="M48925 34154
L52871 34154
" />
<path d="M48925 33464
L48925 34154
" />
<path d="M48925 36704
L48622 37007
" />
<path d="M48925 34154
L48925 36704
" />
<path d="M26877 33966
L26877 35826
" />
<path d="M25588 32677
L26877 33966
" />
<path d="M26877 39854
L25787 40944
" />
<path d="M26877 35826
L26877 39854
" />
<path d="M19685 40838
L19685 36613
" />
<path d="M22547 43700
L19685 40838
" />
<path d="M26605 43700
L22547 43700
" />
<path d="M30149 47244
L26605 43700
" />
<path d="M40551 47244
L30149 47244
" />
<path d="M40551 48425
L40551 47244
" />
<path d="M40551 47244
L40551 44488
" />
<path d="M41808 35009
L41838 35009
" />
<path d="M40263 33464
L41808 35009
" />
<path d="M41838 35433
L41838 35009
" />
<path d="M35433 46850
L35433 46466
" />
<path d="M35326 46360
L35326 44094
" />
<path d="M35433 46466
L35326 46360
" />
<path d="M29393 36422
L29393 37768
" />
<path d="M29527 36288
L29393 36422
" />
<path d="M35326 43701
L29393 37768
" />
<path d="M35326 44094
L35326 43701
" />
<path d="M28660 37768
L28240 38188
" />
<path d="M29393 37768
L28660 37768
" />
<path d="M29527 35825
L29527 36288
" />
<path d="M36326 40370
L34933 38976
" />
<path d="M36326 44094
L36326 40370
" />
<path d="M26781 28897
L26781 28740
" />
<path d="M23622 32057
L26781 28897
" />
<path d="M23622 32677
L23622 32057
" />
<path d="M27165 28740
L26781 28740
" />
<path d="M23622 33570
L23622 32677
" />
<path d="M25877 35826
L23622 33570
" />
<path d="M25571 41328
L25187 40944
" />
<path d="M29643 41328
L25571 41328
" />
<path d="M30421 40551
L29643 41328
" />
<path d="M24803 40944
L25187 40944
" />
<path d="M41033 35234
L41033 35433
" />
<path d="M39263 33464
L41033 35234
" />
<path d="M41338 35433
L41033 35433
" />
<path d="M48331 35929
L47637 36623
" />
<path d="M48331 31486
L48331 35929
" />
<path d="M47956 31111
L48331 31486
" />
<path d="M47956 30708
L47956 31111
" />
<path d="M47637 37007
L47637 36623
" />
<path d="M42643 39812
L42988 40157
" />
<path d="M42643 35433
L42643 39812
" />
<path d="M42338 35433
L42643 35433
" />
<path d="M44040 31525
L45978 33464
" />
<path d="M41338 31525
L44040 31525
" />
<path d="M41338 31102
L41338 31525
" />
<path d="M46381 33464
L45978 33464
" />
<path d="M27800 48060
L29740 50000
" />
<path d="M26800 48060
L27800 48060
" />
<path d="M25196 46456
L26800 48060
" />
<path d="M23685 37050
L23685 36613
" />
<path d="M22547 38188
L23685 37050
" />
<path d="M41838 28133
L41838 31102
" />
<path d="M42807 27165
L41838 28133
" />
<path d="M29421 38370
L29240 38188
" />
<path d="M29421 40551
L29421 38370
" />
</g>
<g style="fill:#000000; fill-opacity:1.0; 
stroke:#000000; stroke-width:100; stroke-opacity:1; 
stroke-linecap:round; stroke-linejoin:round;">
<polyline style="fill-rule:evenodd;"
points="45093,18437
51614,22794
55971,29315
57501,37007
55971,44699
51614,51220
45093,55578
37401,57108
29709,55578
23188,51220
19742,46062
24567,46062
24567,46850
24585,46943
24640,47028
24723,47085
24822,47105
25422,47105
26589,48272
26686,48337
26800,48359
27676,48359
28668,49351
28366,49351
28273,49368
28188,49423
28131,49507
28111,49606
28111,50393
28128,50486
28183,50571
28266,50628
28366,50648
29114,50648
29206,50631
29291,50576
29348,50492
29349,50491
29386,50528
29615,50623
29863,50624
30093,50529
30268,50353
30364,50124
30364,49876
30269,49646
30094,49471
29864,49376
29616,49375
29561,49398
28012,47849
27915,47784
27800,47761
26924,47761
26244,47080
26320,47080
26549,46986
26725,46810
26820,46581
26820,46333
26726,46103
26550,45927
26321,45832
26073,45832
25843,45927
25805,45965
25753,45885
25670,45828
25570,45808
24822,45808
24730,45825
24645,45880
24588,45963
24567,46062
19742,46062
18831,44699
17301,37007
17446,36278
19095,36278
19095,36947
19113,37040
19168,37125
19251,37182
19350,37202
19386,37202
19386,40838
19408,40953
19473,41050
21599,43175
21443,43175
21250,43255
21102,43403
21022,43595
21022,43804
21101,43997
21249,44145
21442,44225
21651,44225
21844,44146
21992,43998
22047,43865
22101,43997
22249,44145
22442,44225
22651,44225
22844,44146
22990,44000
26481,44000
29937,47456
30034,47520
30149,47543
40251,47543
40251,47922
40202,47931
40117,47986
40060,48070
40040,48169
40040,48681
40057,48773
40112,48858
40196,48915
40295,48936
40807,48936
40899,48918
40984,48863
41041,48780
41042,48779
41252,48779
41274,48869
41464,48936
41665,48924
41796,48869
41818,48779
41535,48495
41252,48779
41042,48779
41061,48681
41061,48617
41090,48686
41181,48708
41464,48425
41606,48425
41889,48708
41980,48686
42046,48496
42042,48425
43916,48425
43992,48807
44209,49130
44532,49347
44914,49423
45636,49423
46018,49347
46342,49130
46558,48807
46634,48425
47106,48425
47182,48807
47398,49130
47722,49347
48104,49423
48745,49423
49127,49347
49451,49130
49667,48807
49743,48425
49667,48043
49451,47719
49196,47549
51500,45245
52123,45245
52202,45434
52374,45620
52605,45726
52705,45680
52705,45144
52805,45144
52805,45680
52906,45726
53137,45620
53309,45434
53388,45245
53341,45144
52805,45144
52705,45144
52170,45144
52123,45245
51500,45245
52134,44611
52173,44672
52237,44716
52202,44754
52123,44943
52170,45044
52705,45044
52705,45036
52805,45036
52805,45044
53341,45044
53388,44943
53309,44754
53273,44715
53333,44677
53390,44593
53410,44494
53410,43694
53393,43601
53338,43516
53255,43459
53155,43439
52355,43439
52263,43457
52178,43511
52121,43595
52101,43694
52101,43826
52016,43882
48649,47249
48425,47249
48310,47272
48213,47337
48153,47427
48104,47427
47722,47503
47398,47719
47182,48043
47106,48425
46634,48425
46558,48043
46342,47719
46018,47503
45636,47427
44914,47427
44532,47503
44209,47719
43992,48043
43916,48425
42042,48425
42034,48295
41980,48163
41889,48141
41606,48425
41464,48425
41181,48141
41090,48163
41061,48246
41061,48169
41044,48076
41041,48071
41252,48071
41535,48354
41818,48071
41796,47980
41606,47914
41405,47925
41274,47980
41252,48071
41041,48071
40989,47991
40906,47934
40850,47923
40850,44990
40899,44981
40984,44926
41041,44843
41042,44842
41252,44842
41274,44932
41464,44999
41665,44987
41796,44932
41818,44842
41535,44558
41252,44842
41042,44842
41061,44744
41061,44680
41090,44749
41181,44771
41464,44488
41606,44488
41889,44771
41980,44749
42046,44559
42034,44358
41980,44226
41889,44204
41606,44488
41464,44488
41181,44204
41090,44226
41061,44309
41061,44232
41044,44139
41041,44134
41252,44134
41535,44417
41818,44134
41796,44043
41606,43977
41405,43988
41274,44043
41252,44134
41041,44134
40989,44054
40906,43997
40807,43977
40295,43977
40202,43994
40117,44049
40060,44133
40040,44232
40040,44744
40057,44836
40112,44921
40196,44978
40251,44990
40251,46945
36923,46945
36923,46750
36846,46564
36704,46421
36518,46344
36317,46344
36131,46421
35988,46563
35943,46671
35943,46594
35926,46501
35871,46416
35788,46359
35703,46342
35644,46254
35625,46236
35625,44537
35771,44392
35826,44259
35881,44391
36028,44539
36221,44619
36430,44619
36623,44539
36771,44392
36851,44199
36851,43990
36772,43797
36625,43651
36625,40370
36603,40255
36538,40158
35881,39501
36037,39501
36230,39421
36377,39274
36457,39081
36458,38872
36447,38847
37761,38847
37761,39105
37794,39268
37887,39407
38025,39500
38188,39532
38352,39500
38438,39442
38525,39500
38688,39532
38852,39500
38940,39441
39073,39505
39138,39455
39138,39026
39238,39026
39238,39455
39304,39505
39455,39432
39564,39304
39615,39144
39615,39026
39238,39026
39138,39026
39131,39026
39131,38926
39138,38926
39138,38496
39238,38496
39238,38926
39615,38926
39615,38807
39564,38648
39455,38520
39304,38446
39238,38496
39138,38496
39073,38446
38940,38511
38852,38452
38688,38420
38525,38452
38438,38510
38352,38452
38188,38420
38025,38452
37887,38545
37794,38683
37761,38847
36447,38847
36378,38679
36230,38531
36037,38451
35829,38451
35636,38531
35488,38678
35433,38811
35378,38679
35230,38531
35037,38451
34829,38451
34636,38531
34488,38678
34408,38871
34407,39080
34487,39273
34635,39421
34828,39501
35035,39501
36027,40494
36027,43651
35881,43796
35826,43929
35772,43797
35624,43649
35614,43645
35603,43587
35538,43489
29692,37644
29692,36546
29739,36499
29795,36415
29862,36415
29954,36397
30039,36342
30097,36259
30117,36160
30117,35941
32943,35941
33031,36156
33196,36320
33410,36410
33643,36410
33858,36321
34022,36157
34112,35942
34112,35710
34023,35495
33859,35330
33644,35241
33412,35241
33197,35329
33032,35494
32943,35708
32943,35941
30117,35941
30117,35491
30099,35398
30044,35313
29961,35256
29862,35236
29193,35236
29100,35253
29015,35308
28958,35392
28938,35491
28938,36160
28955,36252
29010,36338
29094,36395
29099,36396
29094,36422
29094,37469
28660,37469
28546,37492
28449,37556
28341,37664
28136,37663
27943,37743
27795,37891
27715,38084
27715,38292
27794,38485
27942,38633
28135,38713
28344,38714
28537,38634
28684,38486
28740,38353
28794,38485
28942,38633
29122,38708
29122,40108
28976,40253
28896,40446
28896,40655
28975,40848
29123,40995
29204,41029
26293,41029
26298,41016
26286,40815
26232,40683
26141,40661
25858,40944
25863,40950
25792,41021
25787,41015
25781,41021
25711,40950
25716,40944
25433,40661
25342,40683
25339,40693
25311,40674
25296,40596
25293,40590
25504,40590
25787,40874
26070,40590
26048,40500
25858,40434
25657,40445
25526,40500
25504,40590
25293,40590
25241,40511
25158,40454
25059,40434
24547,40434
24454,40451
24369,40506
24312,40589
24292,40688
24292,41200
24309,41293
24364,41378
24448,41435
24547,41455
25059,41455
25151,41438
25215,41396
25359,41540
25456,41605
25571,41628
29643,41628
29758,41605
29855,41540
30319,41076
30525,41076
30718,40996
30866,40848
30946,40656
30946,40447
30866,40254
30719,40106
30526,40026
30317,40026
30124,40105
29976,40253
29921,40386
29866,40254
29720,40107
29720,38518
34940,43738
34881,43796
34801,43989
34801,44198
34881,44391
35027,44537
35027,46360
35033,46389
34999,46411
34942,46495
34922,46594
34922,46945
30273,46945
26817,43489
26719,43424
26653,43411
26927,43411
27007,43604
27154,43751
27347,43831
27556,43832
27749,43752
27897,43604
27952,43471
28007,43604
28154,43751
28347,43831
28556,43832
28749,43752
28897,43604
28977,43411
28977,43203
28898,43010
28750,42862
28557,42782
28348,42781
28155,42861
28007,43009
27952,43142
27898,43010
27750,42862
27557,42782
27348,42781
27155,42861
27007,43009
26927,43202
26927,43411
26653,43411
26605,43401
22990,43401
22845,43255
22652,43175
22445,43175
19984,40714
19984,38292
21022,38292
21101,38485
21249,38633
21442,38713
21651,38714
21844,38634
21992,38486
22047,38353
22101,38485
22249,38633
22442,38713
22651,38714
22844,38634
22992,38486
23072,38293
23072,38087
23896,37262
23961,37165
23969,37128
24015,37108
24180,36944
24269,36729
24269,36497
24181,36282
24016,36117
23802,36028
23569,36028
23354,36117
23190,36281
23100,36496
23100,36728
23189,36943
23279,37033
22649,37664
22443,37663
22250,37743
22102,37891
22047,38024
21992,37891
21845,37744
21652,37664
21443,37663
21250,37743
21102,37891
21022,38084
21022,38292
19984,38292
19984,37202
20019,37202
20112,37185
20197,37130
20254,37046
20274,36947
20274,36278
20257,36186
20202,36100
20118,36043
20019,36023
19350,36023
19258,36041
19173,36095
19115,36179
19095,36278
17446,36278
18204,32466
22076,32466
22076,32888
22118,33096
22236,33273
22413,33392
22622,33433
22830,33392
23007,33273
23122,33102
23236,33273
23322,33331
23322,33570
23345,33685
23410,33782
25353,35725
25352,35930
25432,36123
25580,36271
25773,36351
25981,36351
26174,36272
26252,36194
26580,36194
26605,36287
26802,36356
27010,36345
27150,36287
27175,36194
26877,35897
26580,36194
26252,36194
26322,36124
26375,35997
26417,36099
26510,36123
26807,35826
26948,35826
27245,36123
27338,36099
27407,35902
27396,35694
27338,35553
27245,35529
26948,35826
26807,35826
26510,35529
26417,35553
26378,35663
26323,35529
26252,35458
26580,35458
26877,35756
27175,35458
27150,35366
26953,35296
26745,35308
26605,35366
26580,35458
26252,35458
26175,35381
25982,35301
25776,35301
24076,33602
35709,33602
35709,34114
35727,34206
35781,34291
35865,34348
35964,34369
36476,34369
36569,34351
36654,34296
36711,34213
36711,34212
36921,34212
36943,34302
37133,34369
37334,34357
37466,34302
37487,34212
37204,33928
36921,34212
36711,34212
36731,34114
36731,34050
36759,34119
36850,34141
37134,33858
37275,33858
37558,34141
37649,34119
37715,33929
37703,33728
37649,33596
37558,33575
37275,33858
37134,33858
36850,33575
36759,33596
36731,33679
36731,33602
36713,33509
36710,33504
36921,33504
37204,33787
37423,33568
38738,33568
38818,33761
38966,33909
39158,33989
39365,33989
40734,35358
40734,35433
40757,35547
40821,35644
40919,35709
40941,35714
40944,35725
41036,35864
41175,35956
41338,35989
41501,35956
41588,35898
41675,35956
41838,35989
42001,35956
42088,35898
42175,35956
42338,35989
42344,35988
42344,39812
42367,39927
42432,40024
42463,40055
42463,40261
42542,40454
42690,40602
42883,40682
43092,40682
43285,40602
43433,40455
43513,40262
43513,40053
43442,39882
45458,39882
45458,40432
45475,40525
45530,40610
45614,40667
45713,40687
46263,40687
46355,40669
46440,40615
46498,40531
46518,40432
46518,39882
46500,39789
46445,39704
46362,39647
46263,39627
45713,39627
45620,39645
45535,39699
45478,39783
45458,39882
43442,39882
43433,39860
43285,39712
43093,39632
42942,39632
42942,36751
47126,36751
47126,37263
47144,37356
47199,37441
47282,37498
47381,37518
47893,37518
47986,37501
48071,37446
48128,37362
48128,37361
48338,37361
48360,37452
48550,37518
48751,37507
48883,37452
48905,37361
48622,37078
48338,37361
48128,37361
48148,37263
48148,37199
48177,37269
48268,37291
48551,37007
48692,37007
48975,37291
49066,37269
49132,37079
49121,36878
49066,36746
48975,36724
48692,37007
48551,37007
48268,36724
48177,36746
48148,36829
48148,36751
48131,36659
48127,36653
48338,36653
48622,36937
48905,36653
48883,36563
48693,36496
48492,36508
48360,36563
48338,36653
48127,36653
48089,36595
48543,36141
48608,36044
48630,35929
48630,34295
50757,34295
50757,34995
50774,35088
50829,35173
50913,35230
51012,35250
51712,35250
51804,35233
51889,35178
51947,35094
51952,35067
53010,35067
53044,35168
53268,35250
53506,35240
53680,35168
53713,35067
53362,34716
53010,35067
51952,35067
51967,34995
51967,34551
52757,34551
52767,34790
52839,34963
52940,34997
53291,34645
53432,34645
53784,34997
53884,34963
53966,34739
53956,34500
53884,34327
53784,34294
53432,34645
53291,34645
52940,34294
52839,34327
52757,34551
51967,34551
51967,34295
51953,34223
53010,34223
53362,34574
53713,34223
53680,34123
53455,34041
53217,34051
53044,34123
53010,34223
51953,34223
51949,34203
51894,34117
51811,34060
51712,34040
51012,34040
50919,34058
50834,34112
50777,34196
50757,34295
48630,34295
48630,33843
48652,33925
48849,33994
49057,33983
49198,33925
49222,33832
48925,33535
48919,33540
48848,33470
48854,33464
48995,33464
49292,33761
49385,33737
49455,33540
49443,33331
49385,33191
49292,33167
48995,33464
48854,33464
48848,33458
48919,33388
48925,33393
49222,33096
49198,33004
49000,32934
48792,32946
48652,33004
48630,33085
48630,31486
48608,31372
48543,31275
48419,31151
48466,31082
48486,30983
48486,30433
48469,30341
48414,30255
48330,30198
48231,30178
47681,30178
47589,30196
47503,30250
47446,30334
47426,30433
47426,30983
47444,31076
47498,31161
47582,31218
47681,31238
47688,31238
47745,31323
48032,31610
48032,32940
48030,32939
47821,32939
47628,33019
47480,33166
47400,33359
47400,33568
47479,33761
47627,33909
47820,33989
48029,33989
48032,33988
48032,35806
47426,36412
47367,36499
47289,36514
47204,36569
47147,36652
47126,36751
42942,36751
42942,35433
42920,35318
42855,35221
42758,35156
42735,35152
42733,35140
42640,35001
42501,34909
42338,34876
42175,34909
42124,34943
42115,34894
42050,34797
41960,34737
40790,33568
42856,33568
42936,33761
43084,33909
43277,33989
43485,33989
43678,33909
43826,33762
43906,33569
43906,33360
43827,33167
43679,33019
43486,32939
43277,32939
43084,33019
42937,33166
42856,33359
42856,33568
40790,33568
40788,33566
40788,33360
40709,33167
40561,33019
40368,32939
40159,32939
39966,33019
39818,33166
39763,33299
39709,33167
39561,33019
39368,32939
39159,32939
38966,33019
38818,33166
38738,33359
38738,33568
37423,33568
37487,33504
37466,33413
37275,33347
37075,33359
36943,33413
36921,33504
36710,33504
36659,33424
36575,33367
36476,33347
35964,33347
35871,33364
35786,33419
35729,33503
35709,33602
24076,33602
23921,33446
23921,33331
24007,33273
24126,33096
24126,33093
24137,33128
24271,33294
24459,33396
24487,33402
24572,33354
24572,32727
24672,32727
24672,33354
24756,33402
24784,33396
24972,33294
25106,33128
25167,32923
25167,32781
27715,32781
27794,32974
27942,33121
28135,33202
28344,33202
28537,33122
28684,32974
28740,32841
28794,32974
28942,33121
29135,33202
29344,33202
29537,33122
29684,32974
29765,32782
29765,32573
29685,32380
29537,32232
29345,32152
29136,32152
28943,32231
28795,32379
28740,32512
28685,32380
28537,32232
28345,32152
28136,32152
27943,32231
27795,32379
27715,32572
27715,32781
25167,32781
25167,32727
24672,32727
24572,32727
24564,32727
24564,32627
24572,32627
24572,32000
24672,32000
24672,32627
25167,32627
25167,32430
25106,32225
24972,32059
24784,31957
24756,31951
24672,32000
24572,32000
24487,31951
24459,31957
24271,32059
24137,32225
24126,32261
24126,32257
24013,32088
24468,31633
30985,31633
30985,32145
31002,32238
31057,32323
31140,32380
31240,32400
31751,32400
31844,32383
31929,32328
31986,32244
31987,32243
32197,32243
32219,32334
32409,32400
32610,32389
32741,32334
32763,32243
32480,31960
32197,32243
31987,32243
32006,32145
32006,32081
32035,32151
32126,32172
32409,31889
32551,31889
32834,32172
32925,32151
32991,31960
32979,31760
32925,31628
32834,31606
32551,31889
32409,31889
32126,31606
32035,31628
32006,31710
32006,31633
31989,31541
31985,31535
32197,31535
32480,31819
32763,31535
32741,31445
32551,31378
32350,31390
32219,31445
32197,31535
31985,31535
31934,31456
31851,31399
31751,31378
31240,31378
31147,31396
31062,31451
31005,31534
30985,31633
24468,31633
25129,30973
40911,30973
40911,31231
40944,31394
41036,31533
41041,31536
41062,31640
41127,31737
41224,31802
41338,31825
43916,31825
45767,33676
45851,33732
45851,33739
45869,33832
45924,33917
46007,33974
46106,33994
46656,33994
46749,33977
46834,33922
46891,33838
46911,33739
46911,33189
46894,33096
46839,33011
46756,32954
46656,32934
46106,32934
46014,32952
45938,33000
44251,31314
44154,31249
44040,31226
42765,31226
42765,30973
42733,30812
44431,30812
44511,31005
44658,31153
44851,31233
45060,31233
45253,31153
45401,31006
45481,30813
45481,30604
45402,30411
45254,30263
45061,30183
44852,30183
44659,30263
44511,30410
44431,30603
44431,30812
42733,30812
42733,30809
42640,30671
42501,30578
42338,30546
42175,30578
42137,30603
42137,28257
42705,27690
42911,27690
43104,27610
43251,27463
43307,27330
43361,27462
43509,27610
43702,27690
43911,27690
44104,27610
44251,27463
44331,27270
44332,27061
44252,26868
44104,26720
43911,26640
43703,26640
43510,26720
43362,26867
43307,27000
43252,26868
43104,26720
42911,26640
42703,26640
42510,26720
42362,26867
42282,27060
42281,27267
41627,27922
41562,28019
41539,28133
41539,30603
41501,30578
41338,30546
41175,30578
41036,30671
40944,30809
40911,30973
25129,30973
26861,29241
26909,29250
27421,29250
27513,29233
27598,29178
27656,29095
27656,29094
27866,29094
27888,29184
28078,29251
28279,29239
28410,29184
28432,29094
28149,28810
27866,29094
27656,29094
27676,28996
27676,28932
27704,29001
27795,29023
28078,28740
28220,28740
28503,29023
28594,29001
28647,28848
35064,28848
35064,29482
35106,29692
35225,29870
35403,29990
35614,30032
35824,29990
36003,29870
36118,29698
36125,29722
36260,29889
36449,29992
36479,29998
36564,29950
36564,29215
36556,29215
36556,29115
36564,29115
36564,28380
36664,28380
36664,29115
36672,29115
36672,29215
36664,29215
36664,29950
36749,29998
36778,29992
36967,29889
37103,29722
37110,29698
37225,29870
37403,29990
37614,30032
37824,29990
38003,29870
38122,29692
38164,29482
38164,28848
38122,28638
38003,28459
37824,28340
37614,28298
37403,28340
37225,28459
37110,28632
37103,28608
36967,28441
36778,28338
36749,28332
36664,28380
36564,28380
36479,28332
36449,28338
36260,28441
36125,28608
36118,28632
36003,28459
35824,28340
35614,28298
35403,28340
35225,28459
35106,28638
35064,28848
28647,28848
28660,28811
28648,28610
28594,28478
28503,28456
28220,28740
28078,28740
27795,28456
27704,28478
27676,28561
27676,28484
27658,28391
27655,28386
27866,28386
28149,28669
28432,28386
28410,28295
28220,28229
28019,28240
27888,28295
27866,28386
27655,28386
27603,28306
27520,28249
27421,28229
26909,28229
26816,28246
26731,28301
26674,28385
26657,28470
26569,28528
26504,28625
26482,28740
26482,28773
23410,31845
23345,31942
23330,32017
23236,32080
23122,32251
23007,32080
22830,31962
22622,31920
22413,31962
22236,32080
22118,32257
22076,32466
18204,32466
18831,29315
22806,23366
42402,23366
42402,23877
42420,23970
42474,24055
42558,24112
42657,24132
43169,24132
43261,24115
43347,24060
43404,23977
43404,23975
43614,23975
43636,24066
43826,24132
44027,24121
44158,24066
44180,23975
43897,23692
43614,23975
43404,23975
43424,23877
43424,23814
43452,23883
43543,23905
43826,23622
43968,23622
44251,23905
44342,23883
44408,23693
44396,23492
44342,23360
44251,23338
43968,23622
43826,23622
43543,23338
43452,23360
43424,23443
43424,23366
43406,23273
43403,23268
43614,23268
43897,23551
44180,23268
44158,23177
43968,23111
43767,23122
43636,23177
43614,23268
43403,23268
43352,23188
43268,23131
43169,23111
42657,23111
42564,23128
42479,23183
42422,23266
42402,23366
22806,23366
23188,22794
29709,18437
37401,16907
45093,18437
" /> 
</g> 
</svg>
