<?xml version="1.0" standalone="no"?>
 <!DOCTYPE svg PUBLIC "-//W3C//DTD SVG 1.1//EN" 
 "http://www.w3.org/Graphics/SVG/1.1/DTD/svg11.dtd"> 
<svg xmlns="http://www.w3.org/2000/svg" version="1.1" 
    width="29.7002cm" height="21.0007cm" viewBox="0 0 116930 82680 ">
<title>SVG Picture created as solarurja-F_SilkS.svg date 2015/11/15 04:08:10 </title>
  <desc>Picture generated by PCBNEW </desc>
<g style="fill:#000000; fill-opacity:1;stroke:#000000; stroke-opacity:1;
stroke-linecap:round; stroke-linejoin:round; "
 transform="translate(0 0) scale(1 1)">
</g>
<g style="fill:#000000; fill-opacity:0.0; 
stroke:#000000; stroke-width:-0.000393701; stroke-opacity:1; 
stroke-linecap:round; stroke-linejoin:round;">
</g>
<g style="fill:#000000; fill-opacity:0.0; 
stroke:#000000; stroke-width:39.3701; stroke-opacity:1; 
stroke-linecap:round; stroke-linejoin:round;">
</g>
<g style="fill:#000000; fill-opacity:0.0; 
stroke:#000000; stroke-width:59.0551; stroke-opacity:1; 
stroke-linecap:round; stroke-linejoin:round;">
<rect x="69685.9" y="65357.2" width="42519.7" height="12598.4" rx="0" />
</g>
<g style="fill:#000000; fill-opacity:0.0; 
stroke:#000000; stroke-width:39.3701; stroke-opacity:1; 
stroke-linecap:round; stroke-linejoin:round;">
</g>
<g style="fill:#000000; fill-opacity:0.0; 
stroke:#000000; stroke-width:59.0551; stroke-opacity:1; 
stroke-linecap:round; stroke-linejoin:round;">
<rect x="3937.01" y="3937.01" width="109056" height="74806" rx="0" />
</g>
<g style="fill:#000000; fill-opacity:0.0; 
stroke:#000000; stroke-width:39.3701; stroke-opacity:1; 
stroke-linecap:round; stroke-linejoin:round;">
</g>
<g style="fill:#000000; fill-opacity:0.0; 
stroke:#000000; stroke-width:59.0551; stroke-opacity:1; 
stroke-linecap:round; stroke-linejoin:round;">
<rect x="4724.41" y="4724.41" width="107481" height="73231.2" rx="0" />
</g>
<g style="fill:#000000; fill-opacity:0.0; 
stroke:#000000; stroke-width:39.3701; stroke-opacity:1; 
stroke-linecap:round; stroke-linejoin:round;">
</g>
<g style="fill:#000000; fill-opacity:0.0; 
stroke:#000000; stroke-width:59.0551; stroke-opacity:1; 
stroke-linecap:round; stroke-linejoin:round;">
<path d="M23622 4724
L23622 3937
" />
</g>
<g style="fill:#000000; fill-opacity:0.0; 
stroke:#000000; stroke-width:39.3701; stroke-opacity:1; 
stroke-linecap:round; stroke-linejoin:round;">
</g>
<g style="fill:#000000; fill-opacity:0.0; 
stroke:#000000; stroke-width:59.0551; stroke-opacity:1; 
stroke-linecap:round; stroke-linejoin:round;">
<path d="M43307 4724
L43307 3937
" />
</g>
<g style="fill:#000000; fill-opacity:0.0; 
stroke:#000000; stroke-width:39.3701; stroke-opacity:1; 
stroke-linecap:round; stroke-linejoin:round;">
</g>
<g style="fill:#000000; fill-opacity:0.0; 
stroke:#000000; stroke-width:59.0551; stroke-opacity:1; 
stroke-linecap:round; stroke-linejoin:round;">
<path d="M62992 4724
L62992 3937
" />
</g>
<g style="fill:#000000; fill-opacity:0.0; 
stroke:#000000; stroke-width:39.3701; stroke-opacity:1; 
stroke-linecap:round; stroke-linejoin:round;">
</g>
<g style="fill:#000000; fill-opacity:0.0; 
stroke:#000000; stroke-width:59.0551; stroke-opacity:1; 
stroke-linecap:round; stroke-linejoin:round;">
<path d="M82677 4724
L82677 3937
" />
</g>
<g style="fill:#000000; fill-opacity:0.0; 
stroke:#000000; stroke-width:39.3701; stroke-opacity:1; 
stroke-linecap:round; stroke-linejoin:round;">
</g>
<g style="fill:#000000; fill-opacity:0.0; 
stroke:#000000; stroke-width:59.0551; stroke-opacity:1; 
stroke-linecap:round; stroke-linejoin:round;">
<path d="M102362 4724
L102362 3937
" />
</g>
<g style="fill:#000000; fill-opacity:0.0; 
stroke:#000000; stroke-width:39.3701; stroke-opacity:1; 
stroke-linecap:round; stroke-linejoin:round;">
</g>
<g style="fill:#000000; fill-opacity:0.0; 
stroke:#000000; stroke-width:59.0551; stroke-opacity:1; 
stroke-linecap:round; stroke-linejoin:round;">
<path d="M14169 4562
L13877 4562
" />
<path d="M14023 4562
L14023 4050
L13974 4123
L13925 4172
L13877 4196
" />
</g>
<g style="fill:#000000; fill-opacity:0.0; 
stroke:#000000; stroke-width:39.3701; stroke-opacity:1; 
stroke-linecap:round; stroke-linejoin:round;">
</g>
<g style="fill:#000000; fill-opacity:0.0; 
stroke:#000000; stroke-width:59.0551; stroke-opacity:1; 
stroke-linecap:round; stroke-linejoin:round;">
<path d="M33562 4099
L33586 4074
L33635 4050
L33757 4050
L33805 4074
L33830 4099
L33854 4147
L33854 4196
L33830 4269
L33537 4562
L33854 4562
" />
</g>
<g style="fill:#000000; fill-opacity:0.0; 
stroke:#000000; stroke-width:39.3701; stroke-opacity:1; 
stroke-linecap:round; stroke-linejoin:round;">
</g>
<g style="fill:#000000; fill-opacity:0.0; 
stroke:#000000; stroke-width:59.0551; stroke-opacity:1; 
stroke-linecap:round; stroke-linejoin:round;">
<path d="M53222 4050
L53539 4050
L53368 4245
L53442 4245
L53490 4269
L53515 4294
L53539 4342
L53539 4464
L53515 4513
L53490 4537
L53442 4562
L53295 4562
L53247 4537
L53222 4513
" />
</g>
<g style="fill:#000000; fill-opacity:0.0; 
stroke:#000000; stroke-width:39.3701; stroke-opacity:1; 
stroke-linecap:round; stroke-linejoin:round;">
</g>
<g style="fill:#000000; fill-opacity:0.0; 
stroke:#000000; stroke-width:59.0551; stroke-opacity:1; 
stroke-linecap:round; stroke-linejoin:round;">
<path d="M73175 4221
L73175 4562
" />
<path d="M73053 4026
L72932 4391
L73248 4391
" />
</g>
<g style="fill:#000000; fill-opacity:0.0; 
stroke:#000000; stroke-width:39.3701; stroke-opacity:1; 
stroke-linecap:round; stroke-linejoin:round;">
</g>
<g style="fill:#000000; fill-opacity:0.0; 
stroke:#000000; stroke-width:59.0551; stroke-opacity:1; 
stroke-linecap:round; stroke-linejoin:round;">
<path d="M92885 4050
L92641 4050
L92617 4294
L92641 4269
L92690 4245
L92812 4245
L92860 4269
L92885 4294
L92909 4342
L92909 4464
L92885 4513
L92860 4537
L92812 4562
L92690 4562
L92641 4537
L92617 4513
" />
</g>
<g style="fill:#000000; fill-opacity:0.0; 
stroke:#000000; stroke-width:39.3701; stroke-opacity:1; 
stroke-linecap:round; stroke-linejoin:round;">
</g>
<g style="fill:#000000; fill-opacity:0.0; 
stroke:#000000; stroke-width:59.0551; stroke-opacity:1; 
stroke-linecap:round; stroke-linejoin:round;">
<path d="M112545 4050
L112448 4050
L112399 4074
L112375 4099
L112326 4172
L112302 4269
L112302 4464
L112326 4513
L112350 4537
L112399 4562
L112497 4562
L112545 4537
L112570 4513
L112594 4464
L112594 4342
L112570 4294
L112545 4269
L112497 4245
L112399 4245
L112350 4269
L112326 4294
L112302 4342
" />
</g>
<g style="fill:#000000; fill-opacity:0.0; 
stroke:#000000; stroke-width:39.3701; stroke-opacity:1; 
stroke-linecap:round; stroke-linejoin:round;">
</g>
<g style="fill:#000000; fill-opacity:0.0; 
stroke:#000000; stroke-width:59.0551; stroke-opacity:1; 
stroke-linecap:round; stroke-linejoin:round;">
<path d="M23622 77955
L23622 78742
" />
</g>
<g style="fill:#000000; fill-opacity:0.0; 
stroke:#000000; stroke-width:39.3701; stroke-opacity:1; 
stroke-linecap:round; stroke-linejoin:round;">
</g>
<g style="fill:#000000; fill-opacity:0.0; 
stroke:#000000; stroke-width:59.0551; stroke-opacity:1; 
stroke-linecap:round; stroke-linejoin:round;">
<path d="M43307 77955
L43307 78742
" />
</g>
<g style="fill:#000000; fill-opacity:0.0; 
stroke:#000000; stroke-width:39.3701; stroke-opacity:1; 
stroke-linecap:round; stroke-linejoin:round;">
</g>
<g style="fill:#000000; fill-opacity:0.0; 
stroke:#000000; stroke-width:59.0551; stroke-opacity:1; 
stroke-linecap:round; stroke-linejoin:round;">
<path d="M62992 77955
L62992 78742
" />
</g>
<g style="fill:#000000; fill-opacity:0.0; 
stroke:#000000; stroke-width:39.3701; stroke-opacity:1; 
stroke-linecap:round; stroke-linejoin:round;">
</g>
<g style="fill:#000000; fill-opacity:0.0; 
stroke:#000000; stroke-width:59.0551; stroke-opacity:1; 
stroke-linecap:round; stroke-linejoin:round;">
<path d="M82677 77955
L82677 78742
" />
</g>
<g style="fill:#000000; fill-opacity:0.0; 
stroke:#000000; stroke-width:39.3701; stroke-opacity:1; 
stroke-linecap:round; stroke-linejoin:round;">
</g>
<g style="fill:#000000; fill-opacity:0.0; 
stroke:#000000; stroke-width:59.0551; stroke-opacity:1; 
stroke-linecap:round; stroke-linejoin:round;">
<path d="M102362 77955
L102362 78742
" />
</g>
<g style="fill:#000000; fill-opacity:0.0; 
stroke:#000000; stroke-width:39.3701; stroke-opacity:1; 
stroke-linecap:round; stroke-linejoin:round;">
</g>
<g style="fill:#000000; fill-opacity:0.0; 
stroke:#000000; stroke-width:59.0551; stroke-opacity:1; 
stroke-linecap:round; stroke-linejoin:round;">
<path d="M14169 78580
L13877 78580
" />
<path d="M14023 78580
L14023 78069
L13974 78142
L13925 78190
L13877 78215
" />
</g>
<g style="fill:#000000; fill-opacity:0.0; 
stroke:#000000; stroke-width:39.3701; stroke-opacity:1; 
stroke-linecap:round; stroke-linejoin:round;">
</g>
<g style="fill:#000000; fill-opacity:0.0; 
stroke:#000000; stroke-width:59.0551; stroke-opacity:1; 
stroke-linecap:round; stroke-linejoin:round;">
<path d="M33562 78117
L33586 78093
L33635 78069
L33757 78069
L33805 78093
L33830 78117
L33854 78166
L33854 78215
L33830 78288
L33537 78580
L33854 78580
" />
</g>
<g style="fill:#000000; fill-opacity:0.0; 
stroke:#000000; stroke-width:39.3701; stroke-opacity:1; 
stroke-linecap:round; stroke-linejoin:round;">
</g>
<g style="fill:#000000; fill-opacity:0.0; 
stroke:#000000; stroke-width:59.0551; stroke-opacity:1; 
stroke-linecap:round; stroke-linejoin:round;">
<path d="M53222 78069
L53539 78069
L53368 78263
L53442 78263
L53490 78288
L53515 78312
L53539 78361
L53539 78483
L53515 78532
L53490 78556
L53442 78580
L53295 78580
L53247 78556
L53222 78532
" />
</g>
<g style="fill:#000000; fill-opacity:0.0; 
stroke:#000000; stroke-width:39.3701; stroke-opacity:1; 
stroke-linecap:round; stroke-linejoin:round;">
</g>
<g style="fill:#000000; fill-opacity:0.0; 
stroke:#000000; stroke-width:59.0551; stroke-opacity:1; 
stroke-linecap:round; stroke-linejoin:round;">
<path d="M73175 78239
L73175 78580
" />
<path d="M73053 78044
L72932 78410
L73248 78410
" />
</g>
<g style="fill:#000000; fill-opacity:0.0; 
stroke:#000000; stroke-width:39.3701; stroke-opacity:1; 
stroke-linecap:round; stroke-linejoin:round;">
</g>
<g style="fill:#000000; fill-opacity:0.0; 
stroke:#000000; stroke-width:59.0551; stroke-opacity:1; 
stroke-linecap:round; stroke-linejoin:round;">
<path d="M92885 78069
L92641 78069
L92617 78312
L92641 78288
L92690 78263
L92812 78263
L92860 78288
L92885 78312
L92909 78361
L92909 78483
L92885 78532
L92860 78556
L92812 78580
L92690 78580
L92641 78556
L92617 78532
" />
</g>
<g style="fill:#000000; fill-opacity:0.0; 
stroke:#000000; stroke-width:39.3701; stroke-opacity:1; 
stroke-linecap:round; stroke-linejoin:round;">
</g>
<g style="fill:#000000; fill-opacity:0.0; 
stroke:#000000; stroke-width:59.0551; stroke-opacity:1; 
stroke-linecap:round; stroke-linejoin:round;">
<path d="M112545 78069
L112448 78069
L112399 78093
L112375 78117
L112326 78190
L112302 78288
L112302 78483
L112326 78532
L112350 78556
L112399 78580
L112497 78580
L112545 78556
L112570 78532
L112594 78483
L112594 78361
L112570 78312
L112545 78288
L112497 78263
L112399 78263
L112350 78288
L112326 78312
L112302 78361
" />
</g>
<g style="fill:#000000; fill-opacity:0.0; 
stroke:#000000; stroke-width:39.3701; stroke-opacity:1; 
stroke-linecap:round; stroke-linejoin:round;">
</g>
<g style="fill:#000000; fill-opacity:0.0; 
stroke:#000000; stroke-width:59.0551; stroke-opacity:1; 
stroke-linecap:round; stroke-linejoin:round;">
<path d="M3937 23622
L4724 23622
" />
</g>
<g style="fill:#000000; fill-opacity:0.0; 
stroke:#000000; stroke-width:39.3701; stroke-opacity:1; 
stroke-linecap:round; stroke-linejoin:round;">
</g>
<g style="fill:#000000; fill-opacity:0.0; 
stroke:#000000; stroke-width:59.0551; stroke-opacity:1; 
stroke-linecap:round; stroke-linejoin:round;">
<path d="M3937 43307
L4724 43307
" />
</g>
<g style="fill:#000000; fill-opacity:0.0; 
stroke:#000000; stroke-width:39.3701; stroke-opacity:1; 
stroke-linecap:round; stroke-linejoin:round;">
</g>
<g style="fill:#000000; fill-opacity:0.0; 
stroke:#000000; stroke-width:59.0551; stroke-opacity:1; 
stroke-linecap:round; stroke-linejoin:round;">
<path d="M3937 62992
L4724 62992
" />
</g>
<g style="fill:#000000; fill-opacity:0.0; 
stroke:#000000; stroke-width:39.3701; stroke-opacity:1; 
stroke-linecap:round; stroke-linejoin:round;">
</g>
<g style="fill:#000000; fill-opacity:0.0; 
stroke:#000000; stroke-width:59.0551; stroke-opacity:1; 
stroke-linecap:round; stroke-linejoin:round;">
<path d="M4208 13864
L4452 13864
" />
<path d="M4160 14011
L4330 13499
L4501 14011
" />
</g>
<g style="fill:#000000; fill-opacity:0.0; 
stroke:#000000; stroke-width:39.3701; stroke-opacity:1; 
stroke-linecap:round; stroke-linejoin:round;">
</g>
<g style="fill:#000000; fill-opacity:0.0; 
stroke:#000000; stroke-width:59.0551; stroke-opacity:1; 
stroke-linecap:round; stroke-linejoin:round;">
<path d="M4367 33428
L4440 33452
L4464 33476
L4489 33525
L4489 33598
L4464 33647
L4440 33671
L4391 33696
L4196 33696
L4196 33184
L4367 33184
L4416 33208
L4440 33233
L4464 33281
L4464 33330
L4440 33379
L4416 33403
L4367 33428
L4196 33428
" />
</g>
<g style="fill:#000000; fill-opacity:0.0; 
stroke:#000000; stroke-width:39.3701; stroke-opacity:1; 
stroke-linecap:round; stroke-linejoin:round;">
</g>
<g style="fill:#000000; fill-opacity:0.0; 
stroke:#000000; stroke-width:59.0551; stroke-opacity:1; 
stroke-linecap:round; stroke-linejoin:round;">
<path d="M4489 53332
L4464 53356
L4391 53381
L4342 53381
L4269 53356
L4221 53308
L4196 53259
L4172 53161
L4172 53088
L4196 52991
L4221 52942
L4269 52893
L4342 52869
L4391 52869
L4464 52893
L4489 52918
" />
</g>
<g style="fill:#000000; fill-opacity:0.0; 
stroke:#000000; stroke-width:39.3701; stroke-opacity:1; 
stroke-linecap:round; stroke-linejoin:round;">
</g>
<g style="fill:#000000; fill-opacity:0.0; 
stroke:#000000; stroke-width:59.0551; stroke-opacity:1; 
stroke-linecap:round; stroke-linejoin:round;">
<path d="M4196 73066
L4196 72554
L4318 72554
L4391 72578
L4440 72627
L4464 72676
L4489 72773
L4489 72846
L4464 72944
L4440 72993
L4391 73041
L4318 73066
L4196 73066
" />
</g>
<g style="fill:#000000; fill-opacity:0.0; 
stroke:#000000; stroke-width:39.3701; stroke-opacity:1; 
stroke-linecap:round; stroke-linejoin:round;">
</g>
<g style="fill:#000000; fill-opacity:0.0; 
stroke:#000000; stroke-width:59.0551; stroke-opacity:1; 
stroke-linecap:round; stroke-linejoin:round;">
<path d="M112992 23622
L112205 23622
" />
</g>
<g style="fill:#000000; fill-opacity:0.0; 
stroke:#000000; stroke-width:39.3701; stroke-opacity:1; 
stroke-linecap:round; stroke-linejoin:round;">
</g>
<g style="fill:#000000; fill-opacity:0.0; 
stroke:#000000; stroke-width:59.0551; stroke-opacity:1; 
stroke-linecap:round; stroke-linejoin:round;">
<path d="M112992 43307
L112205 43307
" />
</g>
<g style="fill:#000000; fill-opacity:0.0; 
stroke:#000000; stroke-width:39.3701; stroke-opacity:1; 
stroke-linecap:round; stroke-linejoin:round;">
</g>
<g style="fill:#000000; fill-opacity:0.0; 
stroke:#000000; stroke-width:59.0551; stroke-opacity:1; 
stroke-linecap:round; stroke-linejoin:round;">
<path d="M112992 62992
L112205 62992
" />
</g>
<g style="fill:#000000; fill-opacity:0.0; 
stroke:#000000; stroke-width:39.3701; stroke-opacity:1; 
stroke-linecap:round; stroke-linejoin:round;">
</g>
<g style="fill:#000000; fill-opacity:0.0; 
stroke:#000000; stroke-width:59.0551; stroke-opacity:1; 
stroke-linecap:round; stroke-linejoin:round;">
<path d="M112477 13864
L112721 13864
" />
<path d="M112428 14011
L112599 13499
L112769 14011
" />
</g>
<g style="fill:#000000; fill-opacity:0.0; 
stroke:#000000; stroke-width:39.3701; stroke-opacity:1; 
stroke-linecap:round; stroke-linejoin:round;">
</g>
<g style="fill:#000000; fill-opacity:0.0; 
stroke:#000000; stroke-width:59.0551; stroke-opacity:1; 
stroke-linecap:round; stroke-linejoin:round;">
<path d="M112635 33428
L112708 33452
L112733 33476
L112757 33525
L112757 33598
L112733 33647
L112708 33671
L112660 33696
L112465 33696
L112465 33184
L112635 33184
L112684 33208
L112708 33233
L112733 33281
L112733 33330
L112708 33379
L112684 33403
L112635 33428
L112465 33428
" />
</g>
<g style="fill:#000000; fill-opacity:0.0; 
stroke:#000000; stroke-width:39.3701; stroke-opacity:1; 
stroke-linecap:round; stroke-linejoin:round;">
</g>
<g style="fill:#000000; fill-opacity:0.0; 
stroke:#000000; stroke-width:59.0551; stroke-opacity:1; 
stroke-linecap:round; stroke-linejoin:round;">
<path d="M112757 53332
L112733 53356
L112660 53381
L112611 53381
L112538 53356
L112489 53308
L112465 53259
L112440 53161
L112440 53088
L112465 52991
L112489 52942
L112538 52893
L112611 52869
L112660 52869
L112733 52893
L112757 52918
" />
</g>
<g style="fill:#000000; fill-opacity:0.0; 
stroke:#000000; stroke-width:39.3701; stroke-opacity:1; 
stroke-linecap:round; stroke-linejoin:round;">
</g>
<g style="fill:#000000; fill-opacity:0.0; 
stroke:#000000; stroke-width:59.0551; stroke-opacity:1; 
stroke-linecap:round; stroke-linejoin:round;">
<path d="M112465 73066
L112465 72554
L112587 72554
L112660 72578
L112708 72627
L112733 72676
L112757 72773
L112757 72846
L112733 72944
L112708 72993
L112660 73041
L112587 73066
L112465 73066
" />
</g>
<g style="fill:#000000; fill-opacity:0.0; 
stroke:#000000; stroke-width:39.3701; stroke-opacity:1; 
stroke-linecap:round; stroke-linejoin:round;">
</g>
<g style="fill:#000000; fill-opacity:0.0; 
stroke:#000000; stroke-width:59.0551; stroke-opacity:1; 
stroke-linecap:round; stroke-linejoin:round;">
<path d="M78881 76293
L78881 75703
L79022 75703
L79106 75731
L79162 75787
L79190 75843
L79219 75956
L79219 76040
L79190 76153
L79162 76209
L79106 76265
L79022 76293
L78881 76293
" />
<path d="M79725 76293
L79725 75984
L79697 75928
L79640 75899
L79528 75899
L79472 75928
" />
<path d="M79725 76265
L79669 76293
L79528 76293
L79472 76265
L79444 76209
L79444 76153
L79472 76096
L79528 76068
L79669 76068
L79725 76040
" />
<path d="M79922 75899
L80147 75899
" />
<path d="M80006 75703
L80006 76209
L80034 76265
L80090 76293
L80147 76293
" />
<path d="M80568 76265
L80512 76293
L80400 76293
L80343 76265
L80315 76209
L80315 75984
L80343 75928
L80400 75899
L80512 75899
L80568 75928
L80597 75984
L80597 76040
L80315 76096
" />
<path d="M80850 76237
L80878 76265
L80850 76293
L80822 76265
L80850 76237
L80850 76293
" />
<path d="M80850 75928
L80878 75956
L80850 75984
L80822 75956
L80850 75928
L80850 75984
" />
</g>
<g style="fill:#000000; fill-opacity:0.0; 
stroke:#000000; stroke-width:39.3701; stroke-opacity:1; 
stroke-linecap:round; stroke-linejoin:round;">
</g>
<g style="fill:#000000; fill-opacity:0.0; 
stroke:#000000; stroke-width:59.0551; stroke-opacity:1; 
stroke-linecap:round; stroke-linejoin:round;">
<path d="M69685 76577
L112205 76577
" />
</g>
<g style="fill:#000000; fill-opacity:0.0; 
stroke:#000000; stroke-width:39.3701; stroke-opacity:1; 
stroke-linecap:round; stroke-linejoin:round;">
</g>
<g style="fill:#000000; fill-opacity:0.0; 
stroke:#000000; stroke-width:59.0551; stroke-opacity:1; 
stroke-linecap:round; stroke-linejoin:round;">
<path d="M70220 77395
L70220 76805
" />
<path d="M70557 77395
L70304 77058
" />
<path d="M70557 76805
L70220 77142
" />
<path d="M70810 77395
L70810 77002
" />
<path d="M70810 76805
L70782 76833
L70810 76861
L70838 76833
L70810 76805
L70810 76861
" />
<path d="M71429 77339
L71401 77367
L71316 77395
L71260 77395
L71176 77367
L71120 77311
L71091 77255
L71063 77142
L71063 77058
L71091 76946
L71120 76889
L71176 76833
L71260 76805
L71316 76805
L71401 76833
L71429 76861
" />
<path d="M71935 77395
L71935 77086
L71907 77030
L71851 77002
L71738 77002
L71682 77030
" />
<path d="M71935 77367
L71879 77395
L71738 77395
L71682 77367
L71654 77311
L71654 77255
L71682 77199
L71738 77171
L71879 77171
L71935 77142
" />
<path d="M72469 77395
L72469 76805
" />
<path d="M72469 77367
L72413 77395
L72301 77395
L72244 77367
L72216 77339
L72188 77283
L72188 77114
L72216 77058
L72244 77030
L72301 77002
L72413 77002
L72469 77030
" />
<path d="M73201 77086
L73397 77086
" />
<path d="M73482 77395
L73201 77395
L73201 76805
L73482 76805
" />
<path d="M73735 77339
L73763 77367
L73735 77395
L73707 77367
L73735 77339
L73735 77395
" />
<path d="M74016 77395
L74016 76805
L74157 76805
L74241 76833
L74297 76889
L74325 76946
L74354 77058
L74354 77142
L74325 77255
L74297 77311
L74241 77367
L74157 77395
L74016 77395
" />
<path d="M74607 77339
L74635 77367
L74607 77395
L74579 77367
L74607 77339
L74607 77395
" />
<path d="M74860 77227
L75141 77227
" />
<path d="M74804 77395
L75000 76805
L75197 77395
" />
<path d="M75394 77339
L75422 77367
L75394 77395
L75366 77367
L75394 77339
L75394 77395
" />
<path d="M76575 77395
L76575 76805
" />
<path d="M76631 77171
L76800 77395
" />
<path d="M76800 77002
L76575 77227
" />
<path d="M77053 77395
L77053 77002
" />
<path d="M77053 76805
L77025 76833
L77053 76861
L77081 76833
L77053 76805
L77053 76861
" />
<path d="M77588 77367
L77531 77395
L77419 77395
L77363 77367
L77334 77339
L77306 77283
L77306 77114
L77334 77058
L77363 77030
L77419 77002
L77531 77002
L77588 77030
" />
<path d="M78094 77395
L78094 77086
L78066 77030
L78009 77002
L77897 77002
L77841 77030
" />
<path d="M78094 77367
L78037 77395
L77897 77395
L77841 77367
L77813 77311
L77813 77255
L77841 77199
L77897 77171
L78037 77171
L78094 77142
" />
<path d="M78628 77395
L78628 76805
" />
<path d="M78628 77367
L78572 77395
L78459 77395
L78403 77367
L78375 77339
L78347 77283
L78347 77114
L78375 77058
L78403 77030
L78459 77002
L78572 77002
L78628 77030
" />
<path d="M79612 77002
L79612 77395
" />
<path d="M79472 76777
L79331 77199
L79697 77199
" />
<path d="M79922 77339
L79950 77367
L79922 77395
L79894 77367
L79922 77339
L79922 77395
" />
<path d="M80315 76805
L80372 76805
L80428 76833
L80456 76861
L80484 76917
L80512 77030
L80512 77171
L80484 77283
L80456 77339
L80428 77367
L80372 77395
L80315 77395
L80259 77367
L80231 77339
L80203 77283
L80175 77171
L80175 77030
L80203 76917
L80231 76861
L80259 76833
L80315 76805
" />
<path d="M80765 77339
L80793 77367
L80765 77395
L80737 77367
L80765 77339
L80765 77395
" />
<path d="M81159 76805
L81215 76805
L81271 76833
L81300 76861
L81328 76917
L81356 77030
L81356 77171
L81328 77283
L81300 77339
L81271 77367
L81215 77395
L81159 77395
L81103 77367
L81075 77339
L81046 77283
L81018 77171
L81018 77030
L81046 76917
L81075 76861
L81103 76833
L81159 76805
" />
<path d="M81609 77171
L82059 77171
" />
<path d="M82340 77395
L82340 77002
" />
<path d="M82340 77114
L82368 77058
L82396 77030
L82453 77002
L82509 77002
" />
<path d="M82959 77367
L82903 77395
L82790 77395
L82734 77367
L82706 77339
L82678 77283
L82678 77114
L82706 77058
L82734 77030
L82790 77002
L82903 77002
L82959 77030
" />
<path d="M83521 77395
L83184 77395
" />
<path d="M83352 77395
L83352 76805
L83296 76889
L83240 76946
L83184 76974
" />
<path d="M83774 77171
L84224 77171
" />
<path d="M84477 77367
L84534 77395
L84646 77395
L84702 77367
L84730 77311
L84730 77283
L84702 77227
L84646 77199
L84562 77199
L84505 77171
L84477 77114
L84477 77086
L84505 77030
L84562 77002
L84646 77002
L84702 77030
" />
<path d="M84899 77002
L85124 77002
" />
<path d="M84983 76805
L84983 77311
L85012 77367
L85068 77395
L85124 77395
" />
<path d="M85574 77395
L85574 77086
L85546 77030
L85490 77002
L85377 77002
L85321 77030
" />
<path d="M85574 77367
L85518 77395
L85377 77395
L85321 77367
L85293 77311
L85293 77255
L85321 77199
L85377 77171
L85518 77171
L85574 77142
" />
<path d="M85855 77395
L85855 76805
" />
<path d="M85855 77030
L85912 77002
L86024 77002
L86080 77030
L86108 77058
L86136 77114
L86136 77283
L86108 77339
L86080 77367
L86024 77395
L85912 77395
L85855 77367
" />
<path d="M86474 77395
L86418 77367
L86390 77311
L86390 76805
" />
<path d="M86924 77367
L86868 77395
L86755 77395
L86699 77367
L86671 77311
L86671 77086
L86699 77030
L86755 77002
L86868 77002
L86924 77030
L86952 77086
L86952 77142
L86671 77199
" />
</g>
<g style="fill:#000000; fill-opacity:0.0; 
stroke:#000000; stroke-width:39.3701; stroke-opacity:1; 
stroke-linecap:round; stroke-linejoin:round;">
</g>
<g style="fill:#000000; fill-opacity:0.0; 
stroke:#000000; stroke-width:59.0551; stroke-opacity:1; 
stroke-linecap:round; stroke-linejoin:round;">
<path d="M69685 75396
L112205 75396
" />
</g>
<g style="fill:#000000; fill-opacity:0.0; 
stroke:#000000; stroke-width:39.3701; stroke-opacity:1; 
stroke-linecap:round; stroke-linejoin:round;">
</g>
<g style="fill:#000000; fill-opacity:0.0; 
stroke:#000000; stroke-width:118.11; stroke-opacity:1; 
stroke-linecap:round; stroke-linejoin:round;">
<path d="M104022 76293
L103825 76012
" />
<path d="M103684 76293
L103684 75703
L103909 75703
L103965 75731
L103994 75759
L104022 75815
L104022 75899
L103994 75956
L103965 75984
L103909 76012
L103684 76012
" />
<path d="M104500 76265
L104444 76293
L104331 76293
L104275 76265
L104247 76209
L104247 75984
L104275 75928
L104331 75899
L104444 75899
L104500 75928
L104528 75984
L104528 76040
L104247 76096
" />
<path d="M104725 75899
L104865 76293
L105006 75899
" />
<path d="M105231 76237
L105259 76265
L105231 76293
L105203 76265
L105231 76237
L105231 76293
" />
<path d="M105231 75928
L105259 75956
L105231 75984
L105203 75956
L105231 75928
L105231 75984
" />
</g>
<g style="fill:#000000; fill-opacity:0.0; 
stroke:#000000; stroke-width:39.3701; stroke-opacity:1; 
stroke-linecap:round; stroke-linejoin:round;">
</g>
<g style="fill:#000000; fill-opacity:0.0; 
stroke:#000000; stroke-width:59.0551; stroke-opacity:1; 
stroke-linecap:round; stroke-linejoin:round;">
<path d="M70192 76265
L70276 76293
L70417 76293
L70473 76265
L70501 76237
L70529 76181
L70529 76124
L70501 76068
L70473 76040
L70417 76012
L70304 75984
L70248 75956
L70220 75928
L70192 75871
L70192 75815
L70220 75759
L70248 75731
L70304 75703
L70445 75703
L70529 75731
" />
<path d="M70782 76293
L70782 75899
" />
<path d="M70782 75703
L70754 75731
L70782 75759
L70810 75731
L70782 75703
L70782 75759
" />
<path d="M71007 75899
L71316 75899
L71007 76293
L71316 76293
" />
<path d="M71766 76265
L71710 76293
L71598 76293
L71541 76265
L71513 76209
L71513 75984
L71541 75928
L71598 75899
L71710 75899
L71766 75928
L71795 75984
L71795 76040
L71513 76096
" />
<path d="M72048 76237
L72076 76265
L72048 76293
L72019 76265
L72048 76237
L72048 76293
" />
<path d="M72048 75928
L72076 75956
L72048 75984
L72019 75956
L72048 75928
L72048 75984
" />
<path d="M72751 76124
L73032 76124
" />
<path d="M72694 76293
L72891 75703
L73088 76293
" />
<path d="M73538 75899
L73538 76293
" />
<path d="M73397 75674
L73257 76096
L73622 76096
" />
</g>
<g style="fill:#000000; fill-opacity:0.0; 
stroke:#000000; stroke-width:39.3701; stroke-opacity:1; 
stroke-linecap:round; stroke-linejoin:round;">
</g>
<g style="fill:#000000; fill-opacity:0.0; 
stroke:#000000; stroke-width:59.0551; stroke-opacity:1; 
stroke-linecap:round; stroke-linejoin:round;">
<path d="M103684 77395
L103684 76805
" />
<path d="M104219 77395
L104219 76805
" />
<path d="M104219 77367
L104162 77395
L104050 77395
L103994 77367
L103965 77339
L103937 77283
L103937 77114
L103965 77058
L103994 77030
L104050 77002
L104162 77002
L104219 77030
" />
<path d="M104500 77339
L104528 77367
L104500 77395
L104472 77367
L104500 77339
L104500 77395
" />
<path d="M104500 77030
L104528 77058
L104500 77086
L104472 77058
L104500 77030
L104500 77086
" />
<path d="M105540 77395
L105203 77395
" />
<path d="M105372 77395
L105372 76805
L105315 76889
L105259 76946
L105203 76974
" />
<path d="M106215 76777
L105709 77536
" />
<path d="M106721 77395
L106384 77395
" />
<path d="M106553 77395
L106553 76805
L106496 76889
L106440 76946
L106384 76974
" />
</g>
<g style="fill:#000000; fill-opacity:0.0; 
stroke:#000000; stroke-width:39.3701; stroke-opacity:1; 
stroke-linecap:round; stroke-linejoin:round;">
</g>
<g style="fill:#000000; fill-opacity:0.0; 
stroke:#000000; stroke-width:59.0551; stroke-opacity:1; 
stroke-linecap:round; stroke-linejoin:round;">
<path d="M69685 73821
L112205 73821
" />
</g>
<g style="fill:#000000; fill-opacity:0.0; 
stroke:#000000; stroke-width:39.3701; stroke-opacity:1; 
stroke-linecap:round; stroke-linejoin:round;">
</g>
<g style="fill:#000000; fill-opacity:0.0; 
stroke:#000000; stroke-width:157.48; stroke-opacity:1; 
stroke-linecap:round; stroke-linejoin:round;">
<path d="M70257 74099
L70707 74099
" />
<path d="M70384 74886
L70482 74099
" />
<path d="M70871 74886
L70937 74361
" />
<path d="M70970 74099
L70927 74136
L70960 74174
L71002 74136
L70970 74099
L70960 74174
" />
<path d="M71199 74361
L71499 74361
" />
<path d="M71345 74099
L71260 74774
L71288 74849
L71359 74886
L71434 74886
" />
<path d="M71809 74886
L71738 74849
L71710 74774
L71795 74099
" />
<path d="M72413 74849
L72334 74886
L72184 74886
L72113 74849
L72085 74774
L72123 74474
L72169 74399
L72249 74361
L72399 74361
L72469 74399
L72498 74474
L72488 74549
L72104 74624
" />
<path d="M72793 74811
L72826 74849
L72783 74886
L72751 74849
L72793 74811
L72783 74886
" />
<path d="M72844 74399
L72877 74436
L72835 74474
L72802 74436
L72844 74399
L72835 74474
" />
</g>
<g style="fill:#000000; fill-opacity:0.0; 
stroke:#000000; stroke-width:39.3701; stroke-opacity:1; 
stroke-linecap:round; stroke-linejoin:round;">
</g>
<g style="fill:#000000; fill-opacity:0.0; 
stroke:#000000; stroke-width:59.0551; stroke-opacity:1; 
stroke-linecap:round; stroke-linejoin:round;">
<path d="M70417 73070
L70220 73070
" />
<path d="M70220 73380
L70220 72789
L70501 72789
" />
<path d="M70726 73380
L70726 72986
" />
<path d="M70726 72789
L70698 72817
L70726 72845
L70754 72817
L70726 72789
L70726 72845
" />
<path d="M71091 73380
L71035 73352
L71007 73295
L71007 72789
" />
<path d="M71541 73352
L71485 73380
L71373 73380
L71316 73352
L71288 73295
L71288 73070
L71316 73014
L71373 72986
L71485 72986
L71541 73014
L71570 73070
L71570 73127
L71288 73183
" />
<path d="M71823 73323
L71851 73352
L71823 73380
L71795 73352
L71823 73323
L71823 73380
" />
<path d="M71823 73014
L71851 73042
L71823 73070
L71795 73042
L71823 73014
L71823 73070
" />
<path d="M72526 73352
L72582 73380
L72694 73380
L72751 73352
L72779 73295
L72779 73267
L72751 73211
L72694 73183
L72610 73183
L72554 73155
L72526 73099
L72526 73070
L72554 73014
L72610 72986
L72694 72986
L72751 73014
" />
<path d="M73116 73380
L73060 73352
L73032 73323
L73004 73267
L73004 73099
L73032 73042
L73060 73014
L73116 72986
L73201 72986
L73257 73014
L73285 73042
L73313 73099
L73313 73267
L73285 73323
L73257 73352
L73201 73380
L73116 73380
" />
<path d="M73651 73380
L73594 73352
L73566 73295
L73566 72789
" />
<path d="M74129 73380
L74129 73070
L74100 73014
L74044 72986
L73932 72986
L73876 73014
" />
<path d="M74129 73352
L74072 73380
L73932 73380
L73876 73352
L73847 73295
L73847 73239
L73876 73183
L73932 73155
L74072 73155
L74129 73127
" />
<path d="M74410 73380
L74410 72986
" />
<path d="M74410 73099
L74438 73042
L74466 73014
L74522 72986
L74579 72986
" />
<path d="M75028 72986
L75028 73380
" />
<path d="M74775 72986
L74775 73295
L74804 73352
L74860 73380
L74944 73380
L75000 73352
L75028 73323
" />
<path d="M75310 73380
L75310 72986
" />
<path d="M75310 73099
L75338 73042
L75366 73014
L75422 72986
L75478 72986
" />
<path d="M75675 72986
L75675 73492
L75647 73548
L75591 73577
L75563 73577
" />
<path d="M75675 72789
L75647 72817
L75675 72845
L75703 72817
L75675 72789
L75675 72845
" />
<path d="M76210 73380
L76210 73070
L76181 73014
L76125 72986
L76013 72986
L75956 73014
" />
<path d="M76210 73352
L76153 73380
L76013 73380
L75956 73352
L75928 73295
L75928 73239
L75956 73183
L76013 73155
L76153 73155
L76210 73127
" />
<path d="M76491 73323
L76519 73352
L76491 73380
L76463 73352
L76491 73323
L76491 73380
" />
<path d="M76772 73380
L76772 72789
" />
<path d="M76828 73155
L76997 73380
" />
<path d="M76997 72986
L76772 73211
" />
<path d="M77250 73380
L77250 72986
" />
<path d="M77250 72789
L77222 72817
L77250 72845
L77278 72817
L77250 72789
L77250 72845
" />
<path d="M77784 73352
L77728 73380
L77616 73380
L77559 73352
L77531 73323
L77503 73267
L77503 73099
L77531 73042
L77559 73014
L77616 72986
L77728 72986
L77784 73014
" />
<path d="M78291 73380
L78291 73070
L78262 73014
L78206 72986
L78094 72986
L78037 73014
" />
<path d="M78291 73352
L78234 73380
L78094 73380
L78037 73352
L78009 73295
L78009 73239
L78037 73183
L78094 73155
L78234 73155
L78291 73127
" />
<path d="M78825 73380
L78825 72789
" />
<path d="M78825 73352
L78769 73380
L78656 73380
L78600 73352
L78572 73323
L78544 73267
L78544 73099
L78572 73042
L78600 73014
L78656 72986
L78769 72986
L78825 73014
" />
<path d="M78965 73436
L79415 73436
" />
<path d="M79556 72986
L79556 73577
" />
<path d="M79556 73014
L79612 72986
L79725 72986
L79781 73014
L79809 73042
L79837 73099
L79837 73267
L79809 73323
L79781 73352
L79725 73380
L79612 73380
L79556 73352
" />
<path d="M80343 73352
L80287 73380
L80175 73380
L80118 73352
L80090 73323
L80062 73267
L80062 73099
L80090 73042
L80118 73014
L80175 72986
L80287 72986
L80343 73014
" />
<path d="M80597 73380
L80597 72789
" />
<path d="M80597 73014
L80653 72986
L80765 72986
L80822 73014
L80850 73042
L80878 73099
L80878 73267
L80850 73323
L80822 73352
L80765 73380
L80653 73380
L80597 73352
" />
</g>
<g style="fill:#000000; fill-opacity:0.0; 
stroke:#000000; stroke-width:39.3701; stroke-opacity:1; 
stroke-linecap:round; stroke-linejoin:round;">
</g>
<g style="fill:#000000; fill-opacity:0.0; 
stroke:#000000; stroke-width:59.0551; stroke-opacity:1; 
stroke-linecap:round; stroke-linejoin:round;">
<path d="M69685 71459
L112205 71459
" />
</g>
<g style="fill:#000000; fill-opacity:0.0; 
stroke:#000000; stroke-width:39.3701; stroke-opacity:1; 
stroke-linecap:round; stroke-linejoin:round;">
</g>
<g style="fill:#000000; fill-opacity:0.0; 
stroke:#000000; stroke-width:59.0551; stroke-opacity:1; 
stroke-linecap:round; stroke-linejoin:round;">
<path d="M70192 72289
L70276 72317
L70417 72317
L70473 72289
L70501 72260
L70529 72204
L70529 72148
L70501 72092
L70473 72064
L70417 72036
L70304 72007
L70248 71979
L70220 71951
L70192 71895
L70192 71839
L70220 71782
L70248 71754
L70304 71726
L70445 71726
L70529 71754
" />
<path d="M70782 72317
L70782 71726
" />
<path d="M71035 72317
L71035 72007
L71007 71951
L70951 71923
L70867 71923
L70810 71951
L70782 71979
" />
<path d="M71541 72289
L71485 72317
L71373 72317
L71316 72289
L71288 72232
L71288 72007
L71316 71951
L71373 71923
L71485 71923
L71541 71951
L71570 72007
L71570 72064
L71288 72120
" />
<path d="M72048 72289
L71991 72317
L71879 72317
L71823 72289
L71795 72232
L71795 72007
L71823 71951
L71879 71923
L71991 71923
L72048 71951
L72076 72007
L72076 72064
L71795 72120
" />
<path d="M72244 71923
L72469 71923
" />
<path d="M72329 71726
L72329 72232
L72357 72289
L72413 72317
L72469 72317
" />
<path d="M72666 72260
L72694 72289
L72666 72317
L72638 72289
L72666 72260
L72666 72317
" />
<path d="M72666 71951
L72694 71979
L72666 72007
L72638 71979
L72666 71951
L72666 72007
" />
</g>
<g style="fill:#000000; fill-opacity:0.0; 
stroke:#000000; stroke-width:39.3701; stroke-opacity:1; 
stroke-linecap:round; stroke-linejoin:round;">
</g>
<g style="fill:#000000; fill-opacity:0.0; 
stroke:#000000; stroke-width:59.0551; stroke-opacity:1; 
stroke-linecap:round; stroke-linejoin:round;">
<path d="M77559 75396
L77559 76577
" />
</g>
<g style="fill:#000000; fill-opacity:0.0; 
stroke:#000000; stroke-width:39.3701; stroke-opacity:1; 
stroke-linecap:round; stroke-linejoin:round;">
</g>
<g style="fill:#000000; fill-opacity:0.0; 
stroke:#000000; stroke-width:59.0551; stroke-opacity:1; 
stroke-linecap:round; stroke-linejoin:round;">
<path d="M102756 75396
L102756 77955
" />
</g>
<g style="fill:#C2C200; fill-opacity:0.0; 
stroke:#C2C200; stroke-width:59.0551; stroke-opacity:1; 
stroke-linecap:round; stroke-linejoin:round;">
</g>
<g style="fill:#C2C200; fill-opacity:0.0; 
stroke:#C2C200; stroke-width:39.3701; stroke-opacity:1; 
stroke-linecap:round; stroke-linejoin:round;">
<circle cx="37401.6" cy="37007.9" r="20370" /> 
</g>
<g style="fill:#C2C200; fill-opacity:0.0; 
stroke:#C2C200; stroke-width:59.0551; stroke-opacity:1; 
stroke-linecap:round; stroke-linejoin:round;">
<path d="M52052 42058
L52109 42077
L52127 42095
L52146 42133
L52146 42189
L52127 42227
L52109 42245
L52071 42264
L51921 42264
L51921 41871
L52052 41871
L52090 41889
L52109 41908
L52127 41946
L52127 41983
L52109 42020
L52090 42039
L52052 42058
L51921 42058
" />
<path d="M52521 42264
L52296 42264
" />
<path d="M52409 42264
L52409 41871
L52371 41927
L52334 41964
L52296 41983
" />
<path d="M52671 41908
L52690 41889
L52727 41871
L52821 41871
L52859 41889
L52877 41908
L52896 41946
L52896 41983
L52877 42039
L52652 42264
L52896 42264
" />
<path d="M53008 41871
L53140 42264
L53271 41871
" />
<path d="M53608 42264
L53383 42264
" />
<path d="M53496 42264
L53496 41871
L53458 41927
L53421 41964
L53383 41983
" />
<path d="M40977 43644
L40958 43663
L40902 43682
L40865 43682
L40808 43663
L40771 43625
L40752 43588
L40733 43513
L40733 43457
L40752 43382
L40771 43344
L40808 43307
L40865 43288
L40902 43288
L40958 43307
L40977 43325
" />
<path d="M41352 43682
L41127 43682
" />
<path d="M41240 43682
L41240 43288
L41202 43344
L41165 43382
L41127 43400
" />
<path d="M40977 47581
L40958 47600
L40902 47619
L40865 47619
L40808 47600
L40771 47562
L40752 47525
L40733 47450
L40733 47394
L40752 47319
L40771 47281
L40808 47244
L40865 47225
L40902 47225
L40958 47244
L40977 47262
" />
<path d="M41127 47262
L41146 47244
L41183 47225
L41277 47225
L41315 47244
L41333 47262
L41352 47300
L41352 47337
L41333 47394
L41108 47619
L41352 47619
" />
<path d="M43339 22778
L43321 22797
L43264 22815
L43227 22815
L43171 22797
L43133 22759
L43114 22722
L43096 22647
L43096 22590
L43114 22515
L43133 22478
L43171 22440
L43227 22422
L43264 22422
L43321 22440
L43339 22459
" />
<path d="M43471 22422
L43714 22422
L43583 22572
L43639 22572
L43677 22590
L43696 22609
L43714 22647
L43714 22740
L43696 22778
L43677 22797
L43639 22815
L43527 22815
L43489 22797
L43471 22778
" />
<path d="M31922 31046
L31903 31064
L31847 31083
L31810 31083
L31753 31064
L31716 31027
L31697 30989
L31678 30914
L31678 30858
L31697 30783
L31716 30746
L31753 30708
L31810 30689
L31847 30689
L31903 30708
L31922 30727
" />
<path d="M32260 30821
L32260 31083
" />
<path d="M32166 30671
L32072 30952
L32316 30952
" />
<path d="M36646 33014
L36628 33033
L36571 33052
L36534 33052
L36478 33033
L36440 32995
L36422 32958
L36403 32883
L36403 32827
L36422 32752
L36440 32714
L36478 32677
L36534 32658
L36571 32658
L36628 32677
L36646 32695
" />
<path d="M37003 32658
L36815 32658
L36796 32845
L36815 32827
L36853 32808
L36946 32808
L36984 32827
L37003 32845
L37021 32883
L37021 32977
L37003 33014
L36984 33033
L36946 33052
L36853 33052
L36815 33033
L36796 33014
" />
<path d="M35859 46006
L35840 46025
L35784 46044
L35747 46044
L35690 46025
L35653 45988
L35634 45950
L35615 45875
L35615 45819
L35634 45744
L35653 45706
L35690 45669
L35747 45650
L35784 45650
L35840 45669
L35859 45688
" />
<path d="M36197 45650
L36122 45650
L36084 45669
L36065 45688
L36028 45744
L36009 45819
L36009 45969
L36028 46006
L36047 46025
L36084 46044
L36159 46044
L36197 46025
L36215 46006
L36234 45969
L36234 45875
L36215 45838
L36197 45819
L36159 45800
L36084 45800
L36047 45819
L36028 45838
L36009 45875
" />
<path d="M27591 27896
L27573 27915
L27516 27934
L27479 27934
L27423 27915
L27385 27877
L27366 27840
L27348 27765
L27348 27709
L27366 27634
L27385 27596
L27423 27559
L27479 27540
L27516 27540
L27573 27559
L27591 27577
" />
<path d="M27723 27540
L27985 27540
L27816 27934
" />
<path d="M25229 40101
L25210 40119
L25154 40138
L25117 40138
L25060 40119
L25023 40082
L25004 40044
L24985 39970
L24985 39913
L25004 39838
L25023 39801
L25060 39763
L25117 39745
L25154 39745
L25210 39763
L25229 39782
" />
<path d="M25454 39913
L25417 39895
L25398 39876
L25379 39838
L25379 39820
L25398 39782
L25417 39763
L25454 39745
L25529 39745
L25567 39763
L25585 39782
L25604 39820
L25604 39838
L25585 39876
L25567 39895
L25529 39913
L25454 39913
L25417 39932
L25398 39951
L25379 39988
L25379 40063
L25398 40101
L25417 40119
L25454 40138
L25529 40138
L25567 40119
L25585 40101
L25604 40063
L25604 39988
L25585 39951
L25567 39932
L25529 39913
" />
<path d="M48064 36164
L48045 36182
L47989 36201
L47951 36201
L47895 36182
L47858 36145
L47839 36107
L47820 36032
L47820 35976
L47839 35901
L47858 35864
L47895 35826
L47951 35808
L47989 35808
L48045 35826
L48064 35845
" />
<path d="M48251 36201
L48326 36201
L48364 36182
L48383 36164
L48420 36107
L48439 36032
L48439 35883
L48420 35845
L48401 35826
L48364 35808
L48289 35808
L48251 35826
L48233 35845
L48214 35883
L48214 35976
L48233 36014
L48251 36032
L48289 36051
L48364 36051
L48401 36032
L48420 36014
L48439 35976
" />
<path d="M44197 40335
L44197 39941
L44291 39941
L44347 39960
L44385 39998
L44403 40035
L44422 40110
L44422 40166
L44403 40241
L44385 40279
L44347 40316
L44291 40335
L44197 40335
" />
<path d="M44797 40335
L44572 40335
" />
<path d="M44685 40335
L44685 39941
L44647 39998
L44610 40035
L44572 40054
" />
<path d="M44591 33642
L44591 33248
L44685 33248
L44741 33267
L44778 33305
L44797 33342
L44816 33417
L44816 33473
L44797 33548
L44778 33586
L44741 33623
L44685 33642
L44591 33642
" />
<path d="M44966 33286
L44985 33267
L45022 33248
L45116 33248
L45153 33267
L45172 33286
L45191 33323
L45191 33361
L45172 33417
L44947 33642
L45191 33642
" />
<path d="M25506 48234
L25506 47841
L25600 47841
L25656 47859
L25693 47897
L25712 47934
L25731 48009
L25731 48066
L25712 48141
L25693 48178
L25656 48216
L25600 48234
L25506 48234
" />
<path d="M25862 47841
L26106 47841
L25974 47991
L26031 47991
L26068 48009
L26087 48028
L26106 48066
L26106 48159
L26087 48197
L26068 48216
L26031 48234
L25918 48234
L25881 48216
L25862 48197
" />
</g>
<g style="fill:#008484; fill-opacity:0.0; 
stroke:#008484; stroke-width:59.0551; stroke-opacity:1; 
stroke-linecap:round; stroke-linejoin:round;">
<path d="M24343 47384
L24343 46991
" />
<path d="M24568 47384
L24399 47159
" />
<path d="M24568 46991
L24343 47216
" />
</g>
<g style="fill:#C2C200; fill-opacity:0.0; 
stroke:#C2C200; stroke-width:59.0551; stroke-opacity:1; 
stroke-linecap:round; stroke-linejoin:round;">
<path d="M29049 51778
L29049 51384
L29143 51384
L29199 51403
L29237 51440
L29255 51478
L29274 51553
L29274 51609
L29255 51684
L29237 51721
L29199 51759
L29143 51778
L29049 51778
" />
<path d="M29611 51515
L29611 51778
" />
<path d="M29518 51365
L29424 51646
L29668 51646
" />
</g>
<g style="fill:#008484; fill-opacity:0.0; 
stroke:#008484; stroke-width:59.0551; stroke-opacity:1; 
stroke-linecap:round; stroke-linejoin:round;">
<path d="M27887 50928
L27887 50534
" />
<path d="M28112 50928
L27943 50703
" />
<path d="M28112 50534
L27887 50759
" />
</g>
<g style="fill:#C2C200; fill-opacity:0.0; 
stroke:#C2C200; stroke-width:59.0551; stroke-opacity:1; 
stroke-linecap:round; stroke-linejoin:round;">
<path d="M46166 30886
L46166 30493
L46259 30493
L46316 30511
L46353 30549
L46372 30586
L46391 30661
L46391 30718
L46372 30793
L46353 30830
L46316 30868
L46259 30886
L46166 30886
" />
<path d="M46747 30493
L46559 30493
L46541 30680
L46559 30661
L46597 30643
L46691 30643
L46728 30661
L46747 30680
L46766 30718
L46766 30811
L46747 30849
L46728 30868
L46691 30886
L46597 30886
L46559 30868
L46541 30849
" />
<path d="M46797 46546
L46666 46546
" />
<path d="M46666 46752
L46666 46359
L46854 46359
" />
<path d="M47210 46752
L46985 46752
" />
<path d="M47097 46752
L47097 46359
L47060 46415
L47022 46452
L46985 46471
" />
<path d="M31374 37003
L31374 36610
" />
<path d="M31599 37003
L31431 36778
" />
<path d="M31599 36610
L31374 36835
" />
<path d="M31974 37003
L31749 37003
" />
<path d="M31862 37003
L31862 36610
L31824 36666
L31787 36703
L31749 36722
" />
<path d="M21532 37791
L21532 37397
" />
<path d="M21757 37791
L21588 37566
" />
<path d="M21757 37397
L21532 37622
" />
<path d="M21907 37435
L21926 37416
L21963 37397
L22057 37397
L22094 37416
L22113 37435
L22132 37472
L22132 37510
L22113 37566
L21888 37791
L22132 37791
" />
<path d="M51443 35823
L51443 35430
L51593 35430
L51631 35448
L51649 35467
L51668 35505
L51668 35561
L51649 35598
L51631 35617
L51593 35636
L51443 35636
" />
<path d="M52005 35823
L52005 35617
L51987 35580
L51949 35561
L51874 35561
L51837 35580
" />
<path d="M52005 35805
L51968 35823
L51874 35823
L51837 35805
L51818 35767
L51818 35730
L51837 35692
L51874 35673
L51968 35673
L52005 35655
" />
<path d="M52193 35561
L52193 35823
" />
<path d="M52193 35598
L52212 35580
L52249 35561
L52305 35561
L52343 35580
L52362 35617
L52362 35823
" />
<path d="M52699 35805
L52662 35823
L52587 35823
L52549 35805
L52530 35767
L52530 35617
L52549 35580
L52587 35561
L52662 35561
L52699 35580
L52718 35617
L52718 35655
L52530 35692
" />
<path d="M52943 35823
L52905 35805
L52887 35767
L52887 35430
" />
<path d="M53074 35467
L53093 35448
L53130 35430
L53224 35430
L53262 35448
L53280 35467
L53299 35505
L53299 35542
L53280 35598
L53055 35823
L53299 35823
" />
<path d="M38151 37617
L38113 37598
L38076 37560
L38020 37504
L37982 37485
L37945 37485
" />
<path d="M37964 37579
L37926 37560
L37889 37523
L37870 37448
L37870 37317
L37889 37242
L37926 37204
L37964 37185
L38038 37185
L38076 37204
L38113 37242
L38132 37317
L38132 37448
L38113 37523
L38076 37560
L38038 37579
L37964 37579
" />
<path d="M38507 37579
L38282 37579
" />
<path d="M38395 37579
L38395 37185
L38357 37242
L38320 37279
L38282 37298
" />
<path d="M41301 29743
L41263 29724
L41226 29686
L41169 29630
L41132 29611
L41094 29611
" />
<path d="M41113 29705
L41076 29686
L41038 29649
L41019 29574
L41019 29443
L41038 29368
L41076 29330
L41113 29311
L41188 29311
L41226 29330
L41263 29368
L41282 29443
L41282 29574
L41263 29649
L41226 29686
L41188 29705
L41113 29705
" />
<path d="M41432 29349
L41451 29330
L41488 29311
L41582 29311
L41619 29330
L41638 29349
L41657 29386
L41657 29424
L41638 29480
L41413 29705
L41657 29705
" />
<path d="M41301 34073
L41263 34055
L41226 34017
L41169 33961
L41132 33942
L41094 33942
" />
<path d="M41113 34036
L41076 34017
L41038 33980
L41019 33905
L41019 33773
L41038 33698
L41076 33661
L41113 33642
L41188 33642
L41226 33661
L41263 33698
L41282 33773
L41282 33905
L41263 33980
L41226 34017
L41188 34036
L41113 34036
" />
<path d="M41413 33642
L41657 33642
L41526 33792
L41582 33792
L41619 33811
L41638 33830
L41657 33867
L41657 33961
L41638 33998
L41619 34017
L41582 34036
L41469 34036
L41432 34017
L41413 33998
" />
<path d="M21581 39367
L21450 39179
" />
<path d="M21356 39367
L21356 38973
L21506 38973
L21544 38992
L21562 39010
L21581 39048
L21581 39104
L21562 39142
L21544 39160
L21506 39179
L21356 39179
" />
<path d="M21956 39367
L21731 39367
" />
<path d="M21844 39367
L21844 38973
L21806 39029
L21769 39067
L21731 39085
" />
<path d="M47959 34642
L47828 34455
" />
<path d="M47734 34642
L47734 34248
L47884 34248
L47922 34267
L47940 34286
L47959 34323
L47959 34380
L47940 34417
L47922 34436
L47884 34455
L47734 34455
" />
<path d="M48109 34286
L48128 34267
L48165 34248
L48259 34248
L48297 34267
L48315 34286
L48334 34323
L48334 34361
L48315 34417
L48090 34642
L48334 34642
" />
<path d="M39298 34642
L39166 34455
" />
<path d="M39073 34642
L39073 34248
L39223 34248
L39260 34267
L39279 34286
L39298 34323
L39298 34380
L39279 34417
L39260 34436
L39223 34455
L39073 34455
" />
<path d="M39429 34248
L39673 34248
L39541 34398
L39598 34398
L39635 34417
L39654 34436
L39673 34473
L39673 34567
L39654 34605
L39635 34623
L39598 34642
L39485 34642
L39448 34623
L39429 34605
" />
<path d="M34967 40154
L34836 39967
" />
<path d="M34742 40154
L34742 39760
L34892 39760
L34929 39779
L34948 39798
L34967 39835
L34967 39892
L34948 39929
L34929 39948
L34892 39967
L34742 39967
" />
<path d="M35323 39760
L35136 39760
L35117 39948
L35136 39929
L35173 39910
L35267 39910
L35304 39929
L35323 39948
L35342 39985
L35342 40079
L35323 40116
L35304 40135
L35267 40154
L35173 40154
L35136 40135
L35117 40116
" />
<path d="M27487 44485
L27355 44297
" />
<path d="M27262 44485
L27262 44091
L27412 44091
L27449 44110
L27468 44128
L27487 44166
L27487 44222
L27468 44260
L27449 44278
L27412 44297
L27262 44297
" />
<path d="M27824 44091
L27749 44091
L27712 44110
L27693 44128
L27655 44185
L27637 44260
L27637 44410
L27655 44447
L27674 44466
L27712 44485
L27787 44485
L27824 44466
L27843 44447
L27862 44410
L27862 44316
L27843 44278
L27824 44260
L27787 44241
L27712 44241
L27674 44260
L27655 44278
L27637 44316
" />
<path d="M35361 45272
L35229 45085
" />
<path d="M35136 45272
L35136 44878
L35286 44878
L35323 44897
L35342 44916
L35361 44953
L35361 45010
L35342 45047
L35323 45066
L35286 45085
L35136 45085
" />
<path d="M35492 44878
L35754 44878
L35586 45272
" />
<path d="M28274 33855
L28143 33667
" />
<path d="M28049 33855
L28049 33461
L28199 33461
L28237 33480
L28255 33499
L28274 33536
L28274 33592
L28255 33630
L28237 33649
L28199 33667
L28049 33667
" />
<path d="M28499 33630
L28462 33611
L28443 33592
L28424 33555
L28424 33536
L28443 33499
L28462 33480
L28499 33461
L28574 33461
L28611 33480
L28630 33499
L28649 33536
L28649 33555
L28630 33592
L28611 33611
L28574 33630
L28499 33630
L28462 33649
L28443 33667
L28424 33705
L28424 33780
L28443 33817
L28462 33836
L28499 33855
L28574 33855
L28611 33836
L28630 33817
L28649 33780
L28649 33705
L28630 33667
L28611 33649
L28574 33630
" />
<path d="M28274 39367
L28143 39179
" />
<path d="M28049 39367
L28049 38973
L28199 38973
L28237 38992
L28255 39010
L28274 39048
L28274 39104
L28255 39142
L28237 39160
L28199 39179
L28049 39179
" />
<path d="M28462 39367
L28537 39367
L28574 39348
L28593 39329
L28630 39273
L28649 39198
L28649 39048
L28630 39010
L28611 38992
L28574 38973
L28499 38973
L28462 38992
L28443 39010
L28424 39048
L28424 39142
L28443 39179
L28462 39198
L28499 39217
L28574 39217
L28611 39198
L28630 39179
L28649 39142
" />
<path d="M29268 41729
L29136 41541
" />
<path d="M29043 41729
L29043 41335
L29193 41335
L29230 41354
L29249 41373
L29268 41410
L29268 41466
L29249 41504
L29230 41523
L29193 41541
L29043 41541
" />
<path d="M29643 41729
L29418 41729
" />
<path d="M29530 41729
L29530 41335
L29493 41391
L29455 41429
L29418 41448
" />
<path d="M29886 41335
L29924 41335
L29961 41354
L29980 41373
L29999 41410
L30018 41485
L30018 41579
L29999 41654
L29980 41691
L29961 41710
L29924 41729
L29886 41729
L29849 41710
L29830 41691
L29811 41654
L29793 41579
L29793 41485
L29811 41410
L29830 41373
L29849 41354
L29886 41335
" />
<path d="M25724 37004
L25593 36817
" />
<path d="M25499 37004
L25499 36611
L25649 36611
L25687 36629
L25706 36648
L25724 36686
L25724 36742
L25706 36779
L25687 36798
L25649 36817
L25499 36817
" />
<path d="M26099 37004
L25874 37004
" />
<path d="M25987 37004
L25987 36611
L25949 36667
L25912 36704
L25874 36723
" />
<path d="M26474 37004
L26249 37004
" />
<path d="M26362 37004
L26362 36611
L26324 36667
L26287 36704
L26249 36723
" />
<path d="M21394 44878
L21262 44691
" />
<path d="M21169 44878
L21169 44485
L21319 44485
L21356 44503
L21375 44522
L21394 44560
L21394 44616
L21375 44653
L21356 44672
L21319 44691
L21169 44691
" />
<path d="M21769 44878
L21544 44878
" />
<path d="M21656 44878
L21656 44485
L21619 44541
L21581 44578
L21544 44597
" />
<path d="M21919 44522
L21937 44503
L21975 44485
L22069 44485
L22106 44503
L22125 44522
L22144 44560
L22144 44597
L22125 44653
L21900 44878
L22144 44878
" />
<path d="M42653 28343
L42522 28155
" />
<path d="M42429 28343
L42429 27949
L42579 27949
L42616 27968
L42635 27987
L42653 28024
L42653 28080
L42635 28118
L42616 28137
L42579 28155
L42429 28155
" />
<path d="M43028 28343
L42803 28343
" />
<path d="M42916 28343
L42916 27949
L42878 28005
L42841 28043
L42803 28062
" />
<path d="M43160 27949
L43403 27949
L43272 28099
L43328 28099
L43366 28118
L43385 28137
L43403 28174
L43403 28268
L43385 28305
L43366 28324
L43328 28343
L43216 28343
L43178 28324
L43160 28305
" />
<path d="M47150 25335
L47375 25335
" />
<path d="M47262 25729
L47262 25335
" />
<path d="M47469 25335
L47731 25335
L47469 25729
L47731 25729
" />
<path d="M48087 25729
L47862 25729
" />
<path d="M47975 25729
L47975 25335
L47937 25391
L47900 25429
L47862 25448
" />
</g>
<g style="fill:#008484; fill-opacity:0.0; 
stroke:#008484; stroke-width:59.0551; stroke-opacity:1; 
stroke-linecap:round; stroke-linejoin:round;">
<path d="M46156 28170
L46156 27776
" />
<path d="M46381 28170
L46212 27945
" />
<path d="M46381 27776
L46156 28001
" />
<path d="M48725 28038
L48912 28038
" />
<path d="M48687 28150
L48818 27756
L48950 28150
" />
</g>
<g style="fill:#C2C200; fill-opacity:0.0; 
stroke:#C2C200; stroke-width:59.0551; stroke-opacity:1; 
stroke-linecap:round; stroke-linejoin:round;">
<path d="M31589 45547
L31589 45866
L31608 45903
L31627 45922
L31664 45941
L31739 45941
L31777 45922
L31796 45903
L31814 45866
L31814 45547
" />
<path d="M31983 45584
L32002 45566
L32039 45547
L32133 45547
L32170 45566
L32189 45584
L32208 45622
L32208 45659
L32189 45716
L31964 45941
L32208 45941
" />
<path d="M23106 30461
L23237 30855
L23368 30461
" />
<path d="M23725 30855
L23593 30667
" />
<path d="M23500 30855
L23500 30461
L23650 30461
L23687 30480
L23706 30499
L23725 30536
L23725 30592
L23706 30630
L23687 30649
L23650 30667
L23500 30667
" />
<path d="M24100 30855
L23875 30855
" />
<path d="M23987 30855
L23987 30461
L23950 30517
L23912 30555
L23875 30574
" />
</g>
<g style="fill:#008484; fill-opacity:0.0; 
stroke:#008484; stroke-width:59.0551; stroke-opacity:1; 
stroke-linecap:round; stroke-linejoin:round;">
<path d="M53255 44594
L53255 45594
" />
<path d="M53366 43484
L53366 44094
" />
<path d="M53255 44594
L52255 44594
" />
<path d="M52145 44094
L52145 43484
" />
<path d="M52145 43484
L53366 43484
" />
<path d="M52255 44594
L52255 45594
" />
<path d="M52255 45594
L53255 45594
" />
<path d="M40452 43996
L41633 43996
" />
<path d="M41633 44980
L40452 44980
" />
<path d="M40452 47933
L41633 47933
" />
<path d="M41633 48917
L40452 48917
" />
<path d="M42814 23129
L43996 23129
" />
<path d="M43996 24114
L42814 24114
" />
<path d="M31397 31397
L32578 31397
" />
<path d="M32578 32381
L31397 32381
" />
<path d="M36122 33366
L37303 33366
" />
<path d="M37303 34350
L36122 34350
" />
<path d="M35334 46358
L36515 46358
" />
<path d="M36515 47342
L35334 47342
" />
<path d="M27066 28248
L28248 28248
" />
<path d="M28248 29232
L27066 29232
" />
<path d="M24704 40452
L25885 40452
" />
<path d="M25885 41437
L24704 41437
" />
<path d="M47539 36515
L48720 36515
" />
<path d="M48720 37500
L47539 37500
" />
<path d="M45988 40157
L45688 40157
" />
<path d="M45688 40157
L45688 39757
" />
<path d="M45688 39757
L43288 39757
" />
<path d="M43288 39757
L43288 40157
" />
<path d="M43288 40157
L42988 40157
" />
<path d="M43288 40157
L43288 40557
" />
<path d="M43288 40557
L45688 40557
" />
<path d="M45688 40557
L45688 40157
" />
<path d="M45488 39757
L45488 40557
" />
<path d="M45388 40557
L45388 39757
" />
<path d="M46381 33464
L46081 33464
" />
<path d="M46081 33464
L46081 33064
" />
<path d="M46081 33064
L43681 33064
" />
<path d="M43681 33064
L43681 33464
" />
<path d="M43681 33464
L43381 33464
" />
<path d="M43681 33464
L43681 33864
" />
<path d="M43681 33864
L46081 33864
" />
<path d="M46081 33864
L46081 33464
" />
<path d="M45881 33064
L45881 33864
" />
<path d="M45781 33864
L45781 33064
" />
<path d="M24718.5 47057 A1147.83 1147.83 0.0 1 0 24712.6 45866.1 " />
<path d="M24712 47047
L24712 45866
" />
<circle cx="25696.9" cy="46456.7" r="991.313" /> 
<path d="M28261.9 50600.4 A1147.83 1147.83 0.0 1 0 28255.9 49409.4 " />
<path d="M28255 50590
L28255 49409
" />
<circle cx="29240.2" cy="50000" r="991.313" /> 
<path d="M47956 30708
L47656 30708
" />
<path d="M47656 30708
L47656 30308
" />
<path d="M47656 30308
L45256 30308
" />
<path d="M45256 30308
L45256 30708
" />
<path d="M45256 30708
L44956 30708
" />
<path d="M45256 30708
L45256 31108
" />
<path d="M45256 31108
L47656 31108
" />
<path d="M47656 31108
L47656 30708
" />
<path d="M47456 30308
L47456 31108
" />
<path d="M47356 31108
L47356 30308
" />
<path d="M46555 48425
L47185 48425
" />
<path d="M47480 49212
L46220 49212
" />
<path d="M46220 47637
L47480 47637
" />
<path d="M32427 35825
L32977 35825
" />
<path d="M30677 35825
L30077 35825
" />
<path d="M30827 35525
L30827 36125
" />
<path d="M30727 35525
L30727 36125
" />
<path d="M30627 35825
L30627 36125
" />
<path d="M30627 36125
L32427 36125
" />
<path d="M32427 36125
L32427 35525
" />
<path d="M32427 35525
L30627 35525
" />
<path d="M30627 35525
L30627 35825
" />
<path d="M22585 36613
L23135 36613
" />
<path d="M20835 36613
L20235 36613
" />
<path d="M20985 36313
L20985 36913
" />
<path d="M20885 36313
L20885 36913
" />
<path d="M20785 36613
L20785 36913
" />
<path d="M20785 36913
L22585 36913
" />
<path d="M22585 36913
L22585 36313
" />
<path d="M22585 36313
L20785 36313
" />
<path d="M20785 36313
L20785 36613
" />
<circle cx="52362.2" cy="34645.7" r="2195.45" /> 
<path d="M38019 39645
L39358 39645
" />
<path d="M38689 38031.5 A944.882 944.882 0.0 0 0 38020.8 39644.5 " />
<path d="M39357.1 39644.5 A944.882 944.882 0.0 0 0 38689 38031.5 " />
<path d="M41169 31771
L42507 31771
" />
<path d="M41838.6 30157.5 A944.882 944.882 0.0 0 0 41170.5 31770.5 " />
<path d="M42506.7 31770.5 A944.882 944.882 0.0 0 0 41838.6 30157.5 " />
<path d="M41169 36102
L42507 36102
" />
<path d="M41838.6 34488.2 A944.882 944.882 0.0 0 0 41170.5 36101.2 " />
<path d="M42506.7 36101.2 A944.882 944.882 0.0 0 0 41838.6 34488.2 " />
<path d="M21547 38188
L22547 38188
" />
<circle cx="21547.2" cy="38189" r="559.017" /> 
<path d="M47925 33464
L48925 33464
" />
<circle cx="47925.2" cy="33464.6" r="559.017" /> 
<path d="M39263 33464
L40263 33464
" />
<circle cx="39263.8" cy="33464.6" r="559.017" /> 
<path d="M34933 38976
L35933 38976
" />
<circle cx="34933.1" cy="38976.4" r="559.017" /> 
<path d="M27452 43307
L28452 43307
" />
<circle cx="27452.8" cy="43307.1" r="559.017" /> 
<path d="M35326 44094
L36326 44094
" />
<circle cx="35326.8" cy="44094.5" r="559.017" /> 
<path d="M28240 32677
L29240 32677
" />
<circle cx="28240.2" cy="32677.2" r="559.017" /> 
<path d="M28240 38188
L29240 38188
" />
<circle cx="28240.2" cy="38189" r="559.017" /> 
<path d="M29421 40551
L30421 40551
" />
<circle cx="29421.3" cy="40551.2" r="559.017" /> 
<path d="M25877 35826
L26877 35826
" />
<circle cx="25878" cy="35826.8" r="559.017" /> 
<path d="M21547 43700
L22547 43700
" />
<circle cx="21547.2" cy="43700.8" r="559.017" /> 
<path d="M42807 27165
L43807 27165
" />
<circle cx="42807.1" cy="27165.4" r="559.017" /> 
<path d="M47460 26771
L47794 26377
" />
<path d="M47794 26377
L47794 27165
" />
<path d="M47794 27165
L47460 26771
" />
<path d="M47460 26771
L47460 27165
" />
<path d="M47460 26771
L47460 26377
" />
<path d="M46729 27480
L46729 27401
" />
<path d="M46909 27480
L46909 27401
" />
<path d="M48543 27480
L48543 27421
" />
<path d="M46731 26062
L46731 26121
" />
<path d="M46909 26062
L46909 26121
" />
<path d="M48543 26062
L48543 26121
" />
<path d="M46909 27538
L46909 27460
" />
<path d="M46909 25984
L46909 26062
" />
<path d="M48541 27557
L48541 27479
" />
<path d="M46729 27557
L48541 27557
" />
<path d="M46729 27557
L46729 27479
" />
<path d="M46731 25984
L46731 26062
" />
<path d="M46731 25984
L48543 25984
" />
<path d="M48543 25984
L48543 26062
" />
</g>
<g style="fill:#008484; fill-opacity:0.0; 
stroke:#008484; stroke-width:26; stroke-opacity:1; 
stroke-linecap:round; stroke-linejoin:round;">
<path d="M33683 27460
L34683 27460
" />
<path d="M34683 27460
L34683 27061
" />
<path d="M33683 27061
L34683 27061
" />
<path d="M33683 27460
L33683 27061
" />
<path d="M33683 25961
L34683 25961
" />
<path d="M34683 25961
L34683 25561
" />
<path d="M33683 25561
L34683 25561
" />
<path d="M33683 25961
L33683 25561
" />
<path d="M33683 24461
L34683 24461
" />
<path d="M34683 24461
L34683 24061
" />
<path d="M33683 24061
L34683 24061
" />
<path d="M33683 24461
L33683 24061
" />
<path d="M33683 22961
L34683 22961
" />
<path d="M34683 22961
L34683 22561
" />
<path d="M33683 22561
L34683 22561
" />
<path d="M33683 22961
L33683 22561
" />
<path d="M33558 21336
L34808 21336
" />
<path d="M34808 21336
L34808 20936
" />
<path d="M33558 20936
L34808 20936
" />
<path d="M33558 21336
L33558 20936
" />
<path d="M38407 21336
L39657 21336
" />
<path d="M39657 21336
L39657 20936
" />
<path d="M38407 20936
L39657 20936
" />
<path d="M38407 21336
L38407 20936
" />
<path d="M38532 22961
L39532 22961
" />
<path d="M39532 22961
L39532 22561
" />
<path d="M38532 22561
L39532 22561
" />
<path d="M38532 22961
L38532 22561
" />
<path d="M38532 24461
L39532 24461
" />
<path d="M39532 24461
L39532 24061
" />
<path d="M38532 24061
L39532 24061
" />
<path d="M38532 24461
L38532 24061
" />
<path d="M38532 25961
L39532 25961
" />
<path d="M39532 25961
L39532 25561
" />
<path d="M38532 25561
L39532 25561
" />
<path d="M38532 25961
L38532 25561
" />
<path d="M38532 27460
L39532 27460
" />
<path d="M39532 27460
L39532 27061
" />
<path d="M38532 27061
L39532 27061
" />
<path d="M38532 27460
L38532 27061
" />
<path d="M35364 29165
L35864 29165
" />
<path d="M35864 29165
L35864 27665
" />
<path d="M35364 27665
L35864 27665
" />
<path d="M35364 29165
L35364 27665
" />
<path d="M36364 29165
L36864 29165
" />
<path d="M36864 29165
L36864 27665
" />
<path d="M36364 27665
L36864 27665
" />
<path d="M36364 29165
L36364 27665
" />
<path d="M37364 29165
L37864 29165
" />
<path d="M37864 29165
L37864 27665
" />
<path d="M37364 27665
L37864 27665
" />
<path d="M37364 29165
L37364 27665
" />
<path d="M35364 28415
L35864 28415
" />
<path d="M35864 28415
L35864 27665
" />
<path d="M35364 27665
L35864 27665
" />
<path d="M35364 28415
L35364 27665
" />
<path d="M36364 28415
L36864 28415
" />
<path d="M36864 28415
L36864 27665
" />
<path d="M36364 27665
L36864 27665
" />
<path d="M36364 28415
L36364 27665
" />
<path d="M37364 28415
L37864 28415
" />
<path d="M37864 28415
L37864 27665
" />
<path d="M37364 27665
L37864 27665
" />
<path d="M37364 28415
L37364 27665
" />
</g>
<g style="fill:#008484; fill-opacity:0.0; 
stroke:#008484; stroke-width:60; stroke-opacity:1; 
stroke-linecap:round; stroke-linejoin:round;">
<path d="M34564 27665
L38664 27665
" />
<path d="M38664 21415
L34564 21415
" />
<path d="M38664 27665
L38664 22765
" />
<path d="M38664 22765
L38314 22765
" />
<path d="M38314 22765
L38314 22165
" />
<path d="M38314 22165
L38664 22165
" />
<path d="M38664 22165
L38664 21415
" />
<path d="M34564 27665
L34564 22765
" />
<path d="M34564 22765
L34914 22765
" />
<path d="M34914 22765
L34914 22165
" />
<path d="M34914 22165
L34564 22165
" />
<path d="M34564 22165
L34564 21415
" />
</g>
<g style="fill:#008484; fill-opacity:0.0; 
stroke:#008484; stroke-width:20; stroke-opacity:1; 
stroke-linecap:round; stroke-linejoin:round;">
<path d="M34814 27415
L38414 27415
" />
<path d="M38414 24165
L38414 27415
" />
<path d="M38414 24165
L34814 24165
" />
<path d="M34814 27415
L34814 24165
" />
</g>
<g style="fill:#008484; fill-opacity:0.0; 
stroke:#008484; stroke-width:60; stroke-opacity:1; 
stroke-linecap:round; stroke-linejoin:round;">
<path d="M33983 20511
L33983 27760
" />
<path d="M34383 27760
L33983 27760
" />
<path d="M34383 27760
L34383 26411
" />
<path d="M39232 20511
L39232 27760
" />
<path d="M38832 27760
L39232 27760
" />
<path d="M38832 27760
L38832 26411
" />
<path d="M33983 20511
L34383 20511
" />
<path d="M34383 20511
L38832 20511
" />
<path d="M38832 20511
L39232 20511
" />
<path d="M34383 26411
L38832 26411
" />
<path d="M34383 26411
L34383 20511
" />
<path d="M38832 26411
L38832 20511
" />
</g>
<g style="fill:#008484; fill-opacity:0.0; 
stroke:#008484; stroke-width:30; stroke-opacity:1; 
stroke-linecap:round; stroke-linejoin:round;">
<circle cx="36614.2" cy="22765.4" r="500.631" /> 
</g>
<g style="fill:#008484; fill-opacity:0.0; 
stroke:#008484; stroke-width:25; stroke-opacity:1; 
stroke-linecap:round; stroke-linejoin:round;">
<circle cx="36614.2" cy="22776.4" r="972.979" /> 
</g>
<g style="fill:#008484; fill-opacity:0.0; 
stroke:#008484; stroke-width:50; stroke-opacity:1; 
stroke-linecap:round; stroke-linejoin:round;">
<circle cx="36614.2" cy="22765.4" r="459.619" /> 
<path d="M35964 22765
L37264 22765
" />
<path d="M36614 23415
L36614 22115
" />
</g>
<g style="fill:#008484; fill-opacity:0.0; 
stroke:#008484; stroke-width:59.0551; stroke-opacity:1; 
stroke-linecap:round; stroke-linejoin:round;">
<path d="M30939 45362
L32839 45362
" />
<path d="M32839 45362
L32839 46762
" />
<path d="M32839 46762
L30939 46762
" />
<path d="M30939 46762
L30939 45362
" />
<circle cx="31189.8" cy="46513" r="150" /> 
<path d="M23022 31477
L23022 31927
" />
<path d="M24222 31477
L24222 31927
" />
<path d="M25722 31927
L25722 33377
" />
<path d="M25722 33377
L21522 33377
" />
<path d="M21522 33377
L21522 31927
" />
<path d="M25722 31477
L25722 31927
" />
<path d="M25722 31927
L21522 31927
" />
<path d="M21522 31927
L21522 31477
" />
<path d="M23622 31477
L21522 31477
" />
<path d="M23622 31477
L25722 31477
" />
</g>
<g style="fill:#840000; fill-opacity:0.0; 
stroke:#840000; stroke-width:59.0551; stroke-opacity:1; 
stroke-linecap:round; stroke-linejoin:round;">
</g>
<g style="fill:#840000; fill-opacity:0.0; 
stroke:#840000; stroke-width:0; stroke-opacity:1; 
stroke-linecap:round; stroke-linejoin:round;">
</g>
<g style="fill:#840000; fill-opacity:1.0; 
stroke:#840000; stroke-width:0; stroke-opacity:1; 
stroke-linecap:round; stroke-linejoin:round;">
<polyline style="fill-rule:evenodd;"
points="52355,44494
52355,43694
53155,43694
53155,44494
52355,44494
" /> 
</g>
<g style="fill:#840000; fill-opacity:1.0; 
stroke:#840000; stroke-width:800; stroke-opacity:1; 
stroke-linecap:round; stroke-linejoin:round;">
</g>
<g style="fill:#840000; fill-opacity:0.0; 
stroke:#840000; stroke-width:800; stroke-opacity:1; 
stroke-linecap:round; stroke-linejoin:round;">
<path d="M52755 45094
L52755 45094
" />
</g>
<g style="fill:#840000; fill-opacity:0.0; 
stroke:#840000; stroke-width:0; stroke-opacity:1; 
stroke-linecap:round; stroke-linejoin:round;">
</g>
<g style="fill:#840000; fill-opacity:1.0; 
stroke:#840000; stroke-width:0; stroke-opacity:1; 
stroke-linecap:round; stroke-linejoin:round;">
<polyline style="fill-rule:evenodd;"
points="40295,44744
40295,44232
40807,44232
40807,44744
40295,44744
" /> 
<circle cx="41535.4" cy="44488.2" r="255.906" /> 
</g>
<g style="fill:#840000; fill-opacity:1.0; 
stroke:#840000; stroke-width:39.3701; stroke-opacity:1; 
stroke-linecap:round; stroke-linejoin:round;">
</g>
<g style="fill:#840000; fill-opacity:1.0; 
stroke:#840000; stroke-width:0; stroke-opacity:1; 
stroke-linecap:round; stroke-linejoin:round;">
<polyline style="fill-rule:evenodd;"
points="40295,48681
40295,48169
40807,48169
40807,48681
40295,48681
" /> 
<circle cx="41535.4" cy="48425.2" r="255.906" /> 
</g>
<g style="fill:#840000; fill-opacity:1.0; 
stroke:#840000; stroke-width:39.3701; stroke-opacity:1; 
stroke-linecap:round; stroke-linejoin:round;">
</g>
<g style="fill:#840000; fill-opacity:1.0; 
stroke:#840000; stroke-width:0; stroke-opacity:1; 
stroke-linecap:round; stroke-linejoin:round;">
<polyline style="fill-rule:evenodd;"
points="42657,23877
42657,23366
43169,23366
43169,23877
42657,23877
" /> 
<circle cx="43897.6" cy="23622" r="255.906" /> 
</g>
<g style="fill:#840000; fill-opacity:1.0; 
stroke:#840000; stroke-width:39.3701; stroke-opacity:1; 
stroke-linecap:round; stroke-linejoin:round;">
</g>
<g style="fill:#840000; fill-opacity:1.0; 
stroke:#840000; stroke-width:0; stroke-opacity:1; 
stroke-linecap:round; stroke-linejoin:round;">
<polyline style="fill-rule:evenodd;"
points="31240,32145
31240,31633
31751,31633
31751,32145
31240,32145
" /> 
<circle cx="32480.3" cy="31889.8" r="255.906" /> 
</g>
<g style="fill:#840000; fill-opacity:1.0; 
stroke:#840000; stroke-width:39.3701; stroke-opacity:1; 
stroke-linecap:round; stroke-linejoin:round;">
</g>
<g style="fill:#840000; fill-opacity:1.0; 
stroke:#840000; stroke-width:0; stroke-opacity:1; 
stroke-linecap:round; stroke-linejoin:round;">
<polyline style="fill-rule:evenodd;"
points="35964,34114
35964,33602
36476,33602
36476,34114
35964,34114
" /> 
<circle cx="37204.7" cy="33858.3" r="255.906" /> 
</g>
<g style="fill:#840000; fill-opacity:1.0; 
stroke:#840000; stroke-width:39.3701; stroke-opacity:1; 
stroke-linecap:round; stroke-linejoin:round;">
</g>
<g style="fill:#840000; fill-opacity:1.0; 
stroke:#840000; stroke-width:0; stroke-opacity:1; 
stroke-linecap:round; stroke-linejoin:round;">
<polyline style="fill-rule:evenodd;"
points="35177,47106
35177,46594
35688,46594
35688,47106
35177,47106
" /> 
<circle cx="36417.3" cy="46850.4" r="255.906" /> 
</g>
<g style="fill:#840000; fill-opacity:1.0; 
stroke:#840000; stroke-width:39.3701; stroke-opacity:1; 
stroke-linecap:round; stroke-linejoin:round;">
</g>
<g style="fill:#840000; fill-opacity:1.0; 
stroke:#840000; stroke-width:0; stroke-opacity:1; 
stroke-linecap:round; stroke-linejoin:round;">
<polyline style="fill-rule:evenodd;"
points="26909,28996
26909,28484
27421,28484
27421,28996
26909,28996
" /> 
<circle cx="28149.6" cy="28740.2" r="255.906" /> 
</g>
<g style="fill:#840000; fill-opacity:1.0; 
stroke:#840000; stroke-width:39.3701; stroke-opacity:1; 
stroke-linecap:round; stroke-linejoin:round;">
</g>
<g style="fill:#840000; fill-opacity:1.0; 
stroke:#840000; stroke-width:0; stroke-opacity:1; 
stroke-linecap:round; stroke-linejoin:round;">
<polyline style="fill-rule:evenodd;"
points="24547,41200
24547,40688
25059,40688
25059,41200
24547,41200
" /> 
<circle cx="25787.4" cy="40944.9" r="255.906" /> 
</g>
<g style="fill:#840000; fill-opacity:1.0; 
stroke:#840000; stroke-width:39.3701; stroke-opacity:1; 
stroke-linecap:round; stroke-linejoin:round;">
</g>
<g style="fill:#840000; fill-opacity:1.0; 
stroke:#840000; stroke-width:0; stroke-opacity:1; 
stroke-linecap:round; stroke-linejoin:round;">
<polyline style="fill-rule:evenodd;"
points="47381,37263
47381,36751
47893,36751
47893,37263
47381,37263
" /> 
<circle cx="48622" cy="37007.9" r="255.906" /> 
</g>
<g style="fill:#840000; fill-opacity:1.0; 
stroke:#840000; stroke-width:39.3701; stroke-opacity:1; 
stroke-linecap:round; stroke-linejoin:round;">
</g>
<g style="fill:#840000; fill-opacity:1.0; 
stroke:#840000; stroke-width:0; stroke-opacity:1; 
stroke-linecap:round; stroke-linejoin:round;">
<polyline style="fill-rule:evenodd;"
points="45713,40432
45713,39882
46263,39882
46263,40432
45713,40432
" /> 
<circle cx="42988.2" cy="40157.5" r="275" /> 
</g>
<g style="fill:#840000; fill-opacity:1.0; 
stroke:#840000; stroke-width:39.3701; stroke-opacity:1; 
stroke-linecap:round; stroke-linejoin:round;">
</g>
<g style="fill:#840000; fill-opacity:1.0; 
stroke:#840000; stroke-width:0; stroke-opacity:1; 
stroke-linecap:round; stroke-linejoin:round;">
<polyline style="fill-rule:evenodd;"
points="46106,33739
46106,33189
46656,33189
46656,33739
46106,33739
" /> 
<circle cx="43381.9" cy="33464.6" r="275" /> 
</g>
<g style="fill:#840000; fill-opacity:1.0; 
stroke:#840000; stroke-width:39.3701; stroke-opacity:1; 
stroke-linecap:round; stroke-linejoin:round;">
</g>
<g style="fill:#840000; fill-opacity:1.0; 
stroke:#840000; stroke-width:0; stroke-opacity:1; 
stroke-linecap:round; stroke-linejoin:round;">
<polyline style="fill-rule:evenodd;"
points="25570,46850
24822,46850
24822,46062
25570,46062
25570,46850
" /> 
<circle cx="26196.9" cy="46456.7" r="374.016" /> 
</g>
<g style="fill:#840000; fill-opacity:1.0; 
stroke:#840000; stroke-width:39.3701; stroke-opacity:1; 
stroke-linecap:round; stroke-linejoin:round;">
</g>
<g style="fill:#840000; fill-opacity:1.0; 
stroke:#840000; stroke-width:0; stroke-opacity:1; 
stroke-linecap:round; stroke-linejoin:round;">
<polyline style="fill-rule:evenodd;"
points="29114,50393
28366,50393
28366,49606
29114,49606
29114,50393
" /> 
<circle cx="29740.2" cy="50000" r="374.016" /> 
</g>
<g style="fill:#840000; fill-opacity:1.0; 
stroke:#840000; stroke-width:39.3701; stroke-opacity:1; 
stroke-linecap:round; stroke-linejoin:round;">
</g>
<g style="fill:#840000; fill-opacity:1.0; 
stroke:#840000; stroke-width:0; stroke-opacity:1; 
stroke-linecap:round; stroke-linejoin:round;">
<polyline style="fill-rule:evenodd;"
points="47681,30983
47681,30433
48231,30433
48231,30983
47681,30983
" /> 
<circle cx="44956.7" cy="30708.7" r="275" /> 
</g>
<g style="fill:#840000; fill-opacity:1.0; 
stroke:#840000; stroke-width:39.3701; stroke-opacity:1; 
stroke-linecap:round; stroke-linejoin:round;">
</g>
<g style="fill:#840000; fill-opacity:1.0; 
stroke:#840000; stroke-width:1496.06; stroke-opacity:1; 
stroke-linecap:round; stroke-linejoin:round;">
</g>
<g style="fill:#840000; fill-opacity:0.0; 
stroke:#840000; stroke-width:1496.06; stroke-opacity:1; 
stroke-linecap:round; stroke-linejoin:round;">
<path d="M44940 48425
L45610 48425
" />
<path d="M48129 48425
L48720 48425
" />
</g>
<g style="fill:#840000; fill-opacity:1.0; 
stroke:#840000; stroke-width:0; stroke-opacity:1; 
stroke-linecap:round; stroke-linejoin:round;">
<circle cx="33527.8" cy="35825.8" r="334.5" /> 
</g>
<g style="fill:#840000; fill-opacity:1.0; 
stroke:#840000; stroke-width:39.3701; stroke-opacity:1; 
stroke-linecap:round; stroke-linejoin:round;">
</g>
<g style="fill:#840000; fill-opacity:1.0; 
stroke:#840000; stroke-width:0; stroke-opacity:1; 
stroke-linecap:round; stroke-linejoin:round;">
<polyline style="fill-rule:evenodd;"
points="29862,35491
29862,36160
29193,36160
29193,35491
29862,35491
" /> 
<circle cx="23685.2" cy="36613.2" r="334.5" /> 
</g>
<g style="fill:#840000; fill-opacity:1.0; 
stroke:#840000; stroke-width:39.3701; stroke-opacity:1; 
stroke-linecap:round; stroke-linejoin:round;">
</g>
<g style="fill:#840000; fill-opacity:1.0; 
stroke:#840000; stroke-width:0; stroke-opacity:1; 
stroke-linecap:round; stroke-linejoin:round;">
<polyline style="fill-rule:evenodd;"
points="20019,36278
20019,36947
19350,36947
19350,36278
20019,36278
" /> 
<polyline style="fill-rule:evenodd;"
points="51012,34995
51012,34295
51712,34295
51712,34995
51012,34995
" /> 
<circle cx="53362.2" cy="34645.7" r="350" /> 
</g>
<g style="fill:#840000; fill-opacity:1.0; 
stroke:#840000; stroke-width:39.3701; stroke-opacity:1; 
stroke-linecap:round; stroke-linejoin:round;">
</g>
<g style="fill:#840000; fill-opacity:1.0; 
stroke:#840000; stroke-width:354; stroke-opacity:1; 
stroke-linecap:round; stroke-linejoin:round;">
</g>
<g style="fill:#840000; fill-opacity:0.0; 
stroke:#840000; stroke-width:354; stroke-opacity:1; 
stroke-linecap:round; stroke-linejoin:round;">
<path d="M38688 39094
L38688 38857
" />
<path d="M39188 39094
L39188 38857
" />
<path d="M38188 39094
L38188 38857
" />
<path d="M41838 31220
L41838 30983
" />
<path d="M42338 31220
L42338 30983
" />
<path d="M41338 31220
L41338 30983
" />
<path d="M41838 35551
L41838 35314
" />
<path d="M42338 35551
L42338 35314
" />
<path d="M41338 35551
L41338 35314
" />
</g>
<g style="fill:#840000; fill-opacity:1.0; 
stroke:#840000; stroke-width:0; stroke-opacity:1; 
stroke-linecap:round; stroke-linejoin:round;">
<circle cx="21547.2" cy="38189" r="275" /> 
</g>
<g style="fill:#840000; fill-opacity:1.0; 
stroke:#840000; stroke-width:39.3701; stroke-opacity:1; 
stroke-linecap:round; stroke-linejoin:round;">
</g>
<g style="fill:#840000; fill-opacity:1.0; 
stroke:#840000; stroke-width:0; stroke-opacity:1; 
stroke-linecap:round; stroke-linejoin:round;">
<circle cx="22547.2" cy="38189" r="275" /> 
</g>
<g style="fill:#840000; fill-opacity:1.0; 
stroke:#840000; stroke-width:39.3701; stroke-opacity:1; 
stroke-linecap:round; stroke-linejoin:round;">
</g>
<g style="fill:#840000; fill-opacity:1.0; 
stroke:#840000; stroke-width:0; stroke-opacity:1; 
stroke-linecap:round; stroke-linejoin:round;">
<circle cx="47925.2" cy="33464.6" r="275" /> 
</g>
<g style="fill:#840000; fill-opacity:1.0; 
stroke:#840000; stroke-width:39.3701; stroke-opacity:1; 
stroke-linecap:round; stroke-linejoin:round;">
</g>
<g style="fill:#840000; fill-opacity:1.0; 
stroke:#840000; stroke-width:0; stroke-opacity:1; 
stroke-linecap:round; stroke-linejoin:round;">
<circle cx="48925.2" cy="33464.6" r="275" /> 
</g>
<g style="fill:#840000; fill-opacity:1.0; 
stroke:#840000; stroke-width:39.3701; stroke-opacity:1; 
stroke-linecap:round; stroke-linejoin:round;">
</g>
<g style="fill:#840000; fill-opacity:1.0; 
stroke:#840000; stroke-width:0; stroke-opacity:1; 
stroke-linecap:round; stroke-linejoin:round;">
<circle cx="39263.8" cy="33464.6" r="275" /> 
</g>
<g style="fill:#840000; fill-opacity:1.0; 
stroke:#840000; stroke-width:39.3701; stroke-opacity:1; 
stroke-linecap:round; stroke-linejoin:round;">
</g>
<g style="fill:#840000; fill-opacity:1.0; 
stroke:#840000; stroke-width:0; stroke-opacity:1; 
stroke-linecap:round; stroke-linejoin:round;">
<circle cx="40263.8" cy="33464.6" r="275" /> 
</g>
<g style="fill:#840000; fill-opacity:1.0; 
stroke:#840000; stroke-width:39.3701; stroke-opacity:1; 
stroke-linecap:round; stroke-linejoin:round;">
</g>
<g style="fill:#840000; fill-opacity:1.0; 
stroke:#840000; stroke-width:0; stroke-opacity:1; 
stroke-linecap:round; stroke-linejoin:round;">
<circle cx="34933.1" cy="38976.4" r="275" /> 
</g>
<g style="fill:#840000; fill-opacity:1.0; 
stroke:#840000; stroke-width:39.3701; stroke-opacity:1; 
stroke-linecap:round; stroke-linejoin:round;">
</g>
<g style="fill:#840000; fill-opacity:1.0; 
stroke:#840000; stroke-width:0; stroke-opacity:1; 
stroke-linecap:round; stroke-linejoin:round;">
<circle cx="35933.1" cy="38976.4" r="275" /> 
</g>
<g style="fill:#840000; fill-opacity:1.0; 
stroke:#840000; stroke-width:39.3701; stroke-opacity:1; 
stroke-linecap:round; stroke-linejoin:round;">
</g>
<g style="fill:#840000; fill-opacity:1.0; 
stroke:#840000; stroke-width:0; stroke-opacity:1; 
stroke-linecap:round; stroke-linejoin:round;">
<circle cx="27452.8" cy="43307.1" r="275" /> 
</g>
<g style="fill:#840000; fill-opacity:1.0; 
stroke:#840000; stroke-width:39.3701; stroke-opacity:1; 
stroke-linecap:round; stroke-linejoin:round;">
</g>
<g style="fill:#840000; fill-opacity:1.0; 
stroke:#840000; stroke-width:0; stroke-opacity:1; 
stroke-linecap:round; stroke-linejoin:round;">
<circle cx="28452.8" cy="43307.1" r="275" /> 
</g>
<g style="fill:#840000; fill-opacity:1.0; 
stroke:#840000; stroke-width:39.3701; stroke-opacity:1; 
stroke-linecap:round; stroke-linejoin:round;">
</g>
<g style="fill:#840000; fill-opacity:1.0; 
stroke:#840000; stroke-width:0; stroke-opacity:1; 
stroke-linecap:round; stroke-linejoin:round;">
<circle cx="35326.8" cy="44094.5" r="275" /> 
</g>
<g style="fill:#840000; fill-opacity:1.0; 
stroke:#840000; stroke-width:39.3701; stroke-opacity:1; 
stroke-linecap:round; stroke-linejoin:round;">
</g>
<g style="fill:#840000; fill-opacity:1.0; 
stroke:#840000; stroke-width:0; stroke-opacity:1; 
stroke-linecap:round; stroke-linejoin:round;">
<circle cx="36326.8" cy="44094.5" r="275" /> 
</g>
<g style="fill:#840000; fill-opacity:1.0; 
stroke:#840000; stroke-width:39.3701; stroke-opacity:1; 
stroke-linecap:round; stroke-linejoin:round;">
</g>
<g style="fill:#840000; fill-opacity:1.0; 
stroke:#840000; stroke-width:0; stroke-opacity:1; 
stroke-linecap:round; stroke-linejoin:round;">
<circle cx="28240.2" cy="32677.2" r="275" /> 
</g>
<g style="fill:#840000; fill-opacity:1.0; 
stroke:#840000; stroke-width:39.3701; stroke-opacity:1; 
stroke-linecap:round; stroke-linejoin:round;">
</g>
<g style="fill:#840000; fill-opacity:1.0; 
stroke:#840000; stroke-width:0; stroke-opacity:1; 
stroke-linecap:round; stroke-linejoin:round;">
<circle cx="29240.2" cy="32677.2" r="275" /> 
</g>
<g style="fill:#840000; fill-opacity:1.0; 
stroke:#840000; stroke-width:39.3701; stroke-opacity:1; 
stroke-linecap:round; stroke-linejoin:round;">
</g>
<g style="fill:#840000; fill-opacity:1.0; 
stroke:#840000; stroke-width:0; stroke-opacity:1; 
stroke-linecap:round; stroke-linejoin:round;">
<circle cx="28240.2" cy="38189" r="275" /> 
</g>
<g style="fill:#840000; fill-opacity:1.0; 
stroke:#840000; stroke-width:39.3701; stroke-opacity:1; 
stroke-linecap:round; stroke-linejoin:round;">
</g>
<g style="fill:#840000; fill-opacity:1.0; 
stroke:#840000; stroke-width:0; stroke-opacity:1; 
stroke-linecap:round; stroke-linejoin:round;">
<circle cx="29240.2" cy="38189" r="275" /> 
</g>
<g style="fill:#840000; fill-opacity:1.0; 
stroke:#840000; stroke-width:39.3701; stroke-opacity:1; 
stroke-linecap:round; stroke-linejoin:round;">
</g>
<g style="fill:#840000; fill-opacity:1.0; 
stroke:#840000; stroke-width:0; stroke-opacity:1; 
stroke-linecap:round; stroke-linejoin:round;">
<circle cx="29421.3" cy="40551.2" r="275" /> 
</g>
<g style="fill:#840000; fill-opacity:1.0; 
stroke:#840000; stroke-width:39.3701; stroke-opacity:1; 
stroke-linecap:round; stroke-linejoin:round;">
</g>
<g style="fill:#840000; fill-opacity:1.0; 
stroke:#840000; stroke-width:0; stroke-opacity:1; 
stroke-linecap:round; stroke-linejoin:round;">
<circle cx="30421.3" cy="40551.2" r="275" /> 
</g>
<g style="fill:#840000; fill-opacity:1.0; 
stroke:#840000; stroke-width:39.3701; stroke-opacity:1; 
stroke-linecap:round; stroke-linejoin:round;">
</g>
<g style="fill:#840000; fill-opacity:1.0; 
stroke:#840000; stroke-width:0; stroke-opacity:1; 
stroke-linecap:round; stroke-linejoin:round;">
<circle cx="25878" cy="35826.8" r="275" /> 
</g>
<g style="fill:#840000; fill-opacity:1.0; 
stroke:#840000; stroke-width:39.3701; stroke-opacity:1; 
stroke-linecap:round; stroke-linejoin:round;">
</g>
<g style="fill:#840000; fill-opacity:1.0; 
stroke:#840000; stroke-width:0; stroke-opacity:1; 
stroke-linecap:round; stroke-linejoin:round;">
<circle cx="26878" cy="35826.8" r="275" /> 
</g>
<g style="fill:#840000; fill-opacity:1.0; 
stroke:#840000; stroke-width:39.3701; stroke-opacity:1; 
stroke-linecap:round; stroke-linejoin:round;">
</g>
<g style="fill:#840000; fill-opacity:1.0; 
stroke:#840000; stroke-width:0; stroke-opacity:1; 
stroke-linecap:round; stroke-linejoin:round;">
<circle cx="21547.2" cy="43700.8" r="275" /> 
</g>
<g style="fill:#840000; fill-opacity:1.0; 
stroke:#840000; stroke-width:39.3701; stroke-opacity:1; 
stroke-linecap:round; stroke-linejoin:round;">
</g>
<g style="fill:#840000; fill-opacity:1.0; 
stroke:#840000; stroke-width:0; stroke-opacity:1; 
stroke-linecap:round; stroke-linejoin:round;">
<circle cx="22547.2" cy="43700.8" r="275" /> 
</g>
<g style="fill:#840000; fill-opacity:1.0; 
stroke:#840000; stroke-width:39.3701; stroke-opacity:1; 
stroke-linecap:round; stroke-linejoin:round;">
</g>
<g style="fill:#840000; fill-opacity:1.0; 
stroke:#840000; stroke-width:0; stroke-opacity:1; 
stroke-linecap:round; stroke-linejoin:round;">
<circle cx="42807.1" cy="27165.4" r="275" /> 
</g>
<g style="fill:#840000; fill-opacity:1.0; 
stroke:#840000; stroke-width:39.3701; stroke-opacity:1; 
stroke-linecap:round; stroke-linejoin:round;">
</g>
<g style="fill:#840000; fill-opacity:1.0; 
stroke:#840000; stroke-width:0; stroke-opacity:1; 
stroke-linecap:round; stroke-linejoin:round;">
<circle cx="43807.1" cy="27165.4" r="275" /> 
</g>
<g style="fill:#840000; fill-opacity:1.0; 
stroke:#840000; stroke-width:39.3701; stroke-opacity:1; 
stroke-linecap:round; stroke-linejoin:round;">
</g>
<g style="fill:#840000; fill-opacity:1.0; 
stroke:#840000; stroke-width:600; stroke-opacity:1; 
stroke-linecap:round; stroke-linejoin:round;">
</g>
<g style="fill:#840000; fill-opacity:0.0; 
stroke:#840000; stroke-width:600; stroke-opacity:1; 
stroke-linecap:round; stroke-linejoin:round;">
<path d="M36614 28865
L36614 29465
" />
<path d="M35614 28865
L35614 29465
" />
<path d="M37614 28865
L37614 29465
" />
</g>
<g style="fill:#840000; fill-opacity:0.0; 
stroke:#840000; stroke-width:591; stroke-opacity:1; 
stroke-linecap:round; stroke-linejoin:round;">
<path d="M23622 32873
L23622 32480
" />
<path d="M22622 32873
L22622 32480
" />
<path d="M24622 32873
L24622 32480
" />
</g> 
</svg>
