<?xml version="1.0" standalone="no"?>
 <!DOCTYPE svg PUBLIC "-//W3C//DTD SVG 1.1//EN" 
 "http://www.w3.org/Graphics/SVG/1.1/DTD/svg11.dtd"> 
<svg xmlns="http://www.w3.org/2000/svg" version="1.1" 
    width="29.7002cm" height="21.0007cm" viewBox="0 0 116930 82680 ">
<title>SVG Picture created as solarurja-B_SilkS.svg date 2015/11/15 11:36:51 </title>
  <desc>Picture generated by PCBNEW </desc>
<g style="fill:#000000; fill-opacity:1;stroke:#000000; stroke-opacity:1;
stroke-linecap:round; stroke-linejoin:round; "
 transform="translate(0 0) scale(1 1)">
</g>
<g style="fill:#000000; fill-opacity:0.0; 
stroke:#000000; stroke-width:-0.000393701; stroke-opacity:1; 
stroke-linecap:round; stroke-linejoin:round;">
</g>
<g style="fill:#000000; fill-opacity:0.0; 
stroke:#000000; stroke-width:35; stroke-opacity:1; 
stroke-linecap:round; stroke-linejoin:round;">
<path d="M36330 24432
L36330 24998
L36364 25065
L36397 25098
L36464 25132
L36597 25132
L36664 25098
L36697 25065
L36730 24998
L36730 24432
" />
<path d="M37430 25132
L37030 25132
" />
<path d="M37230 25132
L37230 24432
L37164 24532
L37097 24598
L37030 24632
" />
<path d="M35930 25432
L36397 25432
L36097 26132
" />
<path d="M36764 25732
L36697 25698
L36664 25665
L36630 25598
L36630 25565
L36664 25498
L36697 25465
L36764 25432
L36897 25432
L36964 25465
L36997 25498
L37030 25565
L37030 25598
L36997 25665
L36964 25698
L36897 25732
L36764 25732
L36697 25765
L36664 25798
L36630 25865
L36630 25998
L36664 26065
L36697 26098
L36764 26132
L36897 26132
L36964 26098
L36997 26065
L37030 25998
L37030 25865
L36997 25798
L36964 25765
L36897 25732
" />
<path d="M37464 25432
L37530 25432
L37597 25465
L37630 25498
L37664 25565
L37697 25698
L37697 25865
L37664 25998
L37630 26065
L37597 26098
L37530 26132
L37464 26132
L37397 26098
L37364 26065
L37330 25998
L37297 25865
L37297 25698
L37330 25565
L37364 25498
L37397 25465
L37464 25432
" />
<path d="M38330 25432
L37997 25432
L37964 25765
L37997 25732
L38064 25698
L38230 25698
L38297 25732
L38330 25765
L38364 25832
L38364 25998
L38330 26065
L38297 26098
L38230 26132
L38064 26132
L37997 26098
L37964 26065
" />
<path d="M36473 26951
L36854 26951
" />
<path d="M35664 27141
L35664 26641
" />
<path d="M37616 26641
L37711 26641
L37759 26665
L37807 26712
L37830 26808
L37830 26974
L37807 27070
L37759 27117
L37711 27141
L37616 27141
L37568 27117
L37521 27070
L37497 26974
L37497 26808
L37521 26712
L37568 26665
L37616 26641
" />
</g> 
</svg>
