<?xml version="1.0" standalone="no"?>
 <!DOCTYPE svg PUBLIC "-//W3C//DTD SVG 1.1//EN" 
 "http://www.w3.org/Graphics/SVG/1.1/DTD/svg11.dtd"> 
<svg xmlns="http://www.w3.org/2000/svg" version="1.1" 
    width="29.7002cm" height="21.0007cm" viewBox="0 0 116930 82680 ">
<title>SVG Picture created as solarurja-F_Cu.svg date 2015/11/15 11:36:51 </title>
  <desc>Picture generated by PCBNEW </desc>
<g style="fill:#000000; fill-opacity:1;stroke:#000000; stroke-opacity:1;
stroke-linecap:round; stroke-linejoin:round; "
 transform="translate(0 0) scale(1 1)">
</g>
<g style="fill:#000000; fill-opacity:0.0; 
stroke:#000000; stroke-width:-0.000393701; stroke-opacity:1; 
stroke-linecap:round; stroke-linejoin:round;">
</g>
<g style="fill:#000000; fill-opacity:0.0; 
stroke:#000000; stroke-width:0; stroke-opacity:1; 
stroke-linecap:round; stroke-linejoin:round;">
</g>
<g style="fill:#000000; fill-opacity:1.0; 
stroke:#000000; stroke-width:0; stroke-opacity:1; 
stroke-linecap:round; stroke-linejoin:round;">
<polyline style="fill-rule:evenodd;"
points="52355,44494
52355,43694
53155,43694
53155,44494
52355,44494
" /> 
</g>
<g style="fill:#000000; fill-opacity:1.0; 
stroke:#000000; stroke-width:800; stroke-opacity:1; 
stroke-linecap:round; stroke-linejoin:round;">
</g>
<g style="fill:#000000; fill-opacity:0.0; 
stroke:#000000; stroke-width:800; stroke-opacity:1; 
stroke-linecap:round; stroke-linejoin:round;">
<path d="M52755 45094
L52755 45094
" />
</g>
<g style="fill:#000000; fill-opacity:0.0; 
stroke:#000000; stroke-width:0; stroke-opacity:1; 
stroke-linecap:round; stroke-linejoin:round;">
</g>
<g style="fill:#000000; fill-opacity:1.0; 
stroke:#000000; stroke-width:0; stroke-opacity:1; 
stroke-linecap:round; stroke-linejoin:round;">
<polyline style="fill-rule:evenodd;"
points="40295,44744
40295,44232
40807,44232
40807,44744
40295,44744
" /> 
<circle cx="41535.4" cy="44488.2" r="255.906" /> 
</g>
<g style="fill:#000000; fill-opacity:1.0; 
stroke:#000000; stroke-width:39.3701; stroke-opacity:1; 
stroke-linecap:round; stroke-linejoin:round;">
</g>
<g style="fill:#000000; fill-opacity:1.0; 
stroke:#000000; stroke-width:0; stroke-opacity:1; 
stroke-linecap:round; stroke-linejoin:round;">
<polyline style="fill-rule:evenodd;"
points="40295,48681
40295,48169
40807,48169
40807,48681
40295,48681
" /> 
<circle cx="41535.4" cy="48425.2" r="255.906" /> 
</g>
<g style="fill:#000000; fill-opacity:1.0; 
stroke:#000000; stroke-width:39.3701; stroke-opacity:1; 
stroke-linecap:round; stroke-linejoin:round;">
</g>
<g style="fill:#000000; fill-opacity:1.0; 
stroke:#000000; stroke-width:0; stroke-opacity:1; 
stroke-linecap:round; stroke-linejoin:round;">
<polyline style="fill-rule:evenodd;"
points="42657,23877
42657,23366
43169,23366
43169,23877
42657,23877
" /> 
<circle cx="43897.6" cy="23622" r="255.906" /> 
</g>
<g style="fill:#000000; fill-opacity:1.0; 
stroke:#000000; stroke-width:39.3701; stroke-opacity:1; 
stroke-linecap:round; stroke-linejoin:round;">
</g>
<g style="fill:#000000; fill-opacity:1.0; 
stroke:#000000; stroke-width:0; stroke-opacity:1; 
stroke-linecap:round; stroke-linejoin:round;">
<polyline style="fill-rule:evenodd;"
points="31240,32145
31240,31633
31751,31633
31751,32145
31240,32145
" /> 
<circle cx="32480.3" cy="31889.8" r="255.906" /> 
</g>
<g style="fill:#000000; fill-opacity:1.0; 
stroke:#000000; stroke-width:39.3701; stroke-opacity:1; 
stroke-linecap:round; stroke-linejoin:round;">
</g>
<g style="fill:#000000; fill-opacity:1.0; 
stroke:#000000; stroke-width:0; stroke-opacity:1; 
stroke-linecap:round; stroke-linejoin:round;">
<polyline style="fill-rule:evenodd;"
points="35964,34114
35964,33602
36476,33602
36476,34114
35964,34114
" /> 
<circle cx="37204.7" cy="33858.3" r="255.906" /> 
</g>
<g style="fill:#000000; fill-opacity:1.0; 
stroke:#000000; stroke-width:39.3701; stroke-opacity:1; 
stroke-linecap:round; stroke-linejoin:round;">
</g>
<g style="fill:#000000; fill-opacity:1.0; 
stroke:#000000; stroke-width:0; stroke-opacity:1; 
stroke-linecap:round; stroke-linejoin:round;">
<polyline style="fill-rule:evenodd;"
points="35177,47106
35177,46594
35688,46594
35688,47106
35177,47106
" /> 
<circle cx="36417.3" cy="46850.4" r="255.906" /> 
</g>
<g style="fill:#000000; fill-opacity:1.0; 
stroke:#000000; stroke-width:39.3701; stroke-opacity:1; 
stroke-linecap:round; stroke-linejoin:round;">
</g>
<g style="fill:#000000; fill-opacity:1.0; 
stroke:#000000; stroke-width:0; stroke-opacity:1; 
stroke-linecap:round; stroke-linejoin:round;">
<polyline style="fill-rule:evenodd;"
points="26909,28996
26909,28484
27421,28484
27421,28996
26909,28996
" /> 
<circle cx="28149.6" cy="28740.2" r="255.906" /> 
</g>
<g style="fill:#000000; fill-opacity:1.0; 
stroke:#000000; stroke-width:39.3701; stroke-opacity:1; 
stroke-linecap:round; stroke-linejoin:round;">
</g>
<g style="fill:#000000; fill-opacity:1.0; 
stroke:#000000; stroke-width:0; stroke-opacity:1; 
stroke-linecap:round; stroke-linejoin:round;">
<polyline style="fill-rule:evenodd;"
points="24547,41200
24547,40688
25059,40688
25059,41200
24547,41200
" /> 
<circle cx="25787.4" cy="40944.9" r="255.906" /> 
</g>
<g style="fill:#000000; fill-opacity:1.0; 
stroke:#000000; stroke-width:39.3701; stroke-opacity:1; 
stroke-linecap:round; stroke-linejoin:round;">
</g>
<g style="fill:#000000; fill-opacity:1.0; 
stroke:#000000; stroke-width:0; stroke-opacity:1; 
stroke-linecap:round; stroke-linejoin:round;">
<polyline style="fill-rule:evenodd;"
points="47381,37263
47381,36751
47893,36751
47893,37263
47381,37263
" /> 
<circle cx="48622" cy="37007.9" r="255.906" /> 
</g>
<g style="fill:#000000; fill-opacity:1.0; 
stroke:#000000; stroke-width:39.3701; stroke-opacity:1; 
stroke-linecap:round; stroke-linejoin:round;">
</g>
<g style="fill:#000000; fill-opacity:1.0; 
stroke:#000000; stroke-width:0; stroke-opacity:1; 
stroke-linecap:round; stroke-linejoin:round;">
<polyline style="fill-rule:evenodd;"
points="45713,40432
45713,39882
46263,39882
46263,40432
45713,40432
" /> 
<circle cx="42988.2" cy="40157.5" r="275" /> 
</g>
<g style="fill:#000000; fill-opacity:1.0; 
stroke:#000000; stroke-width:39.3701; stroke-opacity:1; 
stroke-linecap:round; stroke-linejoin:round;">
</g>
<g style="fill:#000000; fill-opacity:1.0; 
stroke:#000000; stroke-width:0; stroke-opacity:1; 
stroke-linecap:round; stroke-linejoin:round;">
<polyline style="fill-rule:evenodd;"
points="46106,33739
46106,33189
46656,33189
46656,33739
46106,33739
" /> 
<circle cx="43381.9" cy="33464.6" r="275" /> 
</g>
<g style="fill:#000000; fill-opacity:1.0; 
stroke:#000000; stroke-width:39.3701; stroke-opacity:1; 
stroke-linecap:round; stroke-linejoin:round;">
</g>
<g style="fill:#000000; fill-opacity:1.0; 
stroke:#000000; stroke-width:0; stroke-opacity:1; 
stroke-linecap:round; stroke-linejoin:round;">
<polyline style="fill-rule:evenodd;"
points="25570,46850
24822,46850
24822,46062
25570,46062
25570,46850
" /> 
<circle cx="26196.9" cy="46456.7" r="374.016" /> 
</g>
<g style="fill:#000000; fill-opacity:1.0; 
stroke:#000000; stroke-width:39.3701; stroke-opacity:1; 
stroke-linecap:round; stroke-linejoin:round;">
</g>
<g style="fill:#000000; fill-opacity:1.0; 
stroke:#000000; stroke-width:0; stroke-opacity:1; 
stroke-linecap:round; stroke-linejoin:round;">
<polyline style="fill-rule:evenodd;"
points="29114,50393
28366,50393
28366,49606
29114,49606
29114,50393
" /> 
<circle cx="29740.2" cy="50000" r="374.016" /> 
</g>
<g style="fill:#000000; fill-opacity:1.0; 
stroke:#000000; stroke-width:39.3701; stroke-opacity:1; 
stroke-linecap:round; stroke-linejoin:round;">
</g>
<g style="fill:#000000; fill-opacity:1.0; 
stroke:#000000; stroke-width:0; stroke-opacity:1; 
stroke-linecap:round; stroke-linejoin:round;">
<polyline style="fill-rule:evenodd;"
points="47681,30983
47681,30433
48231,30433
48231,30983
47681,30983
" /> 
<circle cx="44956.7" cy="30708.7" r="275" /> 
</g>
<g style="fill:#000000; fill-opacity:1.0; 
stroke:#000000; stroke-width:39.3701; stroke-opacity:1; 
stroke-linecap:round; stroke-linejoin:round;">
</g>
<g style="fill:#000000; fill-opacity:1.0; 
stroke:#000000; stroke-width:1496.06; stroke-opacity:1; 
stroke-linecap:round; stroke-linejoin:round;">
</g>
<g style="fill:#000000; fill-opacity:0.0; 
stroke:#000000; stroke-width:1496.06; stroke-opacity:1; 
stroke-linecap:round; stroke-linejoin:round;">
<path d="M44940 48425
L45610 48425
" />
<path d="M48129 48425
L48720 48425
" />
</g>
<g style="fill:#000000; fill-opacity:1.0; 
stroke:#000000; stroke-width:0; stroke-opacity:1; 
stroke-linecap:round; stroke-linejoin:round;">
<circle cx="33527.8" cy="35825.8" r="334.5" /> 
</g>
<g style="fill:#000000; fill-opacity:1.0; 
stroke:#000000; stroke-width:39.3701; stroke-opacity:1; 
stroke-linecap:round; stroke-linejoin:round;">
</g>
<g style="fill:#000000; fill-opacity:1.0; 
stroke:#000000; stroke-width:0; stroke-opacity:1; 
stroke-linecap:round; stroke-linejoin:round;">
<polyline style="fill-rule:evenodd;"
points="29862,35491
29862,36160
29193,36160
29193,35491
29862,35491
" /> 
<circle cx="23685.2" cy="36613.2" r="334.5" /> 
</g>
<g style="fill:#000000; fill-opacity:1.0; 
stroke:#000000; stroke-width:39.3701; stroke-opacity:1; 
stroke-linecap:round; stroke-linejoin:round;">
</g>
<g style="fill:#000000; fill-opacity:1.0; 
stroke:#000000; stroke-width:0; stroke-opacity:1; 
stroke-linecap:round; stroke-linejoin:round;">
<polyline style="fill-rule:evenodd;"
points="20019,36278
20019,36947
19350,36947
19350,36278
20019,36278
" /> 
<polyline style="fill-rule:evenodd;"
points="51012,34995
51012,34295
51712,34295
51712,34995
51012,34995
" /> 
<circle cx="53362.2" cy="34645.7" r="350" /> 
</g>
<g style="fill:#000000; fill-opacity:1.0; 
stroke:#000000; stroke-width:39.3701; stroke-opacity:1; 
stroke-linecap:round; stroke-linejoin:round;">
</g>
<g style="fill:#000000; fill-opacity:1.0; 
stroke:#000000; stroke-width:354; stroke-opacity:1; 
stroke-linecap:round; stroke-linejoin:round;">
</g>
<g style="fill:#000000; fill-opacity:0.0; 
stroke:#000000; stroke-width:354; stroke-opacity:1; 
stroke-linecap:round; stroke-linejoin:round;">
<path d="M38688 39094
L38688 38857
" />
<path d="M39188 39094
L39188 38857
" />
<path d="M38188 39094
L38188 38857
" />
<path d="M41838 31220
L41838 30983
" />
<path d="M42338 31220
L42338 30983
" />
<path d="M41338 31220
L41338 30983
" />
<path d="M41838 35551
L41838 35314
" />
<path d="M42338 35551
L42338 35314
" />
<path d="M41338 35551
L41338 35314
" />
</g>
<g style="fill:#000000; fill-opacity:1.0; 
stroke:#000000; stroke-width:0; stroke-opacity:1; 
stroke-linecap:round; stroke-linejoin:round;">
<circle cx="21547.2" cy="38189" r="275" /> 
</g>
<g style="fill:#000000; fill-opacity:1.0; 
stroke:#000000; stroke-width:39.3701; stroke-opacity:1; 
stroke-linecap:round; stroke-linejoin:round;">
</g>
<g style="fill:#000000; fill-opacity:1.0; 
stroke:#000000; stroke-width:0; stroke-opacity:1; 
stroke-linecap:round; stroke-linejoin:round;">
<circle cx="22547.2" cy="38189" r="275" /> 
</g>
<g style="fill:#000000; fill-opacity:1.0; 
stroke:#000000; stroke-width:39.3701; stroke-opacity:1; 
stroke-linecap:round; stroke-linejoin:round;">
</g>
<g style="fill:#000000; fill-opacity:1.0; 
stroke:#000000; stroke-width:0; stroke-opacity:1; 
stroke-linecap:round; stroke-linejoin:round;">
<circle cx="47925.2" cy="33464.6" r="275" /> 
</g>
<g style="fill:#000000; fill-opacity:1.0; 
stroke:#000000; stroke-width:39.3701; stroke-opacity:1; 
stroke-linecap:round; stroke-linejoin:round;">
</g>
<g style="fill:#000000; fill-opacity:1.0; 
stroke:#000000; stroke-width:0; stroke-opacity:1; 
stroke-linecap:round; stroke-linejoin:round;">
<circle cx="48925.2" cy="33464.6" r="275" /> 
</g>
<g style="fill:#000000; fill-opacity:1.0; 
stroke:#000000; stroke-width:39.3701; stroke-opacity:1; 
stroke-linecap:round; stroke-linejoin:round;">
</g>
<g style="fill:#000000; fill-opacity:1.0; 
stroke:#000000; stroke-width:0; stroke-opacity:1; 
stroke-linecap:round; stroke-linejoin:round;">
<circle cx="39263.8" cy="33464.6" r="275" /> 
</g>
<g style="fill:#000000; fill-opacity:1.0; 
stroke:#000000; stroke-width:39.3701; stroke-opacity:1; 
stroke-linecap:round; stroke-linejoin:round;">
</g>
<g style="fill:#000000; fill-opacity:1.0; 
stroke:#000000; stroke-width:0; stroke-opacity:1; 
stroke-linecap:round; stroke-linejoin:round;">
<circle cx="40263.8" cy="33464.6" r="275" /> 
</g>
<g style="fill:#000000; fill-opacity:1.0; 
stroke:#000000; stroke-width:39.3701; stroke-opacity:1; 
stroke-linecap:round; stroke-linejoin:round;">
</g>
<g style="fill:#000000; fill-opacity:1.0; 
stroke:#000000; stroke-width:0; stroke-opacity:1; 
stroke-linecap:round; stroke-linejoin:round;">
<circle cx="34933.1" cy="38976.4" r="275" /> 
</g>
<g style="fill:#000000; fill-opacity:1.0; 
stroke:#000000; stroke-width:39.3701; stroke-opacity:1; 
stroke-linecap:round; stroke-linejoin:round;">
</g>
<g style="fill:#000000; fill-opacity:1.0; 
stroke:#000000; stroke-width:0; stroke-opacity:1; 
stroke-linecap:round; stroke-linejoin:round;">
<circle cx="35933.1" cy="38976.4" r="275" /> 
</g>
<g style="fill:#000000; fill-opacity:1.0; 
stroke:#000000; stroke-width:39.3701; stroke-opacity:1; 
stroke-linecap:round; stroke-linejoin:round;">
</g>
<g style="fill:#000000; fill-opacity:1.0; 
stroke:#000000; stroke-width:0; stroke-opacity:1; 
stroke-linecap:round; stroke-linejoin:round;">
<circle cx="27452.8" cy="43307.1" r="275" /> 
</g>
<g style="fill:#000000; fill-opacity:1.0; 
stroke:#000000; stroke-width:39.3701; stroke-opacity:1; 
stroke-linecap:round; stroke-linejoin:round;">
</g>
<g style="fill:#000000; fill-opacity:1.0; 
stroke:#000000; stroke-width:0; stroke-opacity:1; 
stroke-linecap:round; stroke-linejoin:round;">
<circle cx="28452.8" cy="43307.1" r="275" /> 
</g>
<g style="fill:#000000; fill-opacity:1.0; 
stroke:#000000; stroke-width:39.3701; stroke-opacity:1; 
stroke-linecap:round; stroke-linejoin:round;">
</g>
<g style="fill:#000000; fill-opacity:1.0; 
stroke:#000000; stroke-width:0; stroke-opacity:1; 
stroke-linecap:round; stroke-linejoin:round;">
<circle cx="35326.8" cy="44094.5" r="275" /> 
</g>
<g style="fill:#000000; fill-opacity:1.0; 
stroke:#000000; stroke-width:39.3701; stroke-opacity:1; 
stroke-linecap:round; stroke-linejoin:round;">
</g>
<g style="fill:#000000; fill-opacity:1.0; 
stroke:#000000; stroke-width:0; stroke-opacity:1; 
stroke-linecap:round; stroke-linejoin:round;">
<circle cx="36326.8" cy="44094.5" r="275" /> 
</g>
<g style="fill:#000000; fill-opacity:1.0; 
stroke:#000000; stroke-width:39.3701; stroke-opacity:1; 
stroke-linecap:round; stroke-linejoin:round;">
</g>
<g style="fill:#000000; fill-opacity:1.0; 
stroke:#000000; stroke-width:0; stroke-opacity:1; 
stroke-linecap:round; stroke-linejoin:round;">
<circle cx="28240.2" cy="32677.2" r="275" /> 
</g>
<g style="fill:#000000; fill-opacity:1.0; 
stroke:#000000; stroke-width:39.3701; stroke-opacity:1; 
stroke-linecap:round; stroke-linejoin:round;">
</g>
<g style="fill:#000000; fill-opacity:1.0; 
stroke:#000000; stroke-width:0; stroke-opacity:1; 
stroke-linecap:round; stroke-linejoin:round;">
<circle cx="29240.2" cy="32677.2" r="275" /> 
</g>
<g style="fill:#000000; fill-opacity:1.0; 
stroke:#000000; stroke-width:39.3701; stroke-opacity:1; 
stroke-linecap:round; stroke-linejoin:round;">
</g>
<g style="fill:#000000; fill-opacity:1.0; 
stroke:#000000; stroke-width:0; stroke-opacity:1; 
stroke-linecap:round; stroke-linejoin:round;">
<circle cx="28240.2" cy="38189" r="275" /> 
</g>
<g style="fill:#000000; fill-opacity:1.0; 
stroke:#000000; stroke-width:39.3701; stroke-opacity:1; 
stroke-linecap:round; stroke-linejoin:round;">
</g>
<g style="fill:#000000; fill-opacity:1.0; 
stroke:#000000; stroke-width:0; stroke-opacity:1; 
stroke-linecap:round; stroke-linejoin:round;">
<circle cx="29240.2" cy="38189" r="275" /> 
</g>
<g style="fill:#000000; fill-opacity:1.0; 
stroke:#000000; stroke-width:39.3701; stroke-opacity:1; 
stroke-linecap:round; stroke-linejoin:round;">
</g>
<g style="fill:#000000; fill-opacity:1.0; 
stroke:#000000; stroke-width:0; stroke-opacity:1; 
stroke-linecap:round; stroke-linejoin:round;">
<circle cx="29421.3" cy="40551.2" r="275" /> 
</g>
<g style="fill:#000000; fill-opacity:1.0; 
stroke:#000000; stroke-width:39.3701; stroke-opacity:1; 
stroke-linecap:round; stroke-linejoin:round;">
</g>
<g style="fill:#000000; fill-opacity:1.0; 
stroke:#000000; stroke-width:0; stroke-opacity:1; 
stroke-linecap:round; stroke-linejoin:round;">
<circle cx="30421.3" cy="40551.2" r="275" /> 
</g>
<g style="fill:#000000; fill-opacity:1.0; 
stroke:#000000; stroke-width:39.3701; stroke-opacity:1; 
stroke-linecap:round; stroke-linejoin:round;">
</g>
<g style="fill:#000000; fill-opacity:1.0; 
stroke:#000000; stroke-width:0; stroke-opacity:1; 
stroke-linecap:round; stroke-linejoin:round;">
<circle cx="25878" cy="35826.8" r="275" /> 
</g>
<g style="fill:#000000; fill-opacity:1.0; 
stroke:#000000; stroke-width:39.3701; stroke-opacity:1; 
stroke-linecap:round; stroke-linejoin:round;">
</g>
<g style="fill:#000000; fill-opacity:1.0; 
stroke:#000000; stroke-width:0; stroke-opacity:1; 
stroke-linecap:round; stroke-linejoin:round;">
<circle cx="26878" cy="35826.8" r="275" /> 
</g>
<g style="fill:#000000; fill-opacity:1.0; 
stroke:#000000; stroke-width:39.3701; stroke-opacity:1; 
stroke-linecap:round; stroke-linejoin:round;">
</g>
<g style="fill:#000000; fill-opacity:1.0; 
stroke:#000000; stroke-width:0; stroke-opacity:1; 
stroke-linecap:round; stroke-linejoin:round;">
<circle cx="21547.2" cy="43700.8" r="275" /> 
</g>
<g style="fill:#000000; fill-opacity:1.0; 
stroke:#000000; stroke-width:39.3701; stroke-opacity:1; 
stroke-linecap:round; stroke-linejoin:round;">
</g>
<g style="fill:#000000; fill-opacity:1.0; 
stroke:#000000; stroke-width:0; stroke-opacity:1; 
stroke-linecap:round; stroke-linejoin:round;">
<circle cx="22547.2" cy="43700.8" r="275" /> 
</g>
<g style="fill:#000000; fill-opacity:1.0; 
stroke:#000000; stroke-width:39.3701; stroke-opacity:1; 
stroke-linecap:round; stroke-linejoin:round;">
</g>
<g style="fill:#000000; fill-opacity:1.0; 
stroke:#000000; stroke-width:0; stroke-opacity:1; 
stroke-linecap:round; stroke-linejoin:round;">
<circle cx="42807.1" cy="27165.4" r="275" /> 
</g>
<g style="fill:#000000; fill-opacity:1.0; 
stroke:#000000; stroke-width:39.3701; stroke-opacity:1; 
stroke-linecap:round; stroke-linejoin:round;">
</g>
<g style="fill:#000000; fill-opacity:1.0; 
stroke:#000000; stroke-width:0; stroke-opacity:1; 
stroke-linecap:round; stroke-linejoin:round;">
<circle cx="43807.1" cy="27165.4" r="275" /> 
</g>
<g style="fill:#000000; fill-opacity:1.0; 
stroke:#000000; stroke-width:39.3701; stroke-opacity:1; 
stroke-linecap:round; stroke-linejoin:round;">
</g>
<g style="fill:#000000; fill-opacity:1.0; 
stroke:#000000; stroke-width:0; stroke-opacity:1; 
stroke-linecap:round; stroke-linejoin:round;">
<polyline style="fill-rule:evenodd;"
points="45885,27224
45885,26318
47263,26318
47263,27224
45885,27224
" /> 
<polyline style="fill-rule:evenodd;"
points="48011,27224
48011,26318
49389,26318
49389,27224
48011,27224
" /> 
</g>
<g style="fill:#000000; fill-opacity:1.0; 
stroke:#000000; stroke-width:600; stroke-opacity:1; 
stroke-linecap:round; stroke-linejoin:round;">
</g>
<g style="fill:#000000; fill-opacity:0.0; 
stroke:#000000; stroke-width:600; stroke-opacity:1; 
stroke-linecap:round; stroke-linejoin:round;">
<path d="M36614 28865
L36614 29465
" />
<path d="M35614 28865
L35614 29465
" />
<path d="M37614 28865
L37614 29465
" />
</g>
<g style="fill:#000000; fill-opacity:0.0; 
stroke:#000000; stroke-width:0; stroke-opacity:1; 
stroke-linecap:round; stroke-linejoin:round;">
</g>
<g style="fill:#000000; fill-opacity:1.0; 
stroke:#000000; stroke-width:0; stroke-opacity:1; 
stroke-linecap:round; stroke-linejoin:round;">
<polyline style="fill-rule:evenodd;"
points="31044,47437
31044,46887
31214,46887
31214,47437
31044,47437
" /> 
<polyline style="fill-rule:evenodd;"
points="31294,47437
31294,46887
31464,46887
31464,47437
31294,47437
" /> 
<polyline style="fill-rule:evenodd;"
points="31554,47437
31554,46887
31724,46887
31724,47437
31554,47437
" /> 
<polyline style="fill-rule:evenodd;"
points="31804,47437
31804,46887
31974,46887
31974,47437
31804,47437
" /> 
<polyline style="fill-rule:evenodd;"
points="32064,47437
32064,46887
32234,46887
32234,47437
32064,47437
" /> 
<polyline style="fill-rule:evenodd;"
points="32319,47437
32319,46887
32489,46887
32489,47437
32319,47437
" /> 
<polyline style="fill-rule:evenodd;"
points="32574,47437
32574,46887
32744,46887
32744,47437
32574,47437
" /> 
<polyline style="fill-rule:evenodd;"
points="32574,45237
32574,44687
32744,44687
32744,45237
32574,45237
" /> 
<polyline style="fill-rule:evenodd;"
points="32319,45237
32319,44687
32489,44687
32489,45237
32319,45237
" /> 
<polyline style="fill-rule:evenodd;"
points="32064,45237
32064,44687
32234,44687
32234,45237
32064,45237
" /> 
<polyline style="fill-rule:evenodd;"
points="31804,45237
31804,44687
31974,44687
31974,45237
31804,45237
" /> 
<polyline style="fill-rule:evenodd;"
points="31549,45237
31549,44687
31719,44687
31719,45237
31549,45237
" /> 
<polyline style="fill-rule:evenodd;"
points="31294,45237
31294,44687
31464,44687
31464,45237
31294,45237
" /> 
<polyline style="fill-rule:evenodd;"
points="31039,45237
31039,44687
31209,44687
31209,45237
31039,45237
" /> 
</g>
<g style="fill:#000000; fill-opacity:1.0; 
stroke:#000000; stroke-width:591; stroke-opacity:1; 
stroke-linecap:round; stroke-linejoin:round;">
</g>
<g style="fill:#000000; fill-opacity:0.0; 
stroke:#000000; stroke-width:591; stroke-opacity:1; 
stroke-linecap:round; stroke-linejoin:round;">
<path d="M23622 32873
L23622 32480
" />
<path d="M22622 32873
L22622 32480
" />
<path d="M24622 32873
L24622 32480
" />
</g>
<g style="fill:#000000; fill-opacity:0.0; 
stroke:#000000; stroke-width:98.4252; stroke-opacity:1; 
stroke-linecap:round; stroke-linejoin:round;">
<path d="M46466 26190
L43897 23622
" />
<path d="M46574 26190
L46466 26190
" />
<path d="M46574 26771
L46574 26190
" />
<path d="M41535 44488
L41535 48425
" />
<path d="M39188 38976
L39188 39203
" />
<path d="M46426 39203
L48622 37007
" />
<path d="M52227 45005
L52227 45094
" />
<path d="M46426 39203
L52227 45005
" />
<path d="M52755 45094
L52227 45094
" />
<path d="M39188 39203
L46426 39203
" />
<path d="M31889 44529
L31889 44962
" />
<path d="M36913 39506
L31889 44529
" />
<path d="M38886 39506
L36913 39506
" />
<path d="M39188 39203
L38886 39506
" />
<path d="M41319 48809
L40935 48425
" />
<path d="M43680 48809
L41319 48809
" />
<path d="M44064 48425
L43680 48809
" />
<path d="M45275 48425
L44064 48425
" />
<path d="M40551 48425
L40935 48425
" />
<path d="M45265 40157
L45988 40157
" />
<path d="M40935 44488
L45265 40157
" />
<path d="M40551 44488
L40935 44488
" />
<path d="M35614 29165
L36042 29165
" />
<path d="M42913 26745
L42913 23622
" />
<path d="M38087 26745
L42913 26745
" />
<path d="M36042 28790
L38087 26745
" />
<path d="M36042 29165
L36042 28790
" />
<path d="M43387 26745
L43807 27165
" />
<path d="M42913 26745
L43387 26745
" />
<path d="M29027 31889
L31496 31889
" />
<path d="M28240 32677
L29027 31889
" />
<path d="M31496 31889
L31688 31889
" />
<path d="M37614 29165
L37186 29165
" />
<path d="M31688 31889
L33262 33463
" />
<path d="M33262 35560
L33262 33463
" />
<path d="M33527 35825
L33262 35560
" />
<path d="M37186 29539
L37186 29165
" />
<path d="M33262 33463
L37186 29539
" />
<path d="M30911 38441
L33527 35825
" />
<path d="M30911 45781
L30911 38441
" />
<path d="M31889 46759
L30911 45781
" />
<path d="M31889 47162
L31889 46759
" />
<path d="M41385 35856
L38688 38552
" />
<path d="M41838 35856
L41385 35856
" />
<path d="M41838 35433
L41838 35856
" />
<path d="M38688 38976
L38688 38552
" />
<path d="M36988 34242
L36604 33858
" />
<path d="M39486 34242
L36988 34242
" />
<path d="M40263 33464
L39486 34242
" />
<path d="M36220 33858
L36604 33858
" />
<path d="M34861 44559
L35326 44094
" />
<path d="M32149 44559
L34861 44559
" />
<path d="M32149 44962
L32149 44559
" />
<path d="M29527 32964
L29527 35825
" />
<path d="M29240 32677
L29527 32964
" />
<path d="M32404 45621
L32404 47162
" />
<path d="M32659 45366
L32404 45621
" />
<path d="M32404 47162
L32404 47566
" />
<path d="M32659 44962
L32659 45301
" />
<path d="M32659 45301
L32659 45366
" />
<path d="M32659 45301
L35120 45301
" />
<path d="M35120 45301
L36326 44094
" />
<path d="M36417 46598
L36417 46850
" />
<path d="M35120 45301
L36417 46598
" />
<path d="M32227 47743
L32404 47566
" />
<path d="M30902 47743
L32227 47743
" />
<path d="M29089 45930
L30902 47743
" />
<path d="M29089 43364
L29089 45930
" />
<path d="M28620 42895
L29089 43364
" />
<path d="M27864 42895
L28620 42895
" />
<path d="M27452 43307
L27864 42895
" />
<path d="M32404 44962
L32404 45366
" />
<path d="M32149 45621
L32404 45366
" />
<path d="M32149 47162
L32149 45621
" />
<path d="M30975 47566
L32149 47566
" />
<path d="M29921 46511
L30975 47566
" />
<path d="M29921 40481
L29921 46511
" />
<path d="M25877 36437
L29921 40481
" />
<path d="M25877 35826
L25877 36437
" />
<path d="M32149 47162
L32149 47566
" />
<path d="M41202 31525
L42338 31525
" />
<path d="M39263 33464
L41202 31525
" />
<path d="M42338 31102
L42338 31525
" />
<path d="M48700 26771
L48700 27352
" />
<path d="M42338 31102
L42643 31102
" />
<path d="M47956 30708
L47553 30708
" />
<path d="M42643 31102
L44534 31102
" />
<path d="M44534 29619
L44534 31102
" />
<path d="M46801 27352
L44534 29619
" />
<path d="M48700 27352
L46801 27352
" />
<path d="M47150 31111
L47553 30708
" />
<path d="M44543 31111
L47150 31111
" />
<path d="M44534 31102
L44543 31111
" />
<path d="M43785 33867
L43381 33464
" />
<path d="M47522 33867
L43785 33867
" />
<path d="M47925 33464
L47522 33867
" />
<path d="M25303 46456
L28452 43307
" />
<path d="M25196 46456
L25303 46456
" />
<path d="M29527 48031
L28740 47244
" />
<path d="M32642 48031
L29527 48031
" />
<path d="M32659 48014
L32642 48031
" />
<path d="M32659 47162
L32659 48014
" />
<path d="M28740 47244
L28740 50000
" />
<path d="M27952 46456
L26196 46456
" />
<path d="M28740 47244
L27952 46456
" />
<path d="M44956 29602
L44956 30708
" />
<path d="M44881 29527
L44956 29602
" />
<path d="M50000 29527
L44881 29527
" />
<path d="M51362 30889
L50000 29527
" />
<path d="M51362 34645
L51362 30889
" />
<path d="M35933 38976
L38188 38976
" />
<path d="M21547 38188
L21547 43700
" />
<path d="M22622 37114
L21547 38188
" />
<path d="M22622 32677
L22622 37114
" />
</g> 
</svg>
